<svg xmlns="http://www.w3.org/2000/svg" xmlns:xlink="http://www.w3.org/1999/xlink" width="500" zoomAndPan="magnify" viewBox="0 0 375 374.999991" height="500" preserveAspectRatio="xMidYMid meet" version="1.0"><defs><clipPath id="f4bb1b1b07"><path d="M 0 137.238281 L 153.992188 137.238281 L 153.992188 325.113281 L 0 325.113281 Z M 0 137.238281 " clip-rule="nonzero"/></clipPath><clipPath id="dee6841cb8"><path d="M 153 49.863281 L 266 49.863281 L 266 154 L 153 154 Z M 153 49.863281 " clip-rule="nonzero"/></clipPath><clipPath id="24a763b442"><path d="M 261 161 L 375 161 L 375 244.386719 L 261 244.386719 Z M 261 161 " clip-rule="nonzero"/></clipPath></defs><g clip-path="url(#f4bb1b1b07)"><path fill="#000000" d="M 111.546875 199.503906 C 112.292969 199.820312 113.0625 200.457031 113.773438 200.398438 C 120.25 199.863281 126.699219 199.074219 132.890625 196.949219 C 140.5625 194.3125 145.757812 189.269531 148.015625 181.355469 C 148.726562 178.84375 149.589844 176.371094 150.4375 173.898438 C 150.742188 173.03125 151.195312 172.214844 151.808594 170.871094 C 153.546875 175.199219 154.289062 179.039062 153.195312 182.984375 C 150.816406 191.59375 145.535156 197.742188 136.988281 200.621094 C 132.976562 201.976562 128.765625 202.828125 124.582031 203.570312 C 122.058594 204.023438 120.046875 204.933594 118.367188 206.875 C 115.714844 209.945312 112.933594 212.914062 110.246094 215.886719 C 112.691406 219.425781 112.953125 220.597656 111.800781 223.386719 C 111.316406 222.390625 111.003906 221.507812 110.496094 220.757812 C 109.53125 219.332031 108.496094 217.941406 107.402344 216.617188 C 107.074219 216.226562 106.425781 215.863281 105.945312 215.886719 C 102.742188 216.035156 99.484375 216.140625 97.03125 218.664062 C 91.625 224.222656 86.148438 229.71875 80.875 235.40625 C 74.085938 242.730469 69.003906 251.199219 65.007812 260.308594 C 58.300781 275.59375 53.019531 291.375 49.011719 307.570312 C 48.15625 311.039062 47.652344 314.589844 46.902344 318.558594 C 47.597656 318.089844 48.003906 317.929688 48.242188 317.640625 C 54.148438 310.417969 61.035156 304.144531 67.660156 297.625 C 75.839844 289.597656 83.648438 281.269531 90.007812 271.667969 C 92.027344 268.625 94.429688 265.832031 96.65625 262.925781 C 96.867188 263.03125 97.082031 263.140625 97.292969 263.25 C 96.914062 264.121094 96.570312 265.007812 96.148438 265.859375 C 91.515625 275.246094 85.375 283.570312 78.066406 291.023438 C 71.148438 298.085938 64.011719 304.949219 57.113281 312.03125 C 53.875 315.359375 50.984375 319.027344 47.878906 322.492188 C 46.902344 323.585938 46.179688 325.695312 44.390625 324.976562 C 42.472656 324.207031 43.648438 322.257812 43.835938 320.828125 C 46.746094 298.304688 54.492188 277.273438 63.691406 256.703125 C 66.628906 250.136719 70.484375 244.09375 75.382812 237.960938 C 74.269531 238.316406 73.6875 238.417969 73.183594 238.675781 C 61.054688 244.890625 48.050781 246.261719 34.714844 245.347656 C 30.980469 245.09375 27.203125 244.28125 23.621094 243.15625 C 16.148438 240.800781 8.765625 238.144531 1.40625 235.457031 C -1.515625 234.390625 -1.820312 232.867188 0.476562 230.785156 C 2.617188 228.847656 4.957031 227.054688 7.433594 225.5625 C 21.875 216.863281 37.234375 210.273438 53.550781 205.960938 C 64 203.199219 74.609375 201.621094 85.449219 201.847656 C 85.828125 201.855469 86.203125 201.792969 87.09375 201.71875 C 86.136719 201.339844 85.648438 201.113281 85.140625 200.945312 C 70.222656 196.125 61.554688 184.3125 61.347656 168.785156 C 61.257812 162.015625 63.328125 156.035156 67.167969 150.566406 C 67.5 150.09375 67.800781 149.542969 68.257812 149.21875 C 71.074219 147.183594 73.914062 145.167969 76.789062 143.210938 C 81.167969 140.226562 86.285156 139.476562 91.328125 138.484375 C 99.417969 136.890625 107.550781 137.101562 115.652344 138.097656 C 121.320312 138.796875 126.964844 139.761719 132.570312 140.832031 C 138.078125 141.882812 143.082031 144.226562 147.496094 147.6875 C 150.578125 150.101562 152.128906 153.324219 151.804688 157.316406 C 151.769531 157.761719 151.523438 158.191406 151.300781 158.847656 C 149.785156 157.972656 149.167969 156.6875 148.78125 155.316406 C 147.917969 152.238281 145.9375 150.160156 143.3125 148.449219 C 138.9375 145.597656 134.191406 143.882812 129.089844 142.839844 C 118.6875 140.714844 108.230469 139.375 97.613281 140.203125 C 92.632812 140.589844 87.621094 141.148438 82.914062 143.097656 L 83.019531 143.003906 C 72.011719 146.707031 65.179688 155.292969 64.519531 166.484375 C 64.316406 169.90625 65.074219 173.386719 65.453125 176.835938 C 65.496094 177.214844 65.925781 177.546875 66.171875 177.90625 C 66.644531 179.453125 66.792969 181.21875 67.652344 182.515625 C 72.089844 189.238281 77.769531 194.542969 85.816406 196.597656 C 89.183594 197.457031 92.714844 197.675781 96.089844 198.53125 C 99.082031 199.292969 101.484375 198.273438 104.082031 196.96875 C 102.71875 195.308594 101.398438 195.742188 99.976562 196.339844 C 100.195312 196.828125 100.320312 197.105469 100.382812 197.238281 C 97.960938 196.902344 95.683594 196.34375 93.421875 196.359375 C 91.996094 196.367188 90.917969 196.09375 90.125 195.066406 C 88.964844 193.5625 87.402344 193.160156 85.746094 193.523438 C 84.640625 193.761719 84.070312 193.316406 83.519531 192.652344 C 82.785156 191.753906 82.203125 190.722656 81.433594 189.859375 C 80.890625 189.242188 80.1875 188.429688 79.480469 188.355469 C 76.945312 188.078125 75.859375 186.550781 75.289062 184.316406 C 74.910156 182.84375 73.925781 182.054688 72.148438 182.140625 C 72.148438 182.75 72.148438 183.316406 72.148438 184.019531 C 70.910156 182.34375 69.808594 180.855469 68.746094 179.414062 C 69.0625 179.304688 69.707031 179.148438 69.699219 179.070312 C 69.425781 176.886719 69.277344 174.65625 68.5 172.589844 C 68.292969 172.613281 68.089844 172.628906 67.878906 172.652344 C 67.578125 174.59375 67.273438 176.539062 66.964844 178.535156 C 66.589844 178.28125 66.351562 178.121094 66.113281 177.957031 C 66.125 175.25 66.046875 172.535156 66.183594 169.832031 C 66.25 168.484375 66.195312 166.839844 68.320312 166.390625 C 68.320312 168.167969 68.320312 169.824219 68.320312 172.117188 C 69.78125 170.210938 70.125 168.96875 69.253906 167.242188 C 68.453125 165.652344 68.164062 163.800781 68.058594 161.921875 C 69.699219 164.429688 71.335938 166.941406 73.109375 169.648438 C 72.484375 169.980469 71.867188 170.3125 71.207031 170.664062 C 70.71875 172.289062 70.804688 173.695312 72.828125 174.328125 C 73.183594 173.699219 73.542969 173.054688 73.871094 172.464844 C 74.570312 173.90625 75.25 175.242188 75.851562 176.609375 C 75.953125 176.835938 75.722656 177.203125 75.65625 177.507812 C 75.214844 179.519531 75.882812 180.777344 77.824219 181.359375 C 78.035156 179.707031 78.242188 178.066406 78.449219 176.425781 C 78.671875 176.410156 78.890625 176.394531 79.109375 176.378906 C 79.519531 178.082031 79.921875 179.78125 80.371094 181.671875 C 81.195312 181.796875 82.023438 181.921875 83 182.0625 C 83.234375 181.011719 83.433594 180.121094 83.769531 178.628906 C 84.5 180.660156 85.019531 182.164062 85.585938 183.644531 C 86.027344 184.820312 86.5 185.984375 87.019531 187.125 C 87.535156 188.253906 88.410156 188.308594 89.496094 187.785156 C 89.199219 185.742188 88.898438 183.6875 88.597656 181.632812 C 88.808594 181.566406 89.023438 181.496094 89.234375 181.429688 C 89.824219 182.769531 90.488281 184.078125 90.984375 185.453125 C 91.472656 186.824219 92.125 187.84375 94.148438 187.433594 C 93.699219 188.363281 93.425781 188.929688 93.148438 189.492188 C 94.414062 191.527344 94.414062 191.527344 96.890625 191.136719 C 96.363281 188.75 94.171875 186.871094 94.707031 183.835938 C 96.359375 186.15625 97.847656 188.242188 99.414062 190.441406 C 100.433594 190.285156 101.351562 190.144531 102.464844 189.976562 C 102.15625 188.804688 101.898438 187.824219 101.640625 186.847656 C 101.746094 186.777344 101.847656 186.710938 101.949219 186.640625 C 103.226562 187.976562 104.503906 189.3125 105.777344 190.648438 C 106.855469 191.785156 107.894531 191.824219 108.917969 190.558594 C 108.316406 189.597656 107.722656 188.644531 107.132812 187.691406 C 107.261719 187.527344 107.386719 187.367188 107.519531 187.210938 C 109.832031 188.628906 112.144531 190.050781 114.429688 191.449219 C 115.417969 191.015625 116.277344 190.636719 117.59375 190.058594 C 117.089844 191.046875 116.816406 191.582031 116.441406 192.328125 C 117.195312 192.671875 117.9375 193.019531 118.972656 193.496094 C 119.632812 192.71875 120.242188 191.984375 120.988281 191.101562 C 119.589844 189.984375 118.265625 188.921875 116.566406 187.558594 C 119.394531 187.316406 121.207031 190.042969 123.558594 188.835938 C 124.203125 189.339844 124.75 189.945312 125.433594 190.214844 C 125.753906 190.351562 126.332031 189.855469 127.269531 189.425781 C 126.203125 188.714844 125.5 188.289062 124.84375 187.796875 C 124.195312 187.304688 123.597656 186.742188 122.976562 186.210938 C 123.066406 186.007812 123.160156 185.800781 123.253906 185.597656 C 124.035156 185.726562 124.820312 185.8125 125.589844 185.996094 C 126.421875 186.199219 127.234375 186.496094 128.097656 186.761719 C 128.890625 185.585938 129.636719 184.484375 130.382812 183.378906 C 130.273438 184.679688 130.164062 185.972656 130.058594 187.191406 C 132.132812 187.859375 132.132812 187.859375 132.476562 186.484375 C 131.683594 185.304688 131.035156 184.347656 130.386719 183.390625 C 131.421875 183.527344 132.453125 183.664062 133.601562 183.816406 C 134.027344 182.789062 134.410156 181.847656 134.796875 180.90625 C 134.933594 180.910156 135.066406 180.914062 135.203125 180.914062 C 135.285156 181.789062 135.371094 182.664062 135.453125 183.539062 C 137.449219 183.800781 137.71875 183.589844 137.695312 181.925781 C 137.671875 180.164062 137.691406 178.40625 137.691406 176.695312 C 139.914062 176.25 138.738281 180.574219 141.808594 178.859375 C 141.6875 177.058594 141.550781 175.085938 141.390625 172.691406 C 142.121094 173.671875 142.617188 174.332031 143.234375 175.152344 C 144.125 174.773438 145.058594 174.382812 146.101562 173.941406 C 146.488281 176.214844 142.632812 175.785156 143.722656 178.4375 C 144.648438 178.269531 145.628906 178.09375 146.699219 177.898438 C 146.425781 180.242188 142.664062 179.882812 143.191406 182.691406 C 143.6875 182.800781 144.171875 182.90625 144.929688 183.074219 C 143.625 184.410156 142.527344 185.542969 141.40625 186.6875 C 141.160156 186.464844 140.75 185.800781 140.351562 185.804688 C 138.90625 185.816406 138.480469 186.902344 138.296875 188.3125 C 139.035156 188.4375 139.757812 188.558594 140.84375 188.738281 C 139.320312 189.457031 138.074219 190.042969 137.054688 190.527344 C 135.734375 190.441406 134.558594 190.253906 133.390625 190.335938 C 132.964844 190.363281 132.585938 191.015625 132.050781 191.503906 C 132.757812 191.941406 133.296875 192.269531 133.839844 192.601562 C 133.707031 192.777344 133.628906 192.984375 133.496094 193.027344 C 132.277344 193.414062 131.046875 193.78125 129.664062 194.199219 C 129.660156 194.164062 129.597656 193.765625 129.539062 193.367188 C 126.324219 192.683594 125.871094 192.863281 124.507812 195.398438 C 124.40625 195.585938 124.382812 195.894531 124.238281 195.964844 C 122.773438 196.65625 121.296875 197.324219 119.8125 197.976562 C 119.46875 198.128906 118.949219 198.417969 118.742188 198.28125 C 116.433594 196.800781 114.71875 198.4375 112.839844 199.296875 C 112.414062 199.488281 111.914062 199.511719 111.441406 199.613281 C 112.167969 198.832031 112.890625 198.054688 113.714844 197.164062 C 112.152344 196.324219 110.894531 195.746094 109.242188 196.601562 C 107.746094 197.382812 106.050781 197.789062 104.457031 198.394531 C 103.921875 198.597656 103.429688 198.902344 102.335938 199.449219 C 105.878906 199.582031 108.695312 200.765625 111.546875 199.503906 Z M 105.78125 206.023438 C 105.726562 206.15625 105.679688 206.292969 105.632812 206.429688 C 104.96875 206.363281 104.300781 206.339844 103.652344 206.21875 C 100.984375 205.738281 98.335938 205.128906 95.65625 204.746094 C 84.875 203.21875 74.191406 204.171875 63.585938 206.242188 C 47.304688 209.425781 32.011719 215.421875 17.316406 222.988281 C 12.851562 225.289062 8.597656 228.011719 4.285156 230.597656 C 3.421875 231.113281 2.714844 231.882812 1.671875 232.753906 C 2.785156 233.25 3.453125 233.601562 4.15625 233.847656 C 8.996094 235.542969 13.816406 237.304688 18.699219 238.867188 C 24.421875 240.699219 30.242188 242.265625 36.273438 242.574219 C 45.929688 243.0625 55.414062 241.957031 64.703125 239.222656 C 68.046875 238.238281 71.386719 237.160156 74.804688 236.570312 C 76.234375 236.320312 77.136719 235.863281 78.097656 234.886719 C 83.929688 228.9375 89.8125 223.042969 95.699219 217.148438 C 97.105469 215.742188 98.8125 214.800781 100.792969 214.558594 C 103.355469 214.246094 105.9375 214.070312 108.578125 213.828125 C 110.363281 211.039062 112.214844 208.144531 114.164062 205.105469 C 109.734375 204.671875 105.605469 204.269531 101 203.820312 C 102.882812 204.6875 104.332031 205.355469 105.78125 206.023438 Z M 81.382812 184.296875 C 81.914062 187.699219 82.226562 187.996094 84.722656 187.46875 C 83.71875 183.980469 83.71875 183.980469 81.382812 184.296875 Z M 71.429688 175.394531 C 71.253906 179.886719 71.398438 180.164062 73.792969 180.117188 C 73.359375 178.449219 73.847656 176.425781 71.429688 175.394531 Z M 87.492188 192.382812 C 86.085938 189.476562 86.085938 189.476562 83.566406 189.90625 C 84.546875 192.683594 84.546875 192.683594 87.492188 192.382812 Z M 76.929688 183.511719 C 77.261719 186.976562 77.261719 186.976562 79.738281 186.855469 C 78.96875 185.582031 79.328125 183.484375 76.929688 183.511719 Z M 103.148438 190.550781 C 102.457031 191.125 101.878906 191.605469 101.328125 192.0625 C 102.433594 193.871094 103.5625 193.554688 104.980469 192.664062 C 104.347656 191.9375 103.8125 191.316406 103.148438 190.550781 Z M 120.808594 194.148438 C 123.066406 195.335938 123.441406 193.46875 124.453125 192.496094 C 122.53125 191.734375 122.53125 191.734375 120.808594 194.148438 Z M 134.257812 188.117188 C 137.007812 188.675781 137.03125 188.664062 136.632812 186.449219 C 135.363281 186.320312 134.121094 186.214844 134.257812 188.117188 Z M 112.828125 195.101562 C 115.265625 196.382812 115.265625 196.382812 116.464844 194.710938 C 115.257812 194.039062 114.089844 193.308594 112.828125 195.101562 Z M 96.269531 193.335938 C 97.835938 195.082031 97.835938 195.082031 99.953125 193.984375 C 99.117188 192.363281 97.84375 192.820312 96.269531 193.335938 Z M 91.121094 193.859375 C 92.230469 195.730469 92.230469 195.730469 94.992188 195.070312 C 94.082031 193.328125 92.699219 193.394531 91.121094 193.859375 Z M 112.105469 192.765625 C 111.367188 192.253906 110.765625 191.839844 110.054688 191.351562 C 109.628906 191.859375 109.277344 192.277344 108.917969 192.703125 C 109.871094 193.921875 110.800781 194.074219 112.105469 192.765625 Z M 91.910156 191.738281 C 91.234375 190.335938 90.511719 189.316406 88.878906 190.351562 C 89.308594 191.941406 90.109375 192.632812 91.910156 191.738281 Z M 141.652344 181.714844 C 140.179688 181.605469 139.480469 182.011719 139.640625 183.574219 C 140.9375 183.75 141.78125 183.570312 141.652344 181.714844 Z M 120.757812 196.527344 C 118.929688 195.128906 118.929688 195.128906 117.5 197.546875 C 118.769531 197.148438 119.667969 196.871094 120.757812 196.527344 Z M 108.359375 194.867188 C 106.65625 193.675781 105.78125 194.492188 104.71875 195.183594 C 106.066406 196.738281 106.957031 195.605469 108.359375 194.867188 Z M 131.351562 190.28125 C 130.085938 190.113281 128.96875 188.953125 128.289062 191.105469 C 129.371094 191.351562 130.308594 192.164062 131.351562 190.28125 Z M 115.023438 207.96875 C 116.082031 206.757812 116.792969 205.9375 117.503906 205.121094 C 115.824219 205.609375 115.824219 205.609375 115.023438 207.96875 " fill-opacity="1" fill-rule="evenodd"/></g><path fill="#000000" d="M 114.496094 283.207031 C 114.734375 282.925781 114.96875 282.644531 115.1875 282.390625 C 116.710938 283.257812 115.089844 285.828125 117.5625 286.273438 C 117.511719 285.46875 117.476562 284.847656 117.40625 283.722656 C 119.566406 286.617188 121.433594 289.117188 123.394531 291.746094 C 124.316406 291.054688 124.984375 290.554688 125.738281 289.992188 C 125.238281 289.039062 124.8125 288.226562 124.390625 287.414062 C 124.488281 287.324219 124.585938 287.238281 124.6875 287.15625 C 126.253906 288.355469 127.820312 289.554688 129.554688 290.878906 C 130.074219 290.507812 130.589844 290.144531 131.742188 289.332031 C 130.703125 288.945312 129.90625 288.648438 129.105469 288.355469 C 129.328125 288.058594 129.542969 287.757812 129.761719 287.457031 C 132.214844 288.039062 134.667969 288.617188 137.234375 289.222656 C 137.886719 288.089844 138.457031 287.105469 139.136719 285.929688 C 137.484375 285.261719 136.015625 284.671875 134.542969 284.078125 C 134.582031 283.925781 134.617188 283.777344 134.652344 283.632812 C 135.292969 283.699219 135.925781 283.773438 136.558594 283.839844 C 137.332031 283.921875 138.113281 284.105469 138.875 284.054688 C 139.578125 284.007812 140.265625 283.714844 140.605469 283.625 C 141.960938 284.054688 143.109375 284.417969 144.476562 284.851562 C 144.882812 283.519531 145.175781 282.554688 145.5 281.472656 C 142.578125 280.636719 139.664062 281.472656 137.164062 279.890625 C 140.136719 279.695312 143.105469 279.496094 146.097656 279.296875 C 146.539062 278.308594 146.914062 277.457031 147.484375 276.171875 C 147.914062 277.394531 148.203125 278.21875 148.496094 279.058594 C 150.777344 278.878906 150.003906 277.1875 150.5625 275.792969 C 148.496094 275.792969 146.78125 275.792969 145.066406 275.792969 C 145.039062 275.605469 145.007812 275.414062 144.984375 275.226562 C 146.683594 274.867188 148.699219 274.957031 150.003906 274.035156 C 151.65625 272.867188 153.601562 274.785156 155.050781 272.566406 C 155.050781 271.746094 155.050781 270.417969 155.050781 268.878906 C 153.757812 268.800781 152.4375 268.722656 150.515625 268.609375 C 153.527344 267.9375 155.960938 267.398438 158.628906 266.800781 C 158.152344 265.238281 157.746094 263.902344 157.328125 262.535156 C 158.453125 261.339844 161.464844 262.292969 161.425781 259.328125 C 162.191406 259.527344 162.972656 259.929688 163.714844 259.867188 C 164.421875 259.8125 165.089844 259.269531 166 258.828125 C 165.519531 257.597656 165.074219 256.476562 164.601562 255.269531 C 162.144531 255.757812 159.902344 256.199219 157.667969 256.644531 C 157.632812 256.492188 157.59375 256.347656 157.558594 256.195312 C 159.550781 255.503906 161.546875 254.816406 163.742188 254.054688 C 163.441406 253.234375 163.164062 252.480469 162.84375 251.609375 C 163.179688 251.632812 163.546875 251.546875 163.667969 251.6875 C 165.117188 253.339844 166.6875 253.621094 168.726562 251.957031 C 168.257812 250.878906 167.742188 249.691406 167.164062 248.375 C 164.792969 249.027344 162.601562 249.632812 160.402344 250.238281 C 160.34375 250.070312 160.285156 249.90625 160.222656 249.738281 C 162.171875 248.875 164.121094 248.011719 166.179688 247.101562 C 165.957031 246.238281 165.761719 245.457031 165.457031 244.257812 C 166.152344 244.65625 166.515625 244.769531 166.730469 245.007812 C 167.679688 246.066406 168.640625 246.714844 170.085938 245.132812 C 168.859375 242.730469 167.574219 240.222656 166.214844 237.558594 C 168.226562 237.535156 168.683594 239.460938 170.035156 240.058594 C 171.042969 239.855469 171.328125 239.300781 170.800781 238.402344 C 169.824219 236.730469 168.808594 235.078125 167.828125 233.410156 C 167.257812 232.441406 166.722656 231.460938 166.425781 230.285156 C 168.226562 230.949219 169.335938 232.332031 170.390625 233.742188 C 171.429688 235.128906 172.371094 236.59375 173.421875 238.125 C 174.863281 237.808594 175.480469 237.152344 174.621094 235.730469 C 173.117188 233.246094 171.59375 230.769531 170.074219 228.296875 C 169.53125 227.425781 168.957031 226.570312 168.398438 225.707031 C 168.53125 225.539062 168.65625 225.378906 168.785156 225.214844 C 169.320312 225.421875 170.054688 225.472656 170.347656 225.859375 C 172.15625 228.234375 173.910156 230.65625 175.585938 233.125 C 176.164062 233.972656 176.472656 235.007812 176.902344 235.949219 C 178.570312 235.492188 178.84375 234.507812 178.511719 233.03125 C 177.828125 230.050781 176.679688 227.359375 174.605469 225.039062 C 173.015625 223.265625 171.457031 221.402344 170.667969 218.546875 C 171.777344 218.710938 172.617188 218.710938 173.363281 218.972656 C 177.847656 220.523438 180.941406 223.546875 182.609375 227.988281 C 185.417969 235.46875 185.820312 243.140625 183.9375 250.851562 C 178.542969 272.921875 165.207031 288.554688 144.761719 298.136719 C 137.558594 301.507812 129.917969 303.027344 121.847656 302.066406 C 115.492188 301.3125 110.6875 298.304688 107.476562 292.894531 C 102.992188 285.351562 100.523438 277.214844 100.429688 268.34375 C 100.265625 254.105469 103.578125 240.804688 111.472656 228.941406 C 119.566406 216.785156 131.320312 210.558594 145.820312 209.464844 C 148.527344 209.257812 151.246094 209.171875 153.957031 209.132812 C 157.515625 209.074219 160.824219 210.09375 164.011719 211.9375 C 164.53125 211.003906 164.953125 210.269531 165.355469 209.527344 C 173.253906 194.828125 183.058594 181.527344 194.757812 169.644531 C 200.09375 164.226562 206.515625 160.171875 212.945312 156.175781 C 213.148438 156.050781 213.449219 156.089844 214.203125 155.980469 C 212.375 157.570312 210.902344 158.851562 209.433594 160.132812 C 209.503906 160.242188 209.574219 160.347656 209.644531 160.453125 C 211.871094 159.066406 214.09375 157.679688 216.320312 156.292969 C 216.445312 156.441406 216.574219 156.59375 216.703125 156.746094 C 216.359375 157.078125 216.058594 157.472656 215.667969 157.734375 C 209.496094 161.867188 204.25 167.03125 199.347656 172.554688 C 187.632812 185.757812 177.765625 200.183594 170.632812 216.386719 C 169.972656 217.882812 169.492188 219.464844 168.960938 221.015625 C 168.523438 222.308594 167.941406 223.238281 166.28125 223.039062 C 165.058594 222.894531 163.777344 223.257812 162.554688 223.101562 C 161.144531 222.917969 160.027344 222.101562 159.652344 220.605469 C 159.285156 219.164062 160.03125 218.375 161.152344 217.5 C 162.054688 216.796875 162.492188 215.503906 163.210938 214.359375 C 160.902344 212.695312 158.523438 211.769531 156.027344 211.796875 C 151 211.84375 145.84375 211.613281 140.964844 212.605469 C 129.660156 214.910156 120.128906 220.449219 113.765625 230.417969 C 107.878906 239.648438 104.625 249.796875 103.855469 260.746094 C 103.382812 267.457031 103.351562 274.136719 105.554688 280.582031 C 106.582031 283.589844 108.050781 286.445312 109.308594 289.375 C 109.972656 290.921875 111.066406 291.585938 112.765625 291.226562 C 113.703125 291.027344 114.671875 290.945312 115.644531 290.8125 C 114.957031 288.902344 113.847656 287.730469 111.769531 287.480469 C 110.726562 287.359375 109.746094 286.734375 108.734375 286.339844 C 108.796875 286.113281 108.859375 285.886719 108.917969 285.660156 C 110.601562 285.757812 112.285156 285.855469 114.28125 285.972656 C 114.378906 284.984375 114.472656 284.058594 114.5625 283.132812 Z M 174.566406 249.84375 C 175.652344 247.992188 175.398438 246.949219 173.382812 245.492188 C 172.890625 247.261719 173.574219 248.589844 174.613281 249.824219 C 174.335938 252.375 175.398438 254.667969 175.777344 257.523438 C 177.867188 254.6875 176.808594 252.359375 175.871094 250.070312 C 175.78125 249.855469 175.007812 249.917969 174.566406 249.84375 Z M 205.730469 163.394531 C 202.441406 166.21875 198.933594 168.835938 195.894531 171.90625 C 185.886719 182.015625 177.652344 193.511719 170.234375 205.609375 C 169.023438 207.585938 167.917969 209.640625 166.878906 211.71875 C 166.4375 212.625 166.511719 213.8125 165.984375 214.636719 C 164.878906 216.367188 163.535156 217.945312 162.09375 219.839844 C 163.457031 220.503906 164.445312 220.976562 165.5 221.488281 C 166.492188 219.078125 167.273438 216.902344 168.253906 214.820312 C 175.164062 200.15625 184.183594 186.902344 195.167969 174.988281 C 198.710938 171.148438 202.3125 167.371094 205.890625 163.5625 C 206.757812 162.898438 207.625 162.230469 208.496094 161.5625 C 208.351562 161.40625 208.207031 161.25 208.0625 161.089844 C 207.285156 161.859375 206.511719 162.625 205.730469 163.394531 Z M 164.25 277.234375 C 169.382812 272.460938 169.828125 271.273438 167.46875 265.808594 C 166.601562 266.175781 165.742188 266.546875 164.59375 267.03125 C 164.882812 268.363281 165.15625 269.601562 165.382812 270.648438 C 165.023438 272.734375 164.679688 274.742188 164.25 277.234375 Z M 152.523438 285.5 C 149.578125 286.269531 149.574219 288.792969 148.683594 290.777344 C 150.488281 289.871094 152.152344 288.800781 153.726562 287.613281 C 154.132812 287.308594 154.421875 286.652344 154.476562 286.121094 C 154.683594 284.324219 154.765625 282.511719 154.90625 280.558594 C 153.511719 280.496094 152.125 280.171875 151.882812 281.707031 C 151.699219 282.875 150.058594 284.488281 152.523438 285.5 Z M 141.25 291.320312 C 140.074219 291.445312 138.894531 291.214844 138.273438 291.699219 C 136.125 293.351562 134.179688 295.253906 131.777344 297.402344 C 136.085938 296.8125 139.808594 296.316406 141.25 291.320312 Z M 121.664062 297.746094 C 125.855469 298.066406 129.609375 298.800781 132.367188 294.414062 C 131.054688 294.285156 129.886719 293.8125 129.035156 294.148438 C 126.664062 295.085938 124.425781 296.367188 121.664062 297.746094 Z M 148.199219 286.464844 C 147.238281 286.828125 146.328125 286.882812 146.015625 287.34375 C 144.414062 289.664062 142.972656 292.09375 141.457031 294.507812 C 145.625 293.738281 147.917969 291.351562 148.199219 286.464844 Z M 168.464844 259.742188 C 169.195312 261.101562 168.949219 262.386719 169.992188 263.578125 C 170.636719 264.3125 169.882812 266.234375 169.859375 267.625 C 169.847656 268.089844 170.148438 268.5625 170.363281 269.1875 C 172.3125 266.414062 172.359375 262.820312 170.621094 258.84375 C 170.019531 259.09375 169.421875 259.34375 168.464844 259.742188 Z M 159.570312 278.695312 C 158.535156 279.265625 157.070312 279.097656 156.789062 280.757812 C 156.515625 282.332031 156.171875 283.902344 155.835938 285.621094 C 160.136719 283.183594 160.589844 281.761719 159.570312 278.695312 Z M 121.292969 292.855469 C 121.253906 292.535156 121.21875 292.214844 121.183594 291.898438 C 119.644531 291 118.261719 292.433594 116.792969 292.5 C 115.226562 292.570312 113.660156 292.621094 111.882812 292.6875 C 113.761719 294.894531 113.796875 295.042969 115.039062 294.738281 C 117.152344 294.21875 119.207031 293.496094 121.292969 292.855469 Z M 177.03125 243.054688 C 176.652344 243.78125 176.015625 244.414062 176.101562 244.921875 C 176.496094 247.179688 177.097656 249.40625 177.726562 252.070312 C 179.238281 248.757812 179.4375 246.007812 177.03125 243.054688 Z M 124.320312 294.566406 C 120.957031 293.6875 118.734375 296.089844 115.59375 295.4375 C 118.316406 298.085938 120.402344 297.738281 124.320312 294.566406 Z M 179.292969 236.800781 C 179.054688 236.695312 178.820312 236.59375 178.585938 236.488281 C 178.195312 236.960938 177.414062 237.511719 177.488281 237.902344 C 177.898438 240.132812 178.519531 242.324219 179.070312 244.53125 C 179.140625 244.496094 179.21875 244.464844 179.292969 244.429688 C 179.292969 241.886719 179.292969 239.34375 179.292969 236.800781 Z M 164.601562 265.289062 C 165.683594 264.839844 166.539062 264.488281 167.5625 264.0625 C 167.195312 262.777344 166.890625 261.710938 166.515625 260.398438 C 165.402344 260.863281 164.570312 261.207031 163.660156 261.582031 C 163.976562 262.835938 164.234375 263.851562 164.601562 265.289062 Z M 174.027344 256.558594 C 171.4375 258.601562 173.558594 261.015625 173.265625 263.140625 C 174.914062 261.175781 175.859375 259.125 174.027344 256.558594 Z M 159.351562 272.089844 C 159.167969 270.757812 158.996094 269.5625 158.800781 268.171875 C 157.808594 268.367188 157.109375 268.511719 156.246094 268.679688 C 156.578125 270.070312 156.863281 271.257812 157.183594 272.605469 C 157.949219 272.421875 158.558594 272.277344 159.351562 272.089844 Z M 166.417969 254.683594 C 167.050781 255.910156 167.5625 256.894531 168.140625 258.015625 C 169.03125 257.558594 169.6875 257.226562 170.496094 256.8125 C 170.109375 255.710938 169.777344 254.738281 169.355469 253.527344 C 168.335938 253.929688 167.5 254.257812 166.417969 254.683594 Z M 162.773438 273.511719 C 161.210938 275.5 161.660156 277.84375 161.882812 280.140625 C 164.164062 278.277344 163.570312 275.914062 162.773438 273.511719 Z M 159.015625 262.90625 C 159.6875 264.144531 160.222656 265.128906 160.820312 266.226562 C 161.476562 266.046875 162.074219 265.882812 162.867188 265.664062 C 162.570312 264.394531 162.316406 263.3125 162.011719 262.023438 C 160.9375 262.339844 160.074219 262.59375 159.015625 262.90625 Z M 141.007812 286.191406 C 140.503906 287.480469 140.128906 288.441406 139.660156 289.644531 C 140.636719 289.734375 141.425781 289.804688 142.289062 289.882812 C 142.800781 288.730469 143.234375 287.75 143.769531 286.527344 C 142.617188 286.386719 141.898438 286.300781 141.007812 286.191406 Z M 152.199219 275.585938 C 152.253906 276.667969 152.304688 277.574219 152.363281 278.707031 C 153.414062 278.425781 154.199219 278.210938 154.972656 278.003906 C 154.972656 277.007812 154.972656 276.207031 154.972656 275.207031 C 153.976562 275.34375 153.171875 275.453125 152.199219 275.585938 Z M 173.859375 239.335938 C 174.394531 240.671875 174.84375 241.777344 175.351562 243.042969 C 176.097656 242.691406 176.570312 242.464844 177.234375 242.148438 C 176.75 240.890625 176.324219 239.769531 175.839844 238.511719 C 175.195312 238.78125 174.699219 238.988281 173.859375 239.335938 Z M 119.957031 290.144531 C 118.972656 288.9375 118.929688 287.632812 117.628906 287.230469 C 116.125 288.234375 116.773438 289.332031 117.257812 290.582031 C 118.054688 290.453125 118.769531 290.339844 119.957031 290.144531 Z M 147.273438 284.546875 C 149.289062 284.652344 149.289062 284.652344 149.382812 281.273438 C 147.65625 281.433594 147.65625 281.433594 147.273438 284.546875 Z M 168.933594 247.527344 C 169.761719 249.039062 170.378906 250.167969 171.128906 251.542969 C 172.8125 249.472656 171.070312 248.371094 170.699219 246.941406 C 170.109375 247.136719 169.683594 247.28125 168.933594 247.527344 Z M 136.324219 290.601562 C 134.792969 290.679688 133.894531 290.550781 133.128906 290.820312 C 132.617188 291 132.300781 291.730469 131.789062 292.339844 C 132.582031 292.703125 133.175781 292.972656 133.894531 293.296875 C 134.550781 292.566406 135.167969 291.878906 136.324219 290.601562 Z M 161.242188 267.925781 C 161.410156 269.097656 161.558594 270.191406 161.703125 271.277344 C 163.9375 271.148438 163.226562 269.714844 163.203125 268.6875 C 163.175781 267.636719 162.5625 267.375 161.242188 267.925781 Z M 157.445312 277.238281 C 160.109375 277.148438 160.109375 277.148438 159.273438 274.652344 C 157.316406 274.894531 157.316406 274.894531 157.445312 277.238281 Z M 126.503906 290.535156 C 125.769531 291.414062 125.1875 292.105469 124.582031 292.832031 C 126.234375 294.503906 126.960938 293.117188 127.980469 292.195312 C 127.527344 291.683594 127.164062 291.273438 126.503906 290.535156 Z M 172.285156 252.074219 C 170.964844 253.59375 172.105469 254.707031 172.585938 256.023438 C 174.085938 254.8125 174.050781 254.472656 172.285156 252.074219 Z M 170.644531 240.84375 C 171.65625 243.472656 171.65625 243.472656 172.925781 244.207031 C 173.019531 241.804688 172.480469 240.917969 170.644531 240.84375 " fill-opacity="1" fill-rule="evenodd"/><g clip-path="url(#dee6841cb8)"><path fill="#000000" d="M 246.851562 150.625 C 247.34375 148.03125 246.296875 146.628906 244.613281 146.269531 C 241.914062 145.699219 239.78125 144.214844 237.78125 142.613281 C 233.128906 138.898438 228.136719 135.8125 222.832031 133.148438 C 212.578125 128.007812 203.652344 121.109375 195.984375 112.5625 C 190.679688 106.644531 185.101562 100.9375 180.714844 94.269531 C 174.703125 85.125 168.890625 75.851562 162.871094 66.707031 C 160.480469 63.074219 157.789062 59.636719 155.210938 56.125 C 154.476562 55.121094 153.238281 54.105469 154.070312 52.824219 C 154.980469 51.429688 156.339844 52.429688 157.484375 52.804688 C 165.867188 55.527344 174.21875 58.339844 182.628906 60.972656 C 191.703125 63.808594 199.203125 68.914062 205.128906 76.285156 C 213.207031 86.328125 221.1875 96.457031 229.214844 106.542969 C 229.316406 106.671875 229.527344 106.707031 229.972656 106.925781 C 229.769531 102.679688 229.582031 98.582031 229.375 94.480469 C 229.09375 88.96875 228.761719 83.449219 228.535156 77.929688 C 228.191406 69.648438 226.761719 61.574219 224.097656 53.71875 C 223.4375 51.792969 223.472656 51.78125 224.035156 49.871094 C 224.824219 50.214844 225.613281 50.472656 226.3125 50.882812 C 232.234375 54.363281 237.070312 59.113281 241.707031 64.09375 C 250.902344 73.972656 257.277344 85.574219 261.976562 98.085938 C 265.808594 108.289062 265.667969 118.996094 264.855469 129.683594 C 264.421875 135.367188 262.707031 140.691406 259.683594 145.5625 C 259.480469 145.890625 259.3125 146.25 259.078125 146.554688 C 257.703125 148.328125 256.351562 150.109375 256.757812 152.472656 C 255.667969 152.96875 254.808594 153.359375 253.738281 153.84375 C 252.355469 151.976562 250.277344 153.972656 248.304688 153.148438 C 246.476562 152.386719 244.089844 153.058594 241.972656 152.855469 C 239.859375 152.648438 237.773438 152.15625 235.679688 151.765625 C 233.492188 151.355469 231.296875 150.949219 229.121094 150.476562 C 227.039062 150.023438 224.984375 149.464844 222.902344 149 C 220.828125 148.539062 218.722656 148.195312 216.648438 147.699219 C 214.582031 147.199219 212.539062 146.582031 210.492188 145.996094 C 208.441406 145.414062 206.390625 144.824219 204.355469 144.195312 C 202.316406 143.574219 200.273438 142.957031 198.273438 142.230469 C 196.277344 141.5 194.3125 140.652344 192.351562 139.824219 C 190.390625 138.992188 188.449219 138.109375 186.496094 137.257812 C 184.453125 136.363281 182.394531 135.515625 180.367188 134.589844 C 178.429688 133.699219 176.507812 132.769531 174.613281 131.792969 C 172.722656 130.8125 170.855469 129.78125 169.007812 128.71875 C 167.214844 127.683594 165.296875 126.804688 163.800781 125.347656 C 163.90625 125.140625 164.007812 124.933594 164.109375 124.726562 C 164.9375 125.054688 165.789062 125.34375 166.59375 125.71875 C 174.851562 129.558594 183.039062 133.546875 191.359375 137.238281 C 201.5 141.734375 212.21875 144.40625 223.046875 146.65625 C 228.167969 147.71875 233.265625 148.910156 238.410156 149.835938 C 241.144531 150.328125 243.957031 150.371094 246.851562 150.625 Z M 220.9375 109.925781 C 222.089844 111.640625 223.242188 113.355469 224.394531 115.070312 C 224.09375 111.160156 223.378906 107.488281 222.910156 103.78125 C 222.695312 102.054688 222.054688 100.832031 220.519531 99.804688 C 220.988281 102.667969 221.433594 105.304688 221.839844 107.949219 C 221.972656 108.808594 222.125 109.738281 220.886719 109.988281 C 220.757812 109.238281 220.664062 108.484375 220.484375 107.75 C 219.691406 104.460938 218.78125 101.199219 218.101562 97.886719 C 217.703125 95.953125 217.742188 95.746094 215.75 94.65625 C 215.71875 94.75 215.65625 94.847656 215.664062 94.933594 C 215.976562 98.191406 216.292969 101.449219 216.621094 104.707031 C 216.648438 104.984375 216.738281 105.308594 216.914062 105.507812 C 218.238281 106.996094 219.59375 108.453125 220.9375 109.925781 Z M 160.328125 58.203125 C 161.101562 56.597656 162.003906 57.816406 162.644531 58.226562 C 169.089844 62.335938 175.769531 66.144531 181.851562 70.746094 C 193.785156 79.773438 204.496094 90.144531 213.894531 101.828125 C 214.496094 102.578125 215.175781 103.273438 216.191406 104.414062 C 214.996094 99.539062 214.011719 95.308594 212.902344 91.117188 C 212.65625 90.191406 211.964844 89.386719 211.476562 88.527344 C 211.316406 88.597656 211.164062 88.667969 211.007812 88.742188 C 211.269531 90.964844 211.523438 93.191406 211.785156 95.417969 C 211.589844 95.472656 211.402344 95.523438 211.214844 95.574219 C 210.972656 94.984375 210.671875 94.40625 210.5 93.792969 C 209.707031 91.007812 208.84375 88.230469 208.199219 85.40625 C 207.859375 83.902344 207.105469 82.835938 205.726562 81.566406 C 205.957031 84.871094 207.351562 87.644531 206.675781 90.628906 C 206.273438 90.0625 206.046875 89.457031 205.839844 88.847656 C 204.640625 85.269531 203.445312 81.6875 202.246094 78.113281 C 201.664062 76.382812 200.714844 74.957031 198.871094 73.972656 C 199.699219 77.871094 200.472656 81.523438 201.242188 85.179688 C 200.457031 84.652344 200.140625 83.992188 199.921875 83.308594 C 198.761719 79.71875 197.625 76.121094 196.484375 72.527344 C 195.898438 70.699219 195.898438 70.699219 194.09375 70.066406 C 194.734375 72.265625 195.394531 74.519531 196.050781 76.773438 C 195.863281 76.835938 195.679688 76.902344 195.492188 76.96875 C 194.164062 74.3125 192.753906 71.6875 191.53125 68.980469 C 190.636719 67.011719 189.097656 66.167969 186.855469 65.59375 C 187.863281 67.914062 188.753906 69.957031 189.640625 72.007812 C 189.453125 72.097656 189.261719 72.1875 189.070312 72.28125 C 187.613281 70.011719 186.117188 67.769531 184.726562 65.464844 C 183.972656 64.214844 183.046875 63.515625 181.484375 63.636719 C 182.0625 64.875 182.570312 65.96875 183.082031 67.058594 C 182.300781 66.664062 181.769531 66.125 181.480469 65.480469 C 180.484375 63.273438 178.769531 62.222656 176.464844 61.546875 C 171.085938 59.96875 165.785156 58.113281 160.449219 56.378906 C 159.851562 56.183594 159.242188 56.046875 158.628906 55.878906 C 158.542969 56.015625 158.460938 56.15625 158.371094 56.296875 C 159.042969 56.917969 159.71875 57.535156 160.390625 58.15625 C 162.238281 61.078125 164.054688 64.027344 165.953125 66.921875 C 169.078125 71.691406 172.257812 76.429688 175.417969 81.179688 C 176.21875 82.386719 177.136719 83.535156 177.8125 84.8125 C 182.101562 92.929688 188.003906 99.832031 194.050781 106.652344 C 203.273438 117.050781 213.65625 125.890625 226.335938 131.816406 C 230.300781 133.671875 234.039062 135.867188 237.308594 138.8125 C 237.546875 139.023438 237.878906 139.136719 238.71875 139.597656 C 238.1875 138.632812 237.953125 138.242188 237.753906 137.835938 C 236.117188 134.449219 234.484375 131.0625 232.847656 127.675781 C 232.46875 126.902344 232.066406 126.144531 231.65625 125.34375 C 231.707031 125.160156 231.828125 124.964844 231.804688 124.789062 C 231.222656 120.605469 230.625 116.425781 230.03125 112.246094 C 229.945312 112.242188 229.851562 112.242188 229.765625 112.242188 C 229.65625 114.144531 229.558594 116.046875 229.453125 117.953125 C 229.203125 117.960938 228.957031 117.96875 228.707031 117.976562 C 228.265625 114.960938 227.730469 111.960938 227.414062 108.929688 C 227.253906 107.347656 226.679688 106.234375 225.574219 105.660156 C 225.574219 108.605469 225.699219 111.601562 225.515625 114.585938 C 225.4375 115.878906 225.789062 116.773438 226.492188 117.757812 C 228.292969 120.277344 229.988281 122.867188 231.726562 125.425781 C 230.757812 124.503906 229.699219 123.65625 228.832031 122.652344 C 225.050781 118.246094 221.253906 113.847656 217.582031 109.351562 C 202.738281 91.167969 186.128906 74.921875 166.269531 62.199219 C 164.722656 61.210938 163.304688 60.019531 161.808594 58.957031 C 161.359375 58.640625 160.824219 58.449219 160.328125 58.203125 Z M 258.21875 123.046875 C 258.019531 122.960938 257.820312 122.871094 257.613281 122.78125 C 257.769531 122.242188 257.917969 121.703125 258.085938 121.167969 C 259.160156 117.753906 260.269531 114.347656 261.304688 110.921875 C 261.96875 108.730469 261.5 105.992188 260.226562 104.160156 C 259.148438 107.589844 258.460938 111.128906 256.277344 114.03125 C 256.121094 113.679688 256.144531 113.398438 256.195312 113.128906 C 257.007812 108.945312 257.851562 104.773438 258.625 100.582031 C 258.984375 98.640625 259.125 96.6875 257.273438 95.039062 C 256.664062 99.53125 256.292969 103.828125 254.175781 107.710938 C 254.074219 106.242188 254.253906 104.816406 254.371094 103.382812 C 254.703125 99.332031 255.03125 95.28125 255.3125 91.226562 C 255.417969 89.679688 254.890625 88.359375 253.558594 87.164062 C 253.011719 91.925781 253.277344 96.542969 251.488281 100.835938 C 251.242188 95.191406 251.230469 89.578125 251.253906 83.960938 C 251.265625 82.382812 251.078125 80.925781 249.527344 79.589844 C 249.289062 84.277344 249.777344 88.753906 248.394531 93.070312 C 248.109375 91.839844 248.011719 90.605469 247.945312 89.367188 C 247.699219 85.117188 247.464844 80.863281 247.230469 76.609375 C 247.136719 74.964844 246.347656 73.773438 244.636719 72.566406 C 244.816406 74.527344 245.027344 76.042969 245.0625 77.5625 C 245.101562 79.046875 244.953125 80.539062 244.882812 82.027344 C 244.082031 80.101562 243.789062 78.191406 243.488281 76.285156 C 243.171875 74.277344 242.757812 72.28125 242.535156 70.261719 C 242.367188 68.710938 241.496094 67.851562 240.089844 66.648438 C 240.101562 69.535156 241.570312 71.757812 240.503906 74.558594 C 239.710938 72.171875 239.0625 70.257812 238.441406 68.332031 C 237.816406 66.375 237.574219 64.175781 236.496094 62.511719 C 235.320312 60.691406 233.398438 59.347656 231.765625 57.832031 C 230.769531 56.90625 229.742188 56.015625 228.683594 55.171875 C 227.996094 54.621094 227.222656 54.175781 226.0625 53.402344 C 226.5 54.875 226.761719 55.792969 227.046875 56.703125 C 228.953125 62.828125 230.222656 69.101562 230.691406 75.484375 C 231.628906 88.136719 232.382812 100.808594 233.105469 113.476562 C 233.558594 121.527344 235.160156 129.214844 239.582031 136.105469 C 243.246094 141.8125 247.945312 146.386719 254.28125 149.59375 C 256.234375 145.851562 258.324219 142.351562 259.917969 138.644531 C 261.507812 134.945312 262.058594 130.945312 261.792969 126.769531 C 260.933594 128.214844 260.070312 129.660156 259.210938 131.105469 C 258.933594 130.390625 259 129.835938 259.171875 129.316406 C 260.058594 126.652344 260.910156 123.976562 261.882812 121.347656 C 262.5625 119.496094 262.253906 117.714844 261.8125 115.886719 C 260.613281 118.273438 259.421875 120.660156 258.21875 123.046875 " fill-opacity="1" fill-rule="evenodd"/></g><path fill="#000000" d="M 159.765625 126.742188 C 160.351562 127.027344 160.945312 127.300781 161.519531 127.601562 C 170.808594 132.417969 180.085938 137.257812 189.386719 142.058594 C 196.347656 145.644531 203.898438 147.160156 211.558594 148.316406 C 219.601562 149.527344 227.601562 150.914062 235.566406 152.636719 C 243.597656 154.375 251.824219 155.257812 260.09375 155.324219 C 265.621094 155.367188 271.144531 155.589844 276.671875 155.632812 C 278.992188 155.648438 281.316406 155.425781 283.636719 155.289062 C 288.769531 154.972656 293.890625 154.625 299.023438 154.328125 C 307.246094 153.847656 315.476562 153.390625 323.707031 152.945312 C 324.65625 152.890625 325.621094 152.9375 326.683594 153.441406 C 324.988281 153.824219 323.316406 154.390625 321.601562 154.5625 C 312.632812 155.449219 303.65625 156.25 294.679688 157.054688 C 290.910156 157.394531 287.144531 157.828125 283.371094 157.933594 C 278.242188 158.078125 273.105469 157.960938 267.96875 157.953125 C 266.8125 157.953125 265.660156 157.953125 264.234375 157.953125 C 265.007812 160.300781 267.398438 161.757812 267.328125 164.289062 C 265.472656 162.535156 263.6875 160.800781 261.835938 159.140625 C 261.238281 158.605469 260.496094 157.9375 259.765625 157.871094 C 253.410156 157.28125 247.039062 156.816406 240.371094 156.289062 C 238.429688 159.929688 236.816406 163.964844 235.835938 168.191406 C 234.960938 171.949219 234.339844 175.785156 233.878906 179.617188 C 233.371094 183.828125 234.277344 187.902344 235.699219 191.875 C 236.601562 194.378906 236.332031 195.136719 234.457031 196.265625 C 232.25 197.59375 229.472656 197.632812 228.246094 196.195312 C 227.800781 195.683594 227.34375 194.5 227.601562 194.183594 C 229.191406 192.1875 227.609375 190.273438 227.886719 187.996094 C 226.335938 188.414062 225.050781 188.695312 223.804688 189.113281 C 215.953125 191.746094 208.886719 195.574219 203.703125 202.3125 C 199.632812 207.609375 197.679688 213.6875 196.558594 220.183594 C 194.421875 232.570312 196.011719 244.515625 200.542969 256.117188 C 203.351562 263.308594 207.601562 269.515625 214.183594 273.78125 C 219.875 277.476562 226.054688 279.289062 232.976562 278.167969 C 237.597656 277.417969 241.285156 275.160156 244.664062 272.125 C 251.660156 265.835938 256.640625 258.152344 259.972656 249.441406 C 260.992188 246.785156 261.183594 243.78125 261.574219 240.914062 C 263.164062 229.171875 261.796875 217.757812 257.800781 206.59375 C 254.632812 197.753906 248.710938 191.902344 239.792969 189.019531 C 237.855469 188.394531 237.867188 188.363281 236.601562 186.996094 C 237.09375 186.71875 237.511719 186.308594 237.984375 186.238281 C 238.640625 186.140625 239.355469 186.195312 240 186.359375 C 249.535156 188.828125 256.890625 194.109375 260.910156 203.292969 C 265.347656 213.414062 266.984375 224.101562 266.230469 235.09375 C 265.789062 241.625 263.550781 247.761719 261.34375 253.875 C 261.015625 254.785156 260.617188 255.675781 260.375 256.613281 C 257.996094 265.753906 251.820312 272.179688 244.683594 277.667969 C 237.078125 283.515625 228.464844 283.53125 219.835938 280.191406 C 209.632812 276.253906 203.035156 268.542969 198.917969 258.710938 C 192.898438 244.324219 191.644531 229.457031 195.460938 214.300781 C 198.230469 203.308594 204.925781 195.335938 215.042969 190.335938 C 218.152344 188.800781 221.53125 187.816406 224.796875 186.605469 C 225.6875 186.273438 226.609375 186.03125 227.296875 185.820312 C 228.179688 180.351562 228.859375 175.078125 229.914062 169.886719 C 230.960938 164.722656 233.082031 159.945312 236.601562 155.65625 C 230.636719 153.746094 224.84375 152.753906 219.039062 151.851562 C 215.019531 151.230469 210.976562 150.71875 206.980469 149.964844 C 202.992188 149.21875 199.050781 148.222656 194.953125 147.308594 C 193.503906 148.875 192.015625 150.648438 190.347656 152.238281 C 186.59375 155.824219 182.191406 158.523438 177.519531 160.671875 C 168.972656 164.589844 160.273438 168.175781 150.984375 169.980469 C 148.445312 170.472656 145.808594 170.5625 143.210938 170.675781 C 141.03125 170.773438 139.699219 169.007812 140.125 166.835938 C 140.644531 164.210938 143.261719 162.5 146.003906 162.246094 C 149.554688 161.914062 153.085938 161.21875 156.570312 160.4375 C 168.699219 157.714844 179.828125 152.535156 190.488281 146.273438 C 190.730469 146.132812 190.929688 145.90625 191.226562 145.65625 C 180.78125 139.203125 169.09375 134.972656 159.355469 127.4375 C 159.492188 127.207031 159.628906 126.972656 159.765625 126.742188 Z M 194.144531 147.160156 C 192.832031 145.777344 192.105469 146.644531 191.378906 147.226562 C 180.304688 156.078125 167.582031 161.195312 153.757812 163.792969 C 150.941406 164.320312 148.097656 165.25 145.1875 164.011719 C 143.890625 165.082031 142.464844 165.992188 143.023438 168.242188 C 144.613281 168.347656 146.28125 168.808594 147.785156 168.5 C 161.058594 165.742188 173.664062 161.160156 185.210938 153.984375 C 188.363281 152.023438 191.144531 149.476562 194.144531 147.160156 Z M 239.273438 155.820312 C 237.464844 156.746094 236.078125 158.539062 234.421875 162.605469 C 230.359375 172.578125 228.972656 182.90625 230.347656 193.695312 C 231.574219 193.867188 232.574219 194.011719 233.867188 194.195312 C 229.78125 180.414062 232.96875 168.050781 239.273438 155.820312 " fill-opacity="1" fill-rule="evenodd"/><g clip-path="url(#24a763b442)"><path fill="#000000" d="M 269.742188 164.875 C 270.148438 164.527344 270.550781 164.179688 271.003906 163.789062 C 270.691406 163.113281 270.347656 162.367188 269.925781 161.449219 C 270.417969 161.449219 270.726562 161.359375 270.917969 161.46875 C 271.503906 161.808594 272.035156 162.234375 272.601562 162.609375 C 274.511719 163.882812 276.496094 164.34375 278.898438 164.125 C 285.554688 163.53125 292.238281 163.296875 298.910156 162.886719 C 301.113281 162.753906 303.054688 163.363281 305.035156 164.316406 C 316.992188 170.0625 328.9375 175.839844 341 181.359375 C 350.296875 185.617188 360.132812 188.1875 370.253906 189.671875 C 371.78125 189.898438 373.308594 190.242188 374.765625 190.746094 C 375.382812 190.953125 376.195312 191.691406 376.222656 192.230469 C 376.257812 192.742188 375.476562 193.589844 374.882812 193.792969 C 370.859375 195.183594 366.875 196.839844 362.730469 197.667969 C 351.546875 199.894531 340.226562 200.113281 328.859375 199.195312 C 322.324219 198.671875 316.03125 197.371094 309.59375 194.078125 C 310.09375 195.152344 310.289062 195.730469 310.609375 196.230469 C 314.113281 201.808594 317.652344 207.363281 321.160156 212.9375 C 326.589844 221.582031 332.898438 229.554688 339.636719 237.199219 C 341.101562 238.859375 342.863281 240.257812 344.507812 241.757812 C 345.097656 242.300781 345.847656 242.929688 345.179688 243.664062 C 344.792969 244.09375 343.511719 244.378906 343.207031 244.101562 C 340.214844 241.378906 336.402344 242.359375 332.976562 241.707031 C 313.402344 237.980469 296.734375 229.128906 283.316406 214.214844 C 273.507812 203.3125 266.101562 191.121094 261.851562 177.035156 C 260.929688 173.972656 260.710938 171.261719 262.84375 168.550781 C 263.851562 167.265625 264.300781 165.542969 265.164062 163.664062 C 266.480469 165.699219 266.285156 167.554688 265.296875 168.871094 C 262.933594 171.996094 263.910156 174.90625 264.972656 178.128906 C 271.121094 196.773438 282.363281 211.71875 297.746094 223.675781 C 306.296875 230.320312 316.214844 234.195312 326.445312 237.347656 C 330.125 238.480469 333.855469 239.4375 338.132812 240.632812 C 337.605469 239.691406 337.449219 239.265625 337.167969 238.953125 C 327.792969 228.417969 319.9375 216.796875 312.433594 204.890625 C 306.960938 196.207031 301.074219 187.78125 295.308594 179.285156 C 293.0625 175.976562 290.296875 173.15625 286.851562 171.007812 C 283.328125 168.800781 279.429688 167.757812 275.421875 166.953125 C 273.558594 166.574219 271.722656 166.089844 269.875 165.652344 C 269.828125 165.394531 269.785156 165.132812 269.742188 164.875 Z M 369.535156 192.46875 C 368.601562 192.289062 367.667969 192.085938 366.726562 191.925781 C 360.707031 190.886719 354.75 189.628906 348.992188 187.523438 C 333.308594 181.789062 318.378906 174.425781 303.664062 166.597656 C 302.097656 165.765625 300.570312 165.085938 298.738281 165.140625 C 294.285156 165.269531 289.824219 165.292969 285.367188 165.398438 C 284.492188 165.417969 283.621094 165.617188 282.390625 165.789062 C 284.988281 167.179688 287.191406 168.183594 289.203125 169.488281 C 291.222656 170.792969 293.050781 172.394531 294.859375 173.785156 C 296.105469 174.023438 297.335938 174.121094 298.464844 174.507812 C 301.492188 175.542969 304.460938 176.71875 307.46875 177.808594 C 320.9375 182.707031 334.484375 187.375 348.640625 189.957031 C 351.539062 190.484375 354.441406 190.988281 357.34375 191.503906 C 357.320312 191.703125 357.292969 191.898438 357.269531 192.09375 C 353.285156 191.832031 349.292969 191.570312 345.078125 191.292969 C 345.839844 192.980469 347.519531 193.710938 347.628906 195.460938 C 346.503906 194.84375 345.351562 194.191406 344.730469 193.203125 C 343.132812 190.683594 340.832031 189.996094 337.65625 190.042969 C 339.285156 192.046875 340.8125 193.753906 342.132812 195.605469 C 342.992188 196.804688 343.992188 197.089844 345.359375 196.960938 C 349.222656 196.605469 353.09375 196.425781 356.945312 195.984375 C 361.273438 195.496094 365.519531 194.550781 369.535156 192.46875 Z M 305.476562 179.488281 C 308.347656 184.460938 310.898438 188.878906 313.476562 193.28125 C 313.703125 193.671875 314.097656 194.125 314.492188 194.226562 C 317.808594 195.0625 321.140625 195.820312 324.6875 196.015625 C 322.230469 191.996094 319.933594 188.21875 317.601562 184.46875 C 317.371094 184.09375 316.957031 183.738281 316.550781 183.570312 C 315.257812 183.046875 313.921875 182.617188 312.144531 181.988281 C 313.898438 185.855469 315.410156 189.199219 316.925781 192.546875 C 316.730469 192.640625 316.535156 192.730469 316.339844 192.820312 C 313.816406 189.238281 311.246094 185.671875 310.148438 181.21875 C 308.800781 180.71875 307.460938 180.222656 305.476562 179.488281 Z M 331.054688 195.269531 C 330.917969 195.398438 330.78125 195.535156 330.648438 195.660156 C 328.101562 193.597656 325.335938 190.523438 324.21875 187.609375 C 323.421875 185.523438 321.917969 185.359375 319.820312 184.910156 C 322.015625 188.675781 323.9375 192.109375 326.027344 195.429688 C 326.398438 196.019531 327.445312 196.410156 328.214844 196.46875 C 331.972656 196.765625 335.742188 196.933594 339.511719 197.113281 C 340.125 197.144531 340.746094 197 341.714844 196.902344 C 339.792969 194.726562 337.976562 192.984375 336.550781 190.964844 C 335.5 189.472656 334.410156 188.65625 332.40625 188.832031 C 333.632812 191.140625 334.773438 193.296875 335.917969 195.453125 C 335.722656 195.570312 335.527344 195.6875 335.335938 195.808594 C 333.523438 194.125 332.007812 192.128906 330.976562 189.898438 C 329.933594 187.628906 328.21875 187.148438 325.867188 186.992188 C 327.699219 189.910156 329.378906 192.589844 331.054688 195.269531 Z M 296.707031 176.074219 C 297.664062 177.449219 298.199219 178.214844 298.734375 178.976562 C 301.566406 182.996094 304.550781 186.925781 307.179688 191.074219 C 308.492188 193.136719 309.945312 193.90625 312.445312 193.433594 C 311.296875 191.894531 310.253906 190.515625 309.238281 189.121094 C 307.195312 186.3125 305.023438 183.582031 304.429688 179.996094 C 304.347656 179.515625 303.886719 178.910156 303.445312 178.71875 C 301.453125 177.851562 299.402344 177.113281 296.707031 176.074219 " fill-opacity="1" fill-rule="evenodd"/></g><path fill="#000000" d="M 255.957031 205.828125 C 255.808594 206.5625 255.847656 207.410156 255.484375 208.015625 C 254.230469 210.085938 254.597656 211.851562 256.390625 213.609375 C 256.71875 213.535156 257.207031 213.433594 257.3125 213.410156 C 257.695312 215.046875 258.015625 216.597656 258.425781 218.125 C 258.808594 219.5625 259.917969 220.878906 258.726562 222.5 C 258.429688 222.910156 258.773438 223.792969 258.820312 224.460938 C 257.230469 224.519531 256.804688 225.445312 257.03125 226.726562 C 257.148438 227.375 257.5625 227.96875 257.765625 228.613281 C 257.964844 229.246094 258.414062 230.222656 258.152344 230.511719 C 255.707031 233.25 258.066406 235.800781 258.332031 238.417969 C 258.425781 239.335938 258.636719 240.246094 258.359375 241.285156 C 257.542969 239.363281 256.730469 237.441406 255.917969 235.519531 C 255.730469 235.578125 255.542969 235.636719 255.359375 235.691406 C 256.183594 238.625 257.003906 241.558594 257.824219 244.488281 C 257.675781 244.5625 257.53125 244.632812 257.390625 244.703125 C 256.972656 244.089844 256.554688 243.476562 256.089844 242.789062 C 255.839844 242.980469 255.460938 243.132812 255.457031 243.292969 C 255.445312 244.042969 255.492188 244.800781 255.597656 245.546875 C 255.90625 247.722656 256.253906 249.890625 256.585938 252.0625 C 256.382812 252.109375 256.183594 252.160156 255.976562 252.210938 C 255.3125 250.238281 254.644531 248.269531 253.941406 246.179688 C 252.351562 246.667969 252.421875 247.78125 252.65625 248.9375 C 253.191406 251.566406 252.980469 254.1875 252.757812 257.402344 C 252.234375 256.324219 251.96875 255.765625 251.644531 255.09375 C 250.023438 255.761719 249.390625 256.96875 249.40625 258.65625 C 249.414062 259.621094 249.429688 260.632812 249.152344 261.535156 C 248.859375 262.5 248.351562 263.449219 247.726562 264.246094 C 246.695312 265.558594 245.496094 266.742188 244.324219 268.035156 C 244.292969 267.941406 244.160156 267.578125 243.957031 267.019531 C 242.078125 267.46875 240.320312 267.929688 239.703125 270.195312 C 238.96875 272.898438 237.117188 274.347656 234.347656 274.832031 C 233.359375 275.003906 232.460938 275.683594 231.460938 276.167969 C 231.136719 274.816406 229.980469 275.246094 229.039062 275.132812 C 227.992188 275.003906 226.542969 275.175781 226.007812 274.566406 C 225.128906 273.570312 224.855469 272.046875 224.652344 270.542969 C 225.515625 271.359375 226.375 272.175781 227.296875 273.046875 C 228.167969 272.167969 228.949219 271.382812 229.933594 270.386719 C 228.734375 270.066406 227.636719 269.769531 226.53125 269.472656 C 226.542969 269.328125 226.550781 269.1875 226.558594 269.042969 C 228.46875 268.753906 230.375 268.257812 232.289062 268.222656 C 235.09375 268.171875 237.109375 267.214844 238.28125 264.425781 C 238.363281 265.1875 238.441406 265.945312 238.542969 266.917969 C 240.503906 265.703125 240.089844 263.683594 241.003906 261.734375 C 239.128906 262.210938 237.640625 262.585938 236.160156 262.964844 C 236.121094 262.839844 236.085938 262.714844 236.050781 262.589844 C 238.199219 261.519531 240.328125 260.375 242.53125 259.410156 C 244.09375 258.71875 245.066406 257.789062 245.078125 255.980469 C 245.078125 255.273438 245.382812 254.574219 245.707031 253.207031 C 246.246094 254.703125 246.550781 255.566406 246.863281 256.425781 C 248.457031 255.351562 248.507812 255.007812 247.574219 252.011719 C 243.90625 253.667969 240.230469 255.339844 236.539062 256.976562 C 236.226562 257.117188 235.796875 256.996094 235.058594 256.996094 C 237.835938 255.328125 240.324219 253.867188 242.777344 252.351562 C 243.847656 251.6875 244.828125 250.890625 245.886719 250.199219 C 247.167969 249.363281 248.15625 248.382812 247.75 246.75 C 248.515625 246.808594 249.480469 247.136719 249.71875 246.851562 C 250.867188 245.472656 249.777344 244.179688 249.445312 242.640625 C 247.035156 244.460938 244.824219 246.125 242.613281 247.792969 C 242.683594 247.847656 242.757812 247.902344 242.832031 247.957031 C 245.632812 244.902344 248.4375 241.839844 251.21875 238.804688 C 250.96875 237.632812 250.78125 236.730469 250.515625 235.476562 C 251.421875 235.992188 252.019531 236.335938 252.738281 236.746094 C 253.339844 235.039062 252.183594 234.117188 251.53125 232.859375 C 247.511719 236.171875 243.667969 239.5625 238.457031 241.492188 C 242.742188 237.992188 246.722656 234.742188 250.660156 231.523438 C 250.375 230.445312 250.179688 229.722656 249.890625 228.625 C 250.78125 228.914062 251.414062 229.109375 252.265625 229.382812 C 252.265625 227.742188 251.296875 226.738281 250.355469 225.601562 C 247.292969 228.21875 244.519531 231.082031 240.363281 232.683594 C 244.339844 228.730469 248.023438 225.0625 251.847656 221.257812 C 250.816406 219.855469 249.988281 218.730469 249.09375 217.511719 C 246.460938 219.808594 244.007812 221.953125 241.554688 224.089844 C 241.445312 223.976562 241.328125 223.863281 241.214844 223.746094 C 244.136719 220.378906 247.058594 217.011719 249.984375 213.632812 C 249.597656 212.867188 249.308594 212.285156 248.902344 211.472656 C 249.925781 211.472656 250.761719 211.472656 251.714844 211.472656 C 251.839844 209.527344 250.308594 208.964844 249.25 207.695312 C 246.640625 210.871094 244.308594 214.148438 240.351562 216.648438 C 243.160156 213.058594 245.578125 209.964844 248.089844 206.75 C 247.476562 205.910156 246.992188 205.242188 246.371094 204.398438 C 245.492188 205.523438 244.753906 206.46875 243.808594 207.671875 C 244.625 203.582031 246.304688 199.203125 247.628906 197.714844 C 249.289062 199.722656 246.949219 201.265625 247.121094 203.265625 C 247.644531 203.652344 248.3125 204.136719 249.070312 204.695312 C 249.832031 203.382812 250.484375 202.253906 251.136719 201.125 C 251.351562 201.210938 251.5625 201.292969 251.777344 201.375 C 251.382812 202.859375 250.980469 204.347656 250.507812 206.117188 C 251.21875 206.878906 252.054688 207.773438 253.050781 208.839844 C 253.894531 207.636719 254.628906 206.597656 255.355469 205.558594 C 255.558594 205.648438 255.757812 205.738281 255.957031 205.828125 Z M 244.445312 260.035156 C 241.019531 260.910156 242.269531 263.632812 241.558594 265.675781 C 244.578125 264.65625 244.578125 264.65625 244.445312 260.035156 Z M 251.039062 249.101562 C 249.203125 250.429688 249.085938 251.40625 250.3125 254.285156 C 252.703125 252.796875 251.003906 250.914062 251.039062 249.101562 Z M 253.234375 219.664062 C 254.046875 217.09375 252.339844 216.296875 251.339844 214.882812 C 250.652344 215.609375 250.164062 216.125 249.566406 216.75 C 250.730469 217.671875 251.753906 218.488281 253.234375 219.664062 Z M 247.816406 258.292969 C 245.953125 259.585938 246.613281 261.410156 246.328125 263.46875 C 249.03125 262.042969 248.019531 260.042969 247.816406 258.292969 Z M 238.5625 268.890625 C 236.367188 269.519531 236.089844 271.226562 235.226562 272.785156 C 238.140625 272.328125 238.140625 272.328125 238.5625 268.890625 Z M 234.511719 270.039062 C 232.289062 269.339844 231.820312 271.308594 230.667969 272.300781 C 232.695312 273.9375 232.976562 273.765625 234.511719 270.039062 Z M 252.816406 222.683594 C 251.40625 224.757812 251.40625 224.757812 254.121094 226.910156 C 255.304688 225.050781 253.558594 224.234375 252.816406 222.683594 Z M 255.613281 224.34375 C 257.027344 222.214844 257.027344 222.214844 254.9375 220.042969 C 253.070312 221.714844 255.152344 222.652344 255.613281 224.34375 Z M 251.933594 244.90625 C 253.433594 242.707031 252.503906 241.589844 251.628906 240.339844 C 249.585938 242.003906 251.527344 243.035156 251.933594 244.90625 Z M 255.875 227.902344 C 254.960938 229.5 254.960938 229.5 256.5 231.101562 C 257.636719 229.742188 256.722656 228.902344 255.875 227.902344 Z M 254.140625 238.050781 C 253.890625 238.132812 253.636719 238.21875 253.382812 238.296875 C 253.730469 239.203125 253.75 240.25 254.601562 240.933594 C 254.804688 240.855469 255.007812 240.773438 255.210938 240.695312 C 254.855469 239.8125 254.5 238.929688 254.140625 238.050781 Z M 253.414062 212.542969 C 253.777344 214.683594 253.878906 214.804688 255.613281 215.5 C 254.753906 214.34375 254.082031 213.441406 253.414062 212.542969 Z M 256.632812 217.117188 C 256.382812 219.019531 257.195312 219.832031 257.84375 220.71875 C 258.015625 220.636719 258.191406 220.554688 258.367188 220.472656 C 257.875 219.523438 257.378906 218.566406 256.632812 217.117188 Z M 254.316406 233.523438 C 254.460938 233.453125 254.609375 233.382812 254.753906 233.316406 C 254.417969 232.585938 254.082031 231.863281 253.738281 231.136719 C 253.574219 231.214844 253.410156 231.292969 253.242188 231.371094 C 253.597656 232.085938 253.957031 232.804688 254.316406 233.523438 " fill-opacity="1" fill-rule="evenodd"/><path fill="#000000" d="M 74.972656 284.765625 C 74.59375 279.058594 74.214844 273.355469 73.832031 267.648438 C 71.886719 269.699219 70.933594 271.609375 71.808594 274.484375 C 73.257812 279.269531 72.269531 284.21875 71.242188 289.125 C 70.886719 284.300781 70.527344 279.476562 70.175781 274.652344 C 68.640625 276.371094 67.636719 277.925781 68.132812 280.378906 C 68.828125 283.8125 68.484375 287.378906 68.269531 290.875 C 68.003906 290.894531 67.738281 290.910156 67.46875 290.929688 C 67.105469 288.160156 66.734375 285.386719 66.308594 282.160156 C 64.625 284.097656 64.1875 285.796875 64.46875 287.941406 C 64.871094 290.972656 64.898438 294.050781 65.097656 297.109375 C 64.84375 297.140625 64.589844 297.171875 64.339844 297.199219 C 63.945312 294.5 63.554688 291.796875 63.113281 288.769531 C 60.644531 291.679688 62.976562 294.90625 61.703125 297.574219 C 60.957031 296.617188 60.957031 296.617188 60.628906 294.109375 C 59.367188 296.554688 57.863281 298.59375 58.476562 301.28125 C 56.21875 301.886719 56.292969 304.023438 55.496094 305.53125 C 54.644531 307.144531 53.964844 308.855469 52.914062 310.4375 C 53.140625 309.566406 53.320312 308.675781 53.605469 307.824219 C 61.464844 284.375 72.097656 262.265625 85.804688 241.667969 C 90.914062 233.992188 96.636719 226.777344 102.917969 220.019531 C 103.769531 219.097656 104.742188 218.289062 105.691406 217.464844 C 105.867188 217.3125 106.179688 217.320312 106.433594 217.253906 C 106.492188 217.511719 106.625 217.777344 106.554688 217.847656 C 104.679688 219.789062 103.960938 221.792969 104.339844 224.738281 C 104.789062 228.328125 104.054688 232.0625 103.769531 235.730469 C 103.71875 236.363281 103.371094 236.96875 102.613281 237.554688 C 102.457031 233.152344 102.296875 228.75 102.136719 224.035156 C 100.292969 225.363281 99.164062 226.625 99.175781 228.96875 C 99.1875 233.316406 98.867188 237.667969 98.65625 242.019531 C 98.625 242.566406 98.421875 243.105469 98.015625 243.652344 C 97.203125 239.308594 97.453125 234.902344 97.320312 229.949219 C 95.03125 232.15625 93.917969 233.792969 94.292969 236.777344 C 95.0625 242.820312 94.695312 248.941406 93.445312 255.023438 C 93.074219 249.046875 92.703125 243.070312 92.324219 236.949219 C 90.503906 237.847656 90.492188 239.246094 90.503906 240.746094 C 90.542969 245.6875 90.554688 250.625 90.464844 255.566406 C 90.429688 257.484375 90.101562 259.394531 89.359375 261.3125 C 89.066406 255.078125 88.773438 248.84375 88.453125 242 C 86.496094 244.660156 84.796875 246.476562 85.066406 249.753906 C 85.570312 255.820312 84.75 261.894531 84.128906 267.9375 C 83.910156 267.9375 83.691406 267.9375 83.472656 267.9375 C 83.273438 262.421875 83.074219 256.898438 82.855469 250.949219 C 81.003906 253.332031 79.542969 255.25 80.179688 258.332031 C 80.722656 260.949219 80.6875 263.734375 80.558594 266.429688 C 80.332031 271.128906 79.828125 275.824219 79.441406 280.519531 C 79.230469 280.515625 79.03125 280.507812 78.820312 280.5 C 78.726562 273.445312 78.636719 266.390625 78.539062 259.339844 C 78.324219 259.308594 78.113281 259.285156 77.902344 259.261719 C 76.578125 261.339844 75.132812 263.136719 75.832031 266.175781 C 77.128906 271.808594 76.242188 277.5625 75.796875 283.257812 C 75.757812 283.789062 75.503906 284.300781 75.347656 284.820312 C 75.226562 284.804688 75.097656 284.785156 74.972656 284.765625 " fill-opacity="1" fill-rule="evenodd"/><path fill="#000000" d="M 316.238281 226.875 C 314.257812 224.777344 312.277344 222.675781 310.296875 220.574219 C 310.183594 220.636719 310.078125 220.703125 309.964844 220.769531 C 310.792969 222.984375 311.617188 225.199219 312.441406 227.410156 C 312.265625 227.503906 312.085938 227.59375 311.90625 227.683594 C 311.445312 226.855469 310.925781 226.058594 310.546875 225.199219 C 309.652344 223.167969 308.75 221.128906 307.988281 219.039062 C 306.824219 215.863281 306.53125 215.320312 303.320312 212.136719 C 304.542969 216.429688 305.601562 220.144531 306.65625 223.863281 C 306.484375 223.929688 306.3125 223.996094 306.140625 224.066406 C 305.8125 223.460938 305.386719 222.886719 305.164062 222.25 C 303.976562 218.875 302.316406 215.558594 301.847656 212.078125 C 301.453125 209.164062 300.015625 207.140625 298.535156 204.953125 C 296.707031 202.261719 294.859375 199.585938 292.492188 197.074219 C 292.925781 202.484375 293.359375 207.898438 293.796875 213.308594 C 293.617188 213.351562 293.433594 213.390625 293.253906 213.433594 C 293.019531 212.867188 292.667969 212.324219 292.566406 211.738281 C 291.761719 207.164062 290.945312 202.589844 290.292969 197.996094 C 290.089844 196.628906 290.402344 195.183594 290.507812 193.289062 C 289.917969 192.488281 289.019531 191.25 287.761719 189.53125 C 287.761719 196.808594 287.761719 203.472656 287.761719 210.128906 C 287.691406 210.144531 287.617188 210.164062 287.539062 210.183594 C 287.429688 209.558594 287.296875 208.9375 287.21875 208.308594 C 286.457031 201.960938 285.671875 195.617188 286.101562 189.195312 C 286.152344 188.480469 286.039062 187.558594 285.617188 187.042969 C 284.050781 185.105469 282.324219 183.292969 280.144531 180.859375 C 279.621094 186.1875 279.164062 190.789062 278.710938 195.394531 C 278.5625 195.375 278.410156 195.355469 278.257812 195.339844 C 278.257812 190.550781 278.195312 185.761719 278.300781 180.972656 C 278.328125 179.699219 278.339844 178.699219 276.6875 178.144531 C 275.902344 182.121094 275.121094 186.046875 274.347656 189.972656 C 273.40625 185.234375 275.492188 180.636719 274.992188 175.953125 C 274.738281 175.90625 274.480469 175.859375 274.226562 175.8125 C 273.179688 179.683594 272.136719 183.546875 271.089844 187.414062 C 270.878906 187.363281 270.664062 187.316406 270.453125 187.261719 C 270.902344 183.933594 271.269531 180.582031 271.839844 177.269531 C 272.199219 175.214844 272.566406 173.289062 270.640625 171.773438 C 270.464844 171.636719 270.492188 171.246094 270.433594 170.996094 C 271.289062 169.867188 272.039062 170.605469 272.65625 171.125 C 275.699219 173.679688 278.78125 176.191406 281.679688 178.894531 C 286.664062 183.542969 290.757812 188.945312 294.554688 194.589844 C 300.613281 203.589844 306.726562 212.546875 312.84375 221.503906 C 314.019531 223.234375 315.332031 224.871094 316.582031 226.554688 C 316.464844 226.660156 316.351562 226.769531 316.238281 226.875 " fill-opacity="1" fill-rule="evenodd"/><path fill="#000000" d="M 330.1875 147.179688 C 326.480469 148.265625 323.464844 149.273438 320.382812 150.023438 C 311.773438 152.117188 303.03125 153.105469 294.171875 153.238281 C 283.703125 153.398438 273.234375 153.714844 262.765625 153.875 C 260.925781 153.902344 258.96875 153.953125 257.277344 152.480469 C 257.964844 152.386719 258.652344 152.21875 259.339844 152.195312 C 271.648438 151.816406 283.964844 151.566406 296.269531 151.050781 C 306.761719 150.617188 317.125 149.269531 327.074219 145.640625 C 327.617188 145.441406 328.1875 145.296875 328.757812 145.191406 C 331.054688 144.777344 332.777344 146.203125 332.8125 148.523438 C 332.839844 150.238281 331.964844 151.617188 329.859375 152.980469 C 329.964844 151.125 330.0625 149.386719 330.1875 147.179688 " fill-opacity="1" fill-rule="evenodd"/><path fill="#000000" d="M 282.433594 184.921875 C 282.648438 185.515625 282.984375 186.09375 283.050781 186.703125 C 283.378906 189.542969 282.542969 201.558594 281.792969 203.226562 C 281.394531 197.167969 280.921875 191.105469 281.484375 185.046875 C 281.804688 185.007812 282.117188 184.964844 282.433594 184.921875 " fill-opacity="1" fill-rule="evenodd"/><path fill="#000000" d="M 299.328125 218.167969 C 297.25 213.394531 295.511719 208.542969 295.878906 203.207031 C 298.410156 207.875 298.816406 213.03125 299.328125 218.167969 " fill-opacity="1" fill-rule="evenodd"/><path fill="#000000" d="M 202.789062 253.230469 C 202.476562 248.808594 202.964844 245.015625 204.613281 240.988281 C 205.511719 243.421875 204.511719 249.890625 202.789062 253.230469 " fill-opacity="1" fill-rule="evenodd"/><path fill="#000000" d="M 199.253906 241.308594 C 199.265625 237.382812 200.113281 233.699219 203.117188 230.636719 C 202.042969 234.257812 200.972656 237.875 199.902344 241.492188 C 199.6875 241.429688 199.46875 241.367188 199.253906 241.308594 " fill-opacity="1" fill-rule="evenodd"/><path fill="#000000" d="M 206.703125 248.117188 C 207.105469 251.34375 206.578125 254.4375 205.546875 257.457031 C 204.558594 254.148438 204.730469 251.003906 206.703125 248.117188 " fill-opacity="1" fill-rule="evenodd"/><path fill="#000000" d="M 73.785156 163.867188 C 70.527344 162.914062 69.503906 160.117188 70.945312 156.574219 C 71.910156 159.050781 72.800781 161.339844 73.785156 163.867188 " fill-opacity="1" fill-rule="evenodd"/><path fill="#000000" d="M 80.304688 145.496094 C 79.796875 147.292969 79.339844 149.113281 78.730469 150.875 C 78.605469 151.242188 77.90625 151.417969 77.472656 151.679688 C 77.257812 151.207031 76.78125 150.675781 76.878906 150.277344 C 77.347656 148.351562 78.128906 146.550781 79.609375 145.195312 C 79.84375 145.292969 80.074219 145.398438 80.304688 145.496094 " fill-opacity="1" fill-rule="evenodd"/><path fill="#000000" d="M 109.933594 273.605469 C 106.863281 272.644531 106.429688 269.652344 104.945312 267 C 106.945312 268.289062 108.570312 270.328125 109.933594 273.605469 " fill-opacity="1" fill-rule="evenodd"/><path fill="#000000" d="M 198.148438 226.386719 C 198.78125 223.21875 200.355469 220.566406 202.753906 218.367188 C 202.929688 218.46875 203.109375 218.566406 203.285156 218.664062 C 201.75 221.335938 200.21875 224.011719 198.6875 226.683594 C 198.503906 226.582031 198.328125 226.484375 198.148438 226.386719 " fill-opacity="1" fill-rule="evenodd"/><path fill="#000000" d="M 114.5625 283.132812 C 113.550781 283.113281 112.375 283.421875 111.558594 283.019531 C 109.800781 282.140625 108.230469 280.898438 106.769531 279.492188 C 109.496094 280.460938 112.339844 281.117188 114.492188 283.214844 C 114.496094 283.207031 114.5625 283.132812 114.5625 283.132812 " fill-opacity="1" fill-rule="evenodd"/><path fill="#000000" d="M 203.007812 224.28125 C 201.550781 227.351562 200.09375 230.429688 198.640625 233.5 C 198.78125 229.824219 200.070312 226.671875 202.4375 224.019531 C 202.625 224.105469 202.8125 224.191406 203.007812 224.28125 " fill-opacity="1" fill-rule="evenodd"/><path fill="#000000" d="M 111.183594 278.449219 C 108.160156 278.390625 107.234375 275.847656 105.878906 273.78125 C 108.121094 274.742188 109.863281 276.308594 111.183594 278.449219 " fill-opacity="1" fill-rule="evenodd"/><path fill="#000000" d="M 74.625 151.433594 C 75.546875 153.679688 75.339844 155.894531 74.40625 158.078125 C 73.050781 155.84375 73.882812 153.648438 74.625 151.433594 " fill-opacity="1" fill-rule="evenodd"/><path fill="#000000" d="M 108.34375 257.519531 C 106.328125 255.894531 106.15625 254.351562 107.378906 250.5625 C 108.277344 252.957031 108.683594 254.917969 108.34375 257.519531 " fill-opacity="1" fill-rule="evenodd"/><path fill="#000000" d="M 203.550781 237.28125 C 202.710938 240.363281 201.875 243.441406 201.035156 246.523438 C 200.703125 243.128906 201.664062 240.082031 203 237.132812 C 203.179688 237.183594 203.371094 237.230469 203.550781 237.28125 " fill-opacity="1" fill-rule="evenodd"/><path fill="#000000" d="M 105.9375 258.671875 C 106.902344 261.117188 107.710938 263.171875 108.613281 265.453125 C 106.082031 264.304688 105.160156 262.027344 105.9375 258.671875 " fill-opacity="1" fill-rule="evenodd"/><path fill="#000000" d="M 213.824219 261.390625 C 214.167969 263.90625 214.476562 266.164062 214.832031 268.765625 C 212.621094 266.550781 212.308594 264.105469 213.824219 261.390625 " fill-opacity="1" fill-rule="evenodd"/><path fill="#000000" d="M 216.550781 264.40625 C 217.484375 267.050781 218.230469 269.15625 219.058594 271.503906 C 216.683594 269.875 216.082031 268.253906 216.550781 264.40625 " fill-opacity="1" fill-rule="evenodd"/><path fill="#000000" d="M 82.914062 143.097656 C 83.554688 143.128906 84.199219 143.164062 85.101562 143.210938 C 84.640625 144.148438 84.386719 144.984375 83.878906 145.597656 C 83.539062 146.011719 82.675781 146.453125 82.316406 146.292969 C 81.433594 145.882812 81.703125 145.078125 82.160156 144.382812 C 82.457031 143.929688 82.734375 143.464844 83.019531 143.003906 C 83.019531 143.003906 82.914062 143.097656 82.914062 143.097656 " fill-opacity="1" fill-rule="evenodd"/><path fill="#000000" d="M 202.980469 214.65625 C 201.566406 216.734375 200.160156 218.808594 198.746094 220.890625 C 199.242188 218.171875 200.390625 215.890625 202.484375 214.210938 C 202.648438 214.359375 202.8125 214.503906 202.980469 214.65625 " fill-opacity="1" fill-rule="evenodd"/><path fill="#000000" d="M 208.742188 253.847656 C 208.742188 256.269531 208.742188 258.695312 208.742188 261.125 C 207.054688 258.75 207.96875 256.308594 208.742188 253.847656 " fill-opacity="1" fill-rule="evenodd"/><path fill="#000000" d="M 223.078125 273.332031 C 220.863281 272.425781 220.03125 270.683594 220.203125 268.328125 C 221.164062 269.996094 222.117188 271.664062 223.078125 273.332031 " fill-opacity="1" fill-rule="evenodd"/><path fill="#000000" d="M 109.007812 246.433594 C 109.007812 244.910156 109.007812 244.910156 110.027344 243.46875 C 110.53125 245.328125 110.507812 245.324219 109.007812 246.433594 " fill-opacity="1" fill-rule="evenodd"/><path fill="#000000" d="M 210.558594 263.394531 C 210.558594 261.554688 210.558594 259.71875 210.558594 257.882812 C 210.722656 257.882812 210.875 257.878906 211.03125 257.878906 C 211.03125 259.71875 211.03125 261.554688 211.03125 263.394531 C 210.875 263.394531 210.722656 263.394531 210.558594 263.394531 " fill-opacity="1" fill-rule="evenodd"/><path fill="#000000" d="M 89.34375 144.464844 C 88.71875 145.023438 88.214844 145.484375 87.65625 145.980469 C 87.507812 145.644531 87.34375 145.460938 87.382812 145.34375 C 87.660156 144.539062 88.113281 143.988281 89.34375 144.464844 " fill-opacity="1" fill-rule="evenodd"/><path fill="#000000" d="M 23.59375 237.378906 C 26.402344 234.972656 29.214844 232.566406 32.121094 230.074219 C 30.578125 229.5625 29.722656 230.402344 28.777344 231.082031 C 25.871094 233.171875 22.945312 235.230469 19.8125 237.050781 C 21.773438 234.496094 24.660156 232.96875 26.820312 230.589844 C 22.933594 231.214844 20.71875 235.027344 16.683594 235.464844 C 18.578125 234.101562 20.476562 232.738281 22.539062 231.253906 C 19.789062 230.046875 18.476562 232.925781 16.386719 233.183594 C 16.226562 233.015625 16.070312 232.84375 15.914062 232.675781 C 16.703125 232.363281 17.496094 232.054688 18.285156 231.742188 C 15.296875 230.671875 14.1875 233.191406 11.726562 233.78125 C 12.488281 232.859375 13.023438 232.203125 13.71875 231.363281 C 11.902344 231.589844 10.808594 233.539062 8.332031 232.800781 C 9.261719 232.34375 9.710938 232.152344 10.125 231.90625 C 10.617188 231.621094 11.484375 231.289062 11.484375 230.980469 C 11.484375 228.988281 12.929688 229.328125 14.101562 229.191406 C 19.875 228.515625 25.664062 227.925781 31.425781 227.164062 C 42.046875 225.761719 52.246094 222.675781 62.230469 218.902344 C 72.613281 214.980469 83.257812 212.191406 94.261719 210.773438 C 94.742188 210.710938 95.222656 210.648438 95.707031 210.617188 C 96.085938 210.589844 96.46875 210.609375 97.25 210.609375 C 96.804688 211.695312 96.601562 212.726562 96.039062 213.480469 C 91.496094 219.535156 86.429688 225.121094 80.8125 230.203125 C 80.769531 230.238281 80.640625 230.175781 80.515625 230.152344 C 85.09375 224.210938 89.667969 218.28125 94.238281 212.351562 C 94.136719 212.195312 94.03125 212.042969 93.925781 211.890625 C 93.144531 212.03125 92.363281 212.167969 91.652344 212.292969 C 90.40625 215.625 84.921875 222.113281 79.929688 225.910156 C 80.480469 224.390625 81.578125 223.175781 82.507812 221.878906 C 83.519531 220.460938 84.578125 219.070312 85.628906 217.679688 C 86.667969 216.304688 87.71875 214.941406 88.464844 213.09375 C 87.03125 213.457031 85.589844 213.828125 84.855469 214.015625 C 83.152344 216.734375 81.992188 219.101562 80.359375 221.074219 C 77.203125 224.867188 73.785156 228.445312 70.460938 232.097656 C 70.042969 232.554688 69.527344 232.917969 68.71875 233.003906 C 73.316406 227.089844 77.914062 221.171875 82.734375 214.972656 C 80.628906 214.90625 79.621094 215.535156 78.59375 216.972656 C 76.234375 220.273438 73.628906 223.421875 70.890625 226.421875 C 67.660156 229.957031 64.1875 233.277344 60.820312 236.6875 C 60.652344 236.535156 60.488281 236.382812 60.324219 236.230469 C 65.890625 229.765625 71.457031 223.300781 77.421875 216.371094 C 74.808594 216.949219 73.242188 217.683594 71.8125 219.4375 C 69.003906 222.878906 65.824219 226.039062 62.625 229.136719 C 58.597656 233.042969 54.398438 236.773438 50.273438 240.578125 C 50.132812 240.433594 49.984375 240.289062 49.839844 240.148438 C 56.292969 233.339844 62.746094 226.527344 69.199219 219.71875 C 66.753906 219.992188 64.894531 220.8125 63.15625 222.628906 C 57.738281 228.292969 51.988281 233.644531 46.355469 239.105469 C 46.113281 239.335938 45.769531 239.460938 45.472656 239.640625 C 45.347656 239.5 45.222656 239.355469 45.09375 239.214844 C 50.148438 233.851562 55.207031 228.488281 60.324219 223.066406 C 59.105469 222.460938 58.507812 223.132812 57.867188 223.730469 C 52.695312 228.535156 43.820312 234.679688 37.394531 237.433594 C 40.003906 235.507812 42.625 233.59375 45.222656 231.648438 C 47.902344 229.640625 50.566406 227.601562 53.09375 225.382812 C 50.566406 225.714844 48.050781 225.960938 46.734375 228.601562 C 46.492188 229.085938 45.941406 229.457031 45.457031 229.769531 C 41.15625 232.5625 36.832031 235.332031 32.507812 238.09375 C 32.210938 238.28125 31.84375 238.351562 31.203125 238 C 36 234.613281 40.800781 231.226562 46.160156 227.445312 C 43.59375 227.507812 42.042969 227.898438 40.488281 229.152344 C 36.285156 232.554688 31.878906 235.707031 27.332031 238.6875 C 30.167969 235.078125 34.082031 232.667969 37.5625 229.585938 C 34.839844 229.042969 34.78125 229.109375 33.199219 230.660156 C 30.398438 233.410156 27.28125 235.753906 24.046875 237.929688 C 23.890625 237.746094 23.746094 237.5625 23.59375 237.378906 " fill-opacity="1" fill-rule="evenodd"/><path fill="#000000" d="M 106.3125 213.148438 C 106.0625 212.265625 105.652344 211.390625 105.621094 210.503906 C 105.609375 210.074219 106.28125 209.277344 106.695312 209.246094 C 107.59375 209.167969 108.035156 209.855469 107.796875 210.765625 C 107.585938 211.546875 107.269531 212.304688 107 213.074219 C 106.769531 213.097656 106.542969 213.125 106.3125 213.148438 " fill-opacity="1" fill-rule="evenodd"/><path fill="#000000" d="M 229.0625 58.042969 C 230.054688 59.441406 231.125 60.796875 232.039062 62.25 C 236.644531 69.582031 240.050781 77.5 243.195312 85.535156 C 247.46875 96.453125 251.871094 107.34375 254.238281 118.859375 C 255.347656 124.238281 255.632812 129.789062 256.164062 135.277344 C 256.308594 136.789062 256 138.34375 255.40625 139.917969 C 255.011719 137.175781 254.527344 134.445312 254.25 131.691406 C 253.078125 120.125 249.679688 109.136719 245.75 98.277344 C 241.03125 85.246094 236.019531 72.34375 229.175781 60.234375 C 228.859375 59.679688 228.667969 59.054688 228.417969 58.464844 C 228.632812 58.324219 228.847656 58.179688 229.0625 58.042969 " fill-opacity="1" fill-rule="evenodd"/></svg>