<svg xmlns="http://www.w3.org/2000/svg" xmlns:xlink="http://www.w3.org/1999/xlink" width="500" zoomAndPan="magnify" viewBox="0 0 375 374.999991" height="500" preserveAspectRatio="xMidYMid meet" version="1.0"><path fill="#a60000" d="M 113.65625 299.707031 C 113.78125 299.417969 113.980469 298.878906 114.015625 298.886719 C 115.066406 299.210938 116.105469 299.582031 117.386719 300.039062 C 118.304688 298.460938 119.191406 296.9375 120 295.550781 C 121.3125 296.347656 122.390625 297.003906 123.847656 297.886719 C 124.660156 294.464844 128.222656 293.050781 128.113281 289.375 C 128.347656 290.214844 128.488281 291.101562 128.851562 291.898438 C 129.03125 292.289062 129.625 292.761719 129.984375 292.726562 C 130.320312 292.691406 130.886719 291.976562 130.832031 291.65625 C 130.695312 290.910156 130.246094 290.222656 129.882812 289.417969 C 130.007812 288.167969 130.160156 286.632812 130.363281 284.542969 C 131.382812 283.492188 132.816406 282.007812 134.398438 280.367188 C 135.015625 283.242188 131.488281 284.207031 132.042969 286.789062 C 135.175781 286.199219 135.492188 285.851562 135.523438 283.140625 C 135.53125 282.476562 135.433594 281.769531 135.621094 281.15625 C 136.628906 277.855469 135.128906 275.429688 132.691406 273.652344 C 130.761719 272.246094 128.550781 271.003906 126.277344 270.3125 C 120.445312 268.546875 114.363281 267.523438 108.628906 265.492188 C 95.574219 260.875 82.3125 256.589844 70.65625 248.820312 C 65.777344 245.570312 60.945312 242.140625 56.582031 238.246094 C 51.464844 233.691406 45.957031 232.175781 39.171875 232.808594 C 33.1875 233.367188 28.554688 235.488281 25.003906 240.230469 C 22.773438 243.210938 21.171875 246.46875 20.53125 250.144531 C 18.796875 260.121094 20.882812 269.097656 27.628906 276.824219 C 28.207031 277.488281 28.851562 278.105469 29.5 278.714844 C 29.726562 278.929688 30.058594 279.035156 30.621094 279.347656 C 30.636719 278.578125 30.675781 278 30.660156 277.425781 C 30.589844 275.101562 30.285156 272.757812 30.484375 270.460938 C 30.636719 268.707031 30.117188 267.5 28.644531 266.1875 C 27.671875 268.335938 27.765625 270.484375 27.757812 273.296875 C 26.015625 270.214844 26.613281 267.664062 27.019531 265.160156 C 27.480469 262.34375 27.515625 262.347656 25.894531 259.59375 C 25.304688 261.519531 24.808594 263.160156 24.199219 265.167969 C 23.148438 262.601562 24.125 260.578125 24.851562 258.609375 C 25.601562 256.585938 26.144531 254.597656 25.304688 251.839844 C 24.101562 254.140625 23.09375 256.046875 21.800781 258.515625 C 21.328125 255.894531 22.46875 254.179688 23.148438 252.46875 C 23.871094 250.652344 25.003906 249 25.558594 246.90625 C 24.515625 248 23.46875 249.085938 22.355469 250.253906 C 22.652344 248.007812 23.109375 247.226562 26.613281 242.820312 C 30.015625 238.554688 30.992188 237.847656 33.917969 237.9375 C 32.417969 239.5 31.136719 240.777344 29.921875 242.125 C 29.265625 242.855469 29.171875 243.511719 30.644531 243.535156 C 29.988281 244.730469 29.15625 245.792969 28.804688 246.996094 C 28.472656 248.125 28.648438 249.40625 29.136719 251.203125 C 29.628906 250.554688 30.125 249.902344 30.617188 249.257812 C 30.738281 249.375 30.855469 249.496094 30.980469 249.617188 C 30.90625 249.871094 30.886719 250.148438 30.753906 250.367188 C 28.570312 253.929688 28.566406 253.929688 29.59375 257.3125 C 30.285156 256.574219 30.886719 255.9375 31.488281 255.300781 C 30.710938 258.335938 29.105469 261.238281 31.953125 264 C 32.988281 262.53125 34.039062 261.050781 35.085938 259.5625 C 35.234375 259.65625 35.382812 259.75 35.527344 259.839844 C 35.023438 261.289062 34.644531 262.800781 33.980469 264.164062 C 32.996094 266.210938 33.4375 267.757812 35.324219 269.226562 C 36.015625 268.105469 36.675781 267.035156 37.328125 265.964844 C 37.492188 265.988281 37.648438 266.015625 37.8125 266.042969 C 37.792969 266.589844 37.929688 267.191406 37.742188 267.667969 C 36.425781 270.957031 37.78125 273.136719 40.8125 275.003906 C 41.328125 273.222656 41.816406 271.558594 42.300781 269.886719 C 42.511719 269.941406 42.722656 269.992188 42.929688 270.046875 C 42.902344 271.640625 42.953125 273.238281 42.816406 274.824219 C 42.644531 276.910156 43.464844 278.207031 45.683594 278.847656 C 45.980469 277.289062 46.265625 275.789062 46.550781 274.289062 C 46.761719 274.273438 46.96875 274.265625 47.179688 274.257812 C 47.300781 275.4375 47.542969 276.625 47.523438 277.804688 C 47.480469 280.429688 48.757812 281.851562 51.457031 282.460938 C 51.375 280.636719 51.304688 278.960938 51.203125 276.75 C 53.589844 282.566406 55.75 287.820312 58.011719 293.347656 C 54.550781 290.757812 53.144531 287.003906 51.828125 283.261719 C 50.660156 283.042969 49.632812 282.84375 48.242188 282.578125 C 49.015625 285.042969 49.695312 287.199219 50.371094 289.359375 C 48.191406 287.65625 47.21875 285.304688 46.40625 282.847656 C 45.824219 281.082031 45.804688 281.085938 43.214844 280.226562 C 43.40625 281.847656 43.578125 283.332031 43.753906 284.847656 C 42.332031 283.347656 42.082031 283.378906 41.835938 281.160156 C 41.496094 278.148438 39.4375 276.933594 36.847656 275.40625 C 36.867188 277.582031 36.882812 279.402344 36.894531 281.714844 C 35.273438 279.628906 35.207031 277.535156 35.105469 275.558594 C 35.011719 273.695312 34.367188 272.410156 32.441406 271.484375 C 31.609375 274.488281 31.726562 277.394531 32.289062 280.273438 C 32.433594 281.027344 33.203125 281.785156 33.878906 282.285156 C 45.546875 290.925781 57.855469 298.265625 72.265625 301.503906 C 77.671875 302.71875 82.988281 304.363281 88.296875 305.96875 C 96.84375 308.550781 105.585938 309.992188 114.445312 310.820312 C 120.804688 311.414062 126.308594 309.796875 130.476562 304.644531 C 132.882812 301.671875 135.390625 298.777344 137.890625 295.796875 C 137.472656 307.953125 127.835938 317.117188 116.058594 316.511719 C 106.820312 316.035156 97.769531 314.265625 88.867188 311.851562 C 80.621094 309.613281 72.414062 307.207031 64.269531 304.640625 C 59.945312 303.277344 55.621094 301.742188 51.582031 299.710938 C 42.824219 295.324219 34.6875 289.851562 27.410156 283.320312 C 16.519531 273.546875 13.109375 261.191406 16.546875 247.054688 C 18.027344 240.957031 21.476562 235.933594 26.589844 232.183594 C 29.589844 229.984375 32.84375 228.441406 36.699219 228.4375 C 39.023438 228.4375 41.34375 228.210938 43.660156 228.046875 C 48.339844 227.710938 52.363281 229.386719 56.042969 232.082031 C 57.023438 232.804688 57.957031 233.597656 58.867188 234.414062 C 68.742188 243.230469 79.878906 249.960938 92.25 254.652344 C 102.925781 258.703125 113.457031 263.1875 124.753906 265.402344 C 127.105469 265.863281 129.363281 266.96875 131.566406 267.996094 C 132.847656 268.59375 134.03125 269.511719 135.066406 270.488281 C 138.089844 273.332031 139.714844 276.664062 138.398438 280.945312 C 137.914062 282.527344 137.542969 284.183594 139.667969 285.550781 C 139.863281 284.902344 140.058594 284.457031 140.132812 283.992188 C 140.84375 279.621094 143.320312 276.535156 147.003906 274.269531 C 150.941406 271.84375 155.183594 270.167969 159.777344 269.789062 C 169.828125 268.964844 179.886719 268.195312 189.957031 267.695312 C 200.925781 267.144531 211.917969 266.914062 222.863281 268.007812 C 229.152344 268.636719 235.46875 269.078125 241.570312 270.980469 C 248.324219 273.089844 254.054688 276.652344 258.703125 281.96875 C 260.292969 283.789062 261.949219 285.539062 263.917969 287.699219 C 264.765625 285.632812 265.355469 284.019531 266.074219 282.472656 C 267 280.464844 267.894531 278.421875 269.03125 276.53125 C 271.171875 272.964844 274.261719 270.535156 278.332031 269.464844 C 279.832031 269.066406 281.339844 268.683594 282.851562 268.332031 C 291.753906 266.246094 298.792969 261.226562 304.519531 254.300781 C 309.226562 248.605469 310.328125 241.800781 310.273438 234.605469 C 310.238281 229.851562 310.445312 225.058594 310.988281 220.339844 C 311.714844 213.980469 313.933594 208.070312 317.472656 202.695312 C 317.839844 202.136719 318.242188 201.609375 318.65625 201.082031 C 321.1875 197.851562 324.289062 195.886719 328.632812 196.171875 C 331.523438 196.363281 332.164062 195.550781 332.5625 192.246094 C 329.832031 193.128906 327.15625 194.238281 324.371094 194.820312 C 321.800781 195.363281 319.097656 195.632812 316.480469 195.511719 C 310.414062 195.21875 305.601562 192.539062 302.617188 187.109375 C 300.800781 183.808594 298.960938 180.488281 297.511719 177.011719 C 292.550781 165.109375 284.800781 155.515625 274.335938 148.011719 C 267.753906 143.296875 261.238281 138.476562 254.859375 133.492188 C 252 131.253906 249.410156 128.617188 246.945312 125.933594 C 244.269531 123.027344 242.707031 119.433594 241.777344 115.605469 C 240.113281 108.765625 242.824219 103.25 247.171875 98.261719 C 247.3125 98.105469 247.535156 97.988281 247.742188 97.933594 C 247.933594 97.882812 248.15625 97.933594 248.835938 97.960938 C 248.625 99.238281 248.488281 100.5 248.171875 101.710938 C 247.917969 102.667969 247.496094 103.59375 247.046875 104.480469 C 244.417969 109.65625 245.410156 114.625 247.976562 119.445312 C 250.15625 123.542969 253.386719 126.75 257.054688 129.503906 C 262.992188 133.976562 269.011719 138.335938 274.949219 142.804688 C 281.523438 147.746094 288.136719 152.734375 292.667969 159.742188 C 295.726562 164.476562 298.269531 169.550781 300.933594 174.535156 C 302.503906 177.464844 303.890625 180.5 305.308594 183.511719 C 308.136719 189.53125 313.160156 191.65625 319.441406 191.398438 C 323.316406 191.234375 327.183594 190.863281 331.046875 190.550781 C 334.011719 190.316406 335.394531 191.847656 334.738281 194.695312 C 334.054688 197.65625 332.601562 199.285156 329.515625 199.40625 C 325.53125 199.574219 323.285156 201.738281 321.476562 204.917969 C 317.492188 211.9375 315.628906 219.492188 315.503906 227.519531 C 315.449219 231.179688 315.355469 234.835938 315.339844 238.5 C 315.285156 248.460938 310.957031 256.25 303.058594 262.050781 C 296.761719 266.671875 290.050781 270.597656 282.230469 272.101562 C 277.125 273.089844 273.621094 275.949219 271.664062 280.761719 C 271.039062 282.300781 270.351562 283.816406 269.699219 285.347656 C 267.902344 289.5625 268.082031 293.730469 269.761719 297.960938 C 270.578125 300.007812 271.089844 302.1875 271.632812 304.328125 C 271.738281 304.742188 271.480469 305.488281 271.148438 305.714844 C 270.792969 305.949219 269.914062 305.957031 269.660156 305.695312 C 268.402344 304.332031 266.832031 303.023438 266.1875 301.382812 C 264.910156 298.109375 264.167969 294.628906 263.128906 291.011719 C 261.132812 289.15625 258.753906 287.148438 256.605469 284.921875 C 250.6875 278.773438 243.546875 275.261719 235.117188 273.894531 C 221.566406 271.691406 207.957031 271.460938 194.300781 272.023438 C 185.441406 272.394531 176.582031 272.910156 167.734375 273.472656 C 164.867188 273.65625 161.945312 273.929688 159.183594 274.660156 C 156.101562 275.472656 153.085938 276.675781 150.203125 278.042969 C 147.015625 279.558594 145.167969 282.214844 144.640625 285.824219 C 144.273438 288.3125 143.566406 290.746094 142.898438 293.695312 C 141.351562 292.054688 141.542969 290.09375 140.558594 289 C 139.511719 287.84375 137.789062 287.304688 136.171875 286.382812 C 135.136719 288.289062 131.582031 288.4375 132.621094 292.058594 C 133.691406 291.804688 134.609375 291.582031 135.730469 291.3125 C 135.605469 291.691406 135.59375 292.027344 135.417969 292.1875 C 134.15625 293.332031 132.863281 294.4375 131.515625 295.609375 C 131.1875 295.464844 130.109375 294.753906 129.910156 294.949219 C 129.242188 295.605469 128.886719 296.578125 128.289062 297.644531 C 129.511719 297.953125 130.230469 298.140625 131.632812 298.492188 C 130.113281 298.96875 129.214844 299.25 128.21875 299.566406 C 127.570312 300.996094 126.898438 302.496094 126.109375 304.25 C 123.800781 303.378906 122.164062 304.078125 121.007812 306.261719 C 120.519531 307.183594 119.460938 307.8125 118.265625 308.957031 C 118.476562 307.84375 118.597656 307.214844 118.707031 306.632812 C 117.128906 305.484375 115.867188 305.695312 114.496094 306.933594 C 113.304688 308.011719 111.851562 308.804688 110.152344 309.328125 C 110.421875 308.816406 110.6875 308.304688 110.960938 307.785156 C 106.46875 305.828125 106.46875 305.828125 102.109375 306.199219 C 102.769531 305.714844 103.3125 305.3125 103.699219 305.027344 C 101.28125 302.597656 98.9375 300.289062 96.652344 297.921875 C 96.335938 297.589844 96.308594 296.96875 96.015625 296.082031 C 98.789062 296.585938 99.695312 298.878906 101.421875 300.023438 C 103.167969 301.179688 104.785156 302.53125 106.523438 303.84375 C 107.382812 303.394531 108.148438 302.996094 109.101562 302.496094 C 107.488281 300.730469 105.988281 299.089844 104.492188 297.449219 C 104.675781 297.230469 104.863281 297.023438 105.050781 296.800781 C 107.058594 298.085938 109.0625 299.371094 111.21875 300.753906 C 112.035156 300.386719 112.914062 300.003906 113.78125 299.621094 C 113.472656 300.210938 113.171875 300.796875 112.867188 301.382812 C 114.988281 303.085938 114.988281 303.085938 116.429688 301.359375 C 115.476562 300.796875 114.570312 300.25 113.65625 299.707031 Z M 108.371094 304.914062 C 109.582031 305.59375 110.742188 306.242188 112.042969 306.96875 C 112.722656 306.183594 113.257812 305.566406 113.804688 304.9375 C 112.003906 303.660156 110.367188 302.488281 108.371094 304.914062 Z M 120.636719 298.347656 C 120.1875 299.296875 119.871094 299.953125 119.484375 300.761719 C 120.324219 301.160156 120.964844 301.46875 121.773438 301.851562 C 122.257812 301.015625 122.667969 300.308594 123.183594 299.425781 C 122.292969 299.046875 121.632812 298.765625 120.636719 298.347656 Z M 126.339844 299.414062 C 124.371094 299.753906 124.082031 301.015625 124.101562 302.316406 C 124.105469 302.597656 124.976562 302.863281 125.609375 303.234375 C 125.882812 301.816406 126.089844 300.734375 126.339844 299.414062 Z M 120.882812 303.367188 C 119.578125 302.796875 118.347656 301.976562 117.632812 304.074219 C 119.664062 305.355469 119.664062 305.355469 120.882812 303.367188 Z M 127.113281 295.046875 C 126.78125 295.023438 126.453125 294.988281 126.121094 294.960938 C 126.078125 295.777344 126.027344 296.597656 125.980469 297.414062 C 126.265625 297.429688 126.550781 297.449219 126.832031 297.46875 C 126.925781 296.660156 127.019531 295.855469 127.113281 295.046875 Z M 127.113281 295.046875 " fill-opacity="1" fill-rule="evenodd"/><path fill="#a60000" d="M 125.429688 158.976562 C 125.183594 158.410156 125.023438 157.78125 124.6875 157.265625 C 122.496094 153.894531 120.660156 150.375 120.226562 146.292969 C 119.695312 146.15625 119.21875 146.035156 118.667969 145.898438 C 120.148438 141.863281 122.488281 138.734375 126.734375 137.300781 C 125.460938 138.613281 124.230469 139.964844 122.90625 141.214844 C 120.863281 143.144531 120.464844 145.265625 121.929688 147.695312 C 123.664062 145.628906 125.398438 143.5625 127.140625 141.496094 C 127.417969 141.605469 127.699219 141.71875 127.980469 141.828125 C 126.328125 143.503906 125.796875 145.234375 127.480469 147.316406 C 128.550781 146.339844 129.644531 145.347656 130.976562 144.136719 C 131.894531 146.21875 132.769531 148.265625 133.691406 150.296875 C 134.574219 152.226562 135.351562 154.21875 136.449219 156.019531 C 137.574219 157.859375 138.265625 160.234375 141.4375 161.140625 C 137.953125 156.300781 135.257812 151.8125 136.339844 145.441406 C 137.324219 148.582031 138.105469 151.074219 138.917969 153.664062 C 141.492188 151.863281 142.175781 149.28125 143.246094 146.757812 C 143.714844 148.972656 144.175781 151.1875 144.6875 153.621094 C 145.324219 153.207031 145.652344 152.996094 146.308594 152.574219 C 146.046875 153.953125 145.65625 155.085938 145.664062 156.214844 C 145.679688 157.234375 146.128906 158.253906 146.492188 159.71875 C 143.210938 157.972656 143.265625 154.742188 141.847656 152.363281 C 139.964844 155.722656 140.371094 158.597656 142.945312 160.644531 C 143.191406 160.839844 143.511719 161.03125 143.816406 161.0625 C 146.207031 161.3125 148.609375 161.957031 150.988281 160.964844 C 150.984375 160.964844 150.890625 161.023438 150.890625 161.023438 C 151.894531 161.402344 152.867188 161.980469 153.898438 162.113281 C 168.476562 164.03125 182.242188 168.429688 195.109375 175.546875 C 200.703125 178.644531 206.621094 180.28125 212.996094 179.597656 C 215.492188 179.335938 218.042969 178.707031 220.355469 177.734375 C 226.523438 175.140625 229.421875 170.191406 229.667969 163.609375 C 229.921875 156.90625 228.109375 150.949219 223.535156 145.84375 C 217.804688 139.4375 210.699219 135.046875 203.183594 131.097656 C 191.679688 125.046875 179.371094 122.1875 166.527344 121.03125 C 158.441406 120.304688 150.382812 119.8125 142.285156 120.621094 C 134.179688 121.4375 126.371094 123.53125 118.667969 126.09375 C 116.175781 126.917969 114.113281 128.285156 114.234375 131.195312 C 114.375 134.433594 113.136719 136.523438 110.035156 137.359375 C 110.378906 139.753906 110.378906 139.753906 113.113281 139.910156 C 113.453125 138.828125 113.792969 137.746094 114.132812 136.660156 C 115.921875 139.800781 115.78125 143.113281 116.335938 146.980469 C 114.550781 145.054688 113.90625 142.742188 111.226562 142.132812 C 111.296875 143.265625 111.316406 144.195312 111.414062 145.121094 C 112.902344 159.613281 108.117188 171.570312 96.621094 180.550781 C 93.695312 182.84375 90.179688 184.464844 86.769531 186.042969 C 78.511719 189.878906 70.140625 193.445312 61.867188 197.246094 C 59.667969 198.253906 57.609375 199.621094 55.589844 200.96875 C 50.167969 204.597656 46.863281 209.621094 45.4375 216.015625 C 44.863281 218.585938 43.914062 221.160156 42.640625 223.449219 C 41.777344 224.996094 40.109375 226.132812 38.671875 227.285156 C 37.855469 227.9375 36.816406 228.046875 35.882812 226.5 C 38.628906 224.273438 41.164062 221.683594 41.21875 217.242188 C 39.503906 219.253906 36.214844 218.4375 35.5625 221.539062 C 31.960938 220.136719 30.355469 217.296875 31.117188 213.597656 C 32.378906 213.425781 32.976562 215.734375 34.585938 214.503906 C 35.519531 213.792969 36.660156 213.351562 37.949219 212.652344 C 37.941406 211.644531 37.925781 210.464844 37.914062 209.046875 C 35.960938 209.328125 34.175781 209.582031 32.390625 209.84375 C 32.332031 209.628906 32.269531 209.425781 32.210938 209.21875 C 33.652344 208.554688 35.078125 207.828125 36.550781 207.242188 C 38.210938 206.582031 39.484375 205.703125 39.320312 203.429688 C 37.730469 203.398438 36.132812 203.359375 34.535156 203.324219 C 37.539062 201.722656 41.78125 202.265625 42.765625 197.542969 C 42.300781 197.316406 41.617188 196.984375 40.8125 196.601562 C 46.550781 194.753906 46.550781 194.753906 50.800781 191.097656 C 50.136719 190.632812 49.523438 190.203125 48.914062 189.773438 C 52.503906 190.203125 55.339844 188.585938 58.398438 187.046875 C 58.121094 187.710938 57.84375 188.378906 57.421875 189.398438 C 62.796875 189.375 68.003906 189.546875 72.980469 187.363281 C 66.078125 186.828125 59.230469 186.277344 52.820312 183.195312 C 54.691406 183.40625 56.558594 183.609375 58.429688 183.800781 C 60.308594 183.988281 62.183594 184.179688 64.066406 184.34375 C 65.46875 184.46875 66.9375 184.757812 67.9375 183.308594 C 67.5625 184.730469 68.574219 184.746094 69.453125 184.699219 C 72.988281 184.503906 76.539062 184.394531 80.042969 183.949219 C 81.714844 183.738281 83.296875 182.855469 84.921875 182.269531 C 83.019531 181.71875 81.277344 181.8125 79.53125 181.871094 C 77.800781 181.933594 75.976562 182.316406 74.367188 181.898438 C 72.835938 181.503906 71.507812 180.308594 69.835938 180.730469 C 69.113281 181.695312 68.464844 182.550781 67.824219 183.410156 C 68.007812 182.4375 68.195312 181.464844 68.410156 180.335938 C 66.402344 179.394531 64.375 178.4375 62.351562 177.488281 C 62.421875 177.292969 62.496094 177.101562 62.570312 176.902344 C 66.410156 177.636719 70.253906 178.367188 74.394531 179.15625 C 74.925781 177.503906 75.386719 176.082031 75.886719 174.527344 C 73.773438 173.574219 71.863281 172.714844 69.945312 171.855469 C 70.023438 171.660156 70.097656 171.464844 70.167969 171.273438 C 73.542969 171.914062 76.917969 172.558594 80.476562 173.234375 C 80.726562 172.394531 80.964844 171.59375 81.246094 170.640625 C 79.785156 170.070312 78.488281 169.558594 77.1875 169.046875 C 79.449219 168.886719 81.640625 168.210938 83.847656 169.011719 C 85.402344 169.570312 85.660156 169.265625 85.898438 166.800781 C 84.402344 166.402344 82.871094 165.988281 81.34375 165.578125 C 81.378906 165.410156 81.410156 165.242188 81.441406 165.078125 C 83.03125 165.117188 84.617188 165.15625 86.332031 165.203125 C 86.71875 164.164062 87.046875 163.273438 87.59375 161.792969 C 88.003906 163.179688 88.230469 163.957031 88.527344 164.960938 C 89.414062 164.988281 90.351562 165.023438 91.488281 165.0625 C 91.753906 163.980469 91.976562 163.054688 92.234375 162.011719 C 91.382812 161.691406 90.695312 161.429688 89.46875 160.964844 C 90.695312 160.667969 91.441406 160.484375 92.515625 160.226562 C 92.65625 159.058594 92.8125 157.785156 92.984375 156.375 C 91.789062 155.992188 90.765625 155.664062 89.738281 155.332031 C 91.605469 154.945312 93.300781 153.804688 95.382812 154.492188 C 96.246094 154.777344 97.425781 154.542969 98.308594 154.171875 C 98.890625 153.929688 99.203125 153.035156 99.761719 152.246094 C 96.964844 151.074219 94.113281 152.335938 91.890625 150.316406 C 93.886719 150.382812 95.691406 150.5 97.496094 150.472656 C 98.304688 150.464844 99.363281 150.679688 99.617188 149.398438 C 99.652344 149.226562 100.128906 148.96875 100.15625 148.996094 C 102.152344 150.945312 103.304688 148.75 104.652344 148 C 105.796875 147.359375 106.042969 146.203125 105.90625 144.832031 C 105.390625 139.738281 102.867188 136.21875 98.25 133.992188 C 91.242188 130.605469 83.851562 129.816406 76.199219 130.222656 C 61.453125 131.015625 48.84375 137.042969 37.21875 145.726562 C 26.910156 153.429688 19.703125 163.535156 13.902344 174.800781 C 13.476562 175.625 12.785156 176.351562 13.421875 177.550781 C 13.644531 177.976562 12.734375 179.054688 12.253906 179.777344 C 11.769531 180.515625 11.101562 181.132812 10.65625 181.894531 C 10.210938 182.648438 9.945312 183.503906 9.402344 184.804688 C 10.515625 184.253906 11.238281 183.898438 12.625 183.222656 C 9.890625 187.054688 6.722656 189.917969 6.453125 194.75 C 8.65625 192.351562 10.648438 190.1875 12.640625 188.019531 C 12.828125 188.160156 13.015625 188.296875 13.203125 188.4375 C 10.53125 192.671875 7.417969 196.6875 5.996094 202.375 C 7.253906 200.660156 8.074219 199.53125 9.355469 197.769531 C 8.757812 202.226562 5.105469 205.304688 6.976562 209.964844 C 8.304688 205.8125 9.839844 202.273438 13.105469 199.746094 C 12.183594 202.039062 11.136719 204.285156 10.371094 206.625 C 9.71875 208.617188 9.230469 210.691406 8.953125 212.765625 C 8.621094 215.234375 9.550781 217.261719 12.414062 219.09375 C 10.277344 213.308594 11.136719 208.667969 15.277344 204.777344 C 14.015625 209.757812 12.914062 214.726562 13.859375 220.078125 C 14.753906 220.351562 15.667969 220.628906 16.960938 221.023438 C 15.285156 216.519531 14.265625 212.371094 18.339844 208.28125 C 18.253906 212.761719 18.175781 216.769531 18.09375 220.980469 C 19.121094 221.171875 20.042969 221.347656 21.160156 221.558594 C 21.15625 221.078125 21.25 220.652344 21.128906 220.289062 C 20.140625 217.269531 19.679688 214.28125 21.671875 210.78125 C 22.273438 213.972656 22.746094 216.632812 23.273438 219.277344 C 23.789062 221.878906 23.8125 221.871094 26.972656 222.226562 C 25.867188 219.574219 23.890625 217.089844 25.6875 213.835938 C 27.847656 217.472656 29.839844 220.835938 31.945312 224.378906 C 25.207031 226.632812 18.335938 227.128906 11.472656 224.175781 C 8.5 222.902344 6.421875 220.660156 4.949219 217.792969 C 0.757812 209.613281 -0.0625 201.105469 2.3125 192.257812 C 5.226562 181.433594 10.15625 171.539062 16.328125 162.242188 C 27.785156 144.984375 43.675781 133.699219 63.433594 127.839844 C 71.480469 125.449219 79.777344 124.691406 88.132812 125.8125 C 95.625 126.816406 102.644531 129.0625 108.050781 134.789062 C 110.003906 134.632812 111.136719 133.859375 111.101562 131.691406 C 111.027344 126.929688 113.671875 124.167969 117.929688 122.535156 C 130.632812 117.625 143.738281 115.230469 157.355469 116.203125 C 164.105469 116.6875 170.847656 117.332031 177.558594 118.199219 C 186.78125 119.390625 195.421875 122.527344 203.734375 126.636719 C 209.707031 129.589844 215.65625 132.582031 220.757812 136.949219 C 222.773438 138.679688 224.746094 140.484375 226.558594 142.421875 C 233.941406 150.316406 235.722656 159.648438 233.28125 169.933594 C 232.265625 174.222656 229.601562 177.453125 226.054688 179.980469 C 219.898438 184.371094 212.980469 185.179688 205.71875 184.316406 C 201.371094 183.804688 197.316406 182.382812 193.464844 180.296875 C 181.960938 174.050781 169.804688 169.660156 156.859375 167.574219 C 148.179688 166.179688 139.425781 165.828125 130.65625 165.65625 C 122.015625 165.492188 114.863281 158 114.992188 149.382812 C 114.996094 148.996094 115.261719 148.621094 115.621094 147.664062 C 116.558594 148.828125 117.230469 149.621094 117.851562 150.453125 C 119.453125 152.578125 120.953125 154.785156 122.652344 156.824219 C 123.386719 157.699219 124.535156 158.230469 125.488281 158.914062 C 128.757812 160.878906 134.269531 161.457031 137.617188 160.15625 C 136.300781 158.570312 135.003906 157.011719 133.730469 155.480469 C 132.839844 156.378906 132.152344 157.070312 131.46875 157.757812 C 132.921875 153.691406 132.910156 153.300781 131.34375 150.851562 C 129.867188 152.429688 129.609375 154.078125 130.886719 155.925781 C 131.238281 156.433594 131.289062 157.140625 131.472656 157.757812 C 131.800781 157.988281 132.179688 158.175781 132.445312 158.464844 C 132.644531 158.691406 132.707031 159.039062 132.996094 159.71875 C 131.003906 158.273438 129.460938 157.15625 127.507812 155.746094 C 127.277344 154.953125 128.464844 153.148438 126.496094 152.207031 C 125.035156 154.386719 124.914062 156.558594 126.625 158.707031 C 126.050781 158.835938 125.742188 158.910156 125.429688 158.976562 Z M 95.421875 175.496094 C 91.710938 175.804688 88.769531 176.054688 85.664062 176.3125 C 85.359375 177.113281 85.042969 177.945312 84.542969 179.269531 C 88.4375 178.222656 92.109375 178.472656 95.421875 175.496094 Z M 62.859375 192.503906 C 62.832031 192.234375 62.808594 191.964844 62.78125 191.703125 C 61.152344 191.621094 59.523438 191.589844 57.894531 191.464844 C 54.738281 191.214844 54.089844 191.542969 52.121094 194.871094 C 55.898438 194.035156 59.378906 193.273438 62.859375 192.503906 Z M 102.550781 165.570312 C 99.59375 166.050781 97.027344 166.472656 94.464844 166.882812 C 93.367188 167.0625 92.679688 167.535156 92.878906 168.785156 C 97.488281 169.234375 100.648438 168.253906 102.550781 165.570312 Z M 105.804688 154.542969 C 103.757812 155.191406 102.019531 155.75 100.148438 156.34375 C 100.058594 157.320312 99.976562 158.207031 99.890625 159.160156 C 104.945312 158.335938 105.46875 157.9375 105.804688 154.542969 Z M 90.277344 174.003906 C 95.46875 174.074219 97.632812 173.257812 98.910156 170.578125 C 96.160156 172.34375 92.472656 170.167969 90.277344 174.003906 Z M 101.140625 153.96875 C 102.925781 153.363281 104.539062 152.808594 106.257812 152.226562 C 106.175781 151.089844 106.113281 150.203125 106.042969 149.226562 C 104.722656 149.863281 103.679688 150.464844 102.5625 150.882812 C 101.300781 151.367188 99.929688 151.664062 101.140625 153.96875 Z M 44.429688 206.554688 C 41.132812 207.039062 39.601562 209.042969 38.988281 212.152344 C 41.664062 211.03125 44.238281 210.03125 44.429688 206.554688 Z M 98.472656 156.363281 C 97.234375 156.390625 96.011719 156.410156 94.5625 156.441406 C 94.617188 157.828125 94.65625 158.859375 94.695312 159.875 C 98.363281 159.910156 98.363281 159.910156 98.472656 156.363281 Z M 98.273438 163.890625 C 102.789062 163.09375 103.539062 162.652344 104.203125 160.167969 C 102.503906 161.773438 98.75 159.847656 98.273438 163.890625 Z M 124.433594 153.640625 C 124.832031 151.007812 127.101562 149.046875 125.035156 146.589844 C 122.347656 150.019531 122.34375 150.0625 124.433594 153.640625 Z M 76.324219 179.242188 C 77.285156 179.21875 78.003906 179.195312 78.851562 179.171875 C 79.105469 177.84375 79.335938 176.621094 79.574219 175.386719 C 77.058594 175.058594 77.058594 175.058594 76.324219 179.242188 Z M 81.796875 175.761719 C 81.398438 177.042969 81.085938 178.050781 80.695312 179.296875 C 81.84375 179.226562 82.675781 179.171875 83.585938 179.117188 C 83.789062 178.058594 83.960938 177.132812 84.167969 176.054688 C 83.390625 175.957031 82.773438 175.882812 81.796875 175.761719 Z M 47.1875 198.980469 C 49.253906 197.984375 51.761719 198.558594 53.65625 197.210938 C 48.703125 197.109375 48.703125 197.109375 47.1875 198.980469 Z M 38.136719 214.769531 C 38.078125 215.046875 38.019531 215.324219 37.957031 215.601562 C 38.570312 215.84375 39.316406 216.4375 39.769531 216.265625 C 41.152344 215.734375 42.738281 215.152344 42.273438 212.855469 C 40.84375 213.515625 39.492188 214.144531 38.136719 214.769531 Z M 97.429688 161.769531 C 96.363281 161.78125 95.453125 161.796875 94.414062 161.808594 C 94.269531 162.828125 94.152344 163.644531 94.039062 164.464844 C 96.339844 165.050781 97.144531 163.964844 97.429688 161.769531 Z M 33.832031 216.382812 C 34.265625 217.273438 34.644531 218.03125 35.285156 219.320312 C 36.160156 218.738281 36.832031 218.292969 37.429688 217.898438 C 36.558594 215.878906 35.730469 215.070312 33.832031 216.382812 Z M 86.816406 174.035156 C 89.316406 174.203125 89.316406 174.203125 89.484375 171.871094 C 87.644531 171.183594 86.777344 171.828125 86.816406 174.035156 Z M 128.773438 150.4375 C 129.417969 149.003906 132.042969 148.179688 130.101562 145.832031 C 129.324219 147.367188 127.460938 148.347656 128.773438 150.4375 Z M 88.027344 168.988281 C 89.261719 169.34375 90.324219 169.695312 90.902344 168.285156 C 91.007812 168.027344 90.902344 167.6875 90.886719 167.207031 C 89.988281 167.113281 89.164062 167.027344 88.191406 166.933594 C 88.128906 167.730469 88.082031 168.339844 88.027344 168.988281 Z M 85.445312 172.917969 C 85.003906 172.230469 84.695312 171.757812 84.394531 171.285156 C 83.925781 171.597656 83.246094 171.808594 83.035156 172.246094 C 82.703125 172.929688 82.644531 173.902344 83.78125 173.929688 C 84.25 173.941406 84.738281 173.367188 85.445312 172.917969 Z M 43.621094 202.84375 C 43.742188 203.070312 43.859375 203.296875 43.976562 203.519531 C 44.425781 203.171875 44.878906 202.816406 45.324219 202.46875 C 45.242188 202.339844 45.167969 202.214844 45.085938 202.089844 C 44.597656 202.339844 44.109375 202.59375 43.621094 202.84375 Z M 43.621094 202.84375 " fill-opacity="1" fill-rule="evenodd"/><path fill="#a60000" d="M 244.144531 86.417969 C 242.152344 89.359375 240.800781 92.554688 237.339844 94.699219 C 237.476562 93.507812 237.488281 92.773438 237.660156 92.078125 C 238.457031 88.734375 239.285156 85.390625 240.128906 82.058594 C 241.480469 76.703125 239.882812 72.320312 236.085938 68.410156 C 231.933594 64.136719 227.011719 61.21875 221.308594 59.84375 C 213.765625 58.015625 206.179688 56.28125 198.523438 55.042969 C 185.914062 53.011719 173.183594 51.828125 160.394531 52.296875 C 150.410156 52.660156 140.5 53.898438 130.753906 56.195312 C 128.492188 56.726562 126.230469 57.386719 124.097656 58.289062 C 114.953125 62.140625 110.007812 69.101562 109.328125 78.988281 C 109.128906 81.933594 109.296875 84.902344 109.296875 87.972656 C 108.792969 87.675781 108.265625 87.359375 107.742188 87.050781 C 106.015625 88.007812 106.015625 89.773438 105.679688 91.367188 C 104.796875 95.558594 103.308594 96.492188 99.089844 95.554688 C 96.683594 95.019531 94.753906 93.765625 93.546875 91.644531 C 92.621094 90.015625 91.839844 88.277344 91.214844 86.507812 C 90.304688 83.921875 90.894531 83.21875 93.5625 83.558594 C 97.183594 84.03125 100.625 83.398438 103.953125 81.992188 C 105.699219 81.25 106.621094 80.132812 106.84375 78.019531 C 108.085938 66.25 114.339844 58.367188 125.648438 54.65625 C 134.03125 51.902344 142.757812 50.949219 151.46875 49.992188 C 162.769531 48.746094 174.054688 49.230469 185.351562 50.1875 C 197.539062 51.222656 209.601562 53.035156 221.507812 55.839844 C 228.433594 57.476562 234.621094 60.523438 239.765625 65.589844 C 243.996094 69.757812 246.007812 74.652344 245.441406 80.589844 C 245.1875 83.210938 245.234375 83.21875 247.902344 85.363281 C 248.539062 84.964844 249.328125 84.605469 249.953125 84.054688 C 252.792969 81.539062 256.152344 80.238281 259.824219 79.558594 C 268.273438 77.984375 276.605469 78.753906 284.917969 80.605469 C 296.792969 83.242188 307.160156 88.570312 315.910156 97.136719 C 324.175781 105.222656 332 113.671875 338.714844 123.125 C 347.566406 135.570312 352.140625 149.28125 351.390625 164.644531 C 351.179688 169.011719 349.75 172.886719 346.945312 176.234375 C 345.804688 177.585938 344.570312 178.867188 343.242188 180.328125 C 343.515625 180.589844 343.789062 180.855469 344.355469 181.398438 C 343.535156 182.1875 342.605469 182.90625 341.917969 183.8125 C 341.445312 184.425781 341.09375 185.304688 341.132812 186.042969 C 341.152344 186.355469 342.292969 186.742188 342.96875 186.855469 C 345.253906 187.238281 347.671875 187.179688 349.84375 187.886719 C 357.550781 190.382812 362.882812 195.746094 366.496094 202.8125 C 372.492188 214.539062 374.898438 226.902344 373.976562 240.15625 C 373.171875 251.773438 369.140625 262.144531 364.121094 272.363281 C 359.777344 281.1875 354.226562 289.152344 347.832031 296.585938 C 338.546875 307.375 326.285156 310.816406 312.699219 311.144531 C 312.207031 311.148438 311.703125 310.964844 311.109375 310.585938 C 328.828125 307.171875 342.820312 298.457031 352.117188 282.644531 C 343.140625 285.839844 332.859375 285.609375 328.722656 282.046875 C 332.386719 282.035156 335.925781 282.199219 339.429688 281.957031 C 342.835938 281.730469 346.21875 281.066406 349.617188 280.644531 C 350.832031 280.492188 352.066406 280.507812 353.933594 280.410156 C 354.03125 280.265625 354.671875 279.527344 355.109375 278.675781 C 358.621094 271.882812 362.390625 265.207031 365.496094 258.230469 C 368.785156 250.839844 369.40625 242.828125 369.875 234.800781 C 370.523438 223.769531 367.324219 213.699219 362.507812 204.097656 C 358.578125 196.25 352.453125 190.839844 343.230469 190.097656 C 340.738281 189.898438 339.238281 188.4375 337.792969 186.777344 C 336.71875 185.535156 336.90625 184.535156 338.191406 183.316406 C 343.4375 178.328125 347.199219 168.367188 346.949219 161.1875 C 346.511719 148.925781 342.375 138 335.585938 127.941406 C 327.839844 116.457031 318.488281 106.394531 308.359375 97.015625 C 301.050781 90.238281 292.109375 86.746094 282.648438 84.410156 C 276.164062 82.808594 269.570312 81.890625 262.847656 82.640625 C 258.933594 83.074219 255.289062 84.078125 252.113281 86.660156 C 248.753906 89.398438 247.683594 89.261719 244.144531 86.417969 Z M 95.140625 87.234375 C 96.304688 91.671875 98.570312 93.644531 102.804688 93.667969 C 103.332031 90.894531 103.875 88.046875 104.390625 85.339844 C 101.574219 85.917969 98.472656 86.554688 95.140625 87.234375 Z M 95.140625 87.234375 " fill-opacity="1" fill-rule="evenodd"/><path fill="#a60000" d="M 211.300781 216.636719 C 215.371094 218.09375 219.082031 219.4375 222.816406 220.734375 C 224.554688 221.339844 226.039062 221.039062 227.207031 219.117188 C 224.171875 218.148438 220.746094 218.496094 218.222656 215.652344 C 223.332031 215.507812 228.421875 218.605469 233.441406 214.015625 C 231.136719 213.859375 229.546875 213.746094 227.375 213.597656 C 230.300781 211.820312 233.90625 213.105469 236.261719 209.96875 C 233.613281 209.949219 231.480469 209.925781 229.34375 209.914062 C 232.375 208.046875 236.722656 209.289062 239.035156 204.882812 C 236.78125 205.105469 235.019531 205.277344 232.710938 205.507812 C 235.402344 203.039062 239.777344 203.976562 240.550781 199.496094 C 239.429688 199.761719 238.546875 199.972656 237.359375 200.25 C 237.644531 199.757812 237.746094 199.484375 237.929688 199.285156 C 239.246094 197.910156 241.539062 197.257812 241.28125 194.558594 C 240.722656 194.546875 240.164062 194.542969 239.339844 194.535156 C 240.566406 192.660156 241.679688 190.957031 242.917969 189.058594 C 243.949219 190.429688 243.214844 191.214844 242.753906 192.035156 C 242.289062 192.847656 242.035156 193.660156 243.101562 194.527344 C 243.820312 193.851562 244.515625 193.203125 245.339844 192.4375 C 244.730469 190.070312 243.851562 187.914062 242.082031 185.648438 C 241.222656 188.492188 240.640625 190.984375 237.976562 192.507812 C 238.875 189.382812 239.691406 186.558594 240.585938 183.46875 C 237.828125 181.273438 234.992188 179.019531 231.554688 176.273438 C 232.902344 176.160156 233.675781 175.941406 234.394531 176.0625 C 240.011719 176.996094 244.171875 180.050781 247.007812 184.941406 C 253.101562 195.441406 252.339844 214.980469 238.28125 224.152344 C 232.34375 228.027344 225.964844 230.753906 219.125 232.410156 C 205.824219 235.617188 192.269531 237.105469 178.671875 238.207031 C 169.269531 238.976562 159.847656 239.242188 150.421875 238.601562 C 141.71875 238.011719 133.734375 235.214844 126.417969 230.484375 C 120.457031 226.625 118.851562 220.964844 119.789062 214.28125 C 119.863281 213.742188 119.992188 213.164062 120.269531 212.707031 C 120.875 211.710938 122.210938 211.757812 122.613281 212.863281 C 123.023438 213.992188 123.28125 215.234375 123.304688 216.425781 C 123.40625 222.203125 126.464844 225.847656 131.378906 228.421875 C 138.910156 232.378906 146.910156 234.292969 155.371094 234.390625 C 175.964844 234.636719 196.328125 232.46875 216.476562 228.296875 C 222.039062 227.144531 227.378906 225.230469 232.40625 222.574219 C 237.503906 219.886719 241.96875 216.457031 244.191406 210.863281 C 244.8125 209.289062 245.171875 207.605469 245.585938 206.203125 C 243.636719 207.136719 241.789062 208.015625 239.941406 208.898438 C 240.03125 209.132812 240.121094 209.359375 240.207031 209.59375 C 240.921875 209.730469 241.632812 209.863281 242.511719 210.035156 C 242.109375 211.59375 240.820312 212.019531 239.664062 212.554688 C 238.484375 213.09375 237.089844 213.308594 237.152344 215.164062 C 237.164062 215.59375 236.292969 216.09375 235.773438 216.496094 C 234.019531 217.847656 232.199219 219.125 230.503906 220.546875 C 230.09375 220.894531 230.058594 221.691406 229.9375 222.035156 C 227.445312 222.957031 224.945312 223.566406 222.746094 224.75 C 216.722656 227.984375 205.515625 223.699219 202.425781 219.5 C 202.253906 219.261719 202.242188 218.898438 201.964844 217.914062 C 203.324219 218.554688 204.265625 218.953125 205.152344 219.433594 C 209.175781 221.605469 213.34375 223.363281 217.886719 224.148438 C 219.414062 224.410156 220.726562 224.339844 221.738281 222.816406 C 218.082031 221.15625 213.734375 220.667969 211.300781 216.636719 Z M 245.910156 203.921875 C 246.503906 200.753906 246.546875 197.785156 245.609375 194.792969 C 244.664062 196.121094 242.546875 196.8125 243.523438 199.042969 C 244.136719 198.820312 244.675781 198.628906 245.28125 198.40625 C 245.625 201.300781 241.46875 202.078125 242.539062 205.175781 C 243.644531 204.765625 244.664062 204.386719 245.910156 203.921875 Z M 245.910156 203.921875 " fill-opacity="1" fill-rule="evenodd"/><path fill="#a60000" d="M 219.546875 306.289062 C 217.886719 308.421875 216.230469 310.554688 214.292969 313.046875 C 217.429688 313.292969 220.210938 313.722656 222.652344 311.363281 C 225.179688 308.925781 227.84375 306.640625 230.949219 303.835938 C 229.648438 307.960938 226.804688 310.160156 224.289062 312.886719 C 227.222656 313.644531 229.515625 313.453125 231.382812 311.164062 C 233.132812 309.023438 235.015625 306.988281 236.84375 304.910156 C 237.40625 304.261719 237.980469 303.621094 239.03125 302.4375 C 237.914062 307.015625 235.074219 309.6875 232.683594 312.78125 C 234.570312 313.363281 235.878906 312.867188 236.996094 311.554688 C 239.636719 308.441406 242.3125 305.355469 244.957031 302.285156 C 245.082031 304.980469 245.082031 304.980469 239.617188 312.109375 C 242.246094 312.363281 244.441406 312.152344 245.945312 309.804688 C 248.136719 306.382812 250.355469 302.976562 252.757812 299.253906 C 253.464844 303.675781 250.429688 306.488281 248.886719 309.871094 C 255.078125 307.703125 257.972656 303.046875 259.222656 296.699219 C 259.527344 297.292969 260.160156 297.925781 260.085938 298.464844 C 259.855469 300.199219 259.640625 302.019531 258.9375 303.59375 C 256.847656 308.296875 253.25 311.722656 248.964844 314.460938 C 248.734375 314.605469 248.378906 314.558594 247.976562 314.621094 C 248.226562 314.03125 248.429688 313.570312 248.910156 312.464844 C 246.046875 313.769531 243.691406 314.84375 241.1875 315.988281 C 237.292969 314.121094 234.078125 316.902344 230.214844 318.730469 C 230.777344 317.746094 231.070312 317.238281 231.421875 316.601562 C 227.851562 315.582031 225.78125 318.085938 222.949219 319.679688 C 223.617188 319.972656 223.882812 320.183594 224.15625 320.1875 C 230.355469 320.316406 236.574219 320.792969 242.75 320.433594 C 249.394531 320.046875 254.644531 316.519531 258.703125 311.289062 C 260.4375 309.066406 262.074219 306.777344 264.054688 304.679688 C 264.191406 309.464844 263.445312 313.941406 259.867188 317.386719 C 254.917969 322.15625 249.105469 325.328125 242.121094 325.503906 C 236.144531 325.648438 230.15625 325.445312 224.179688 325.148438 C 214.300781 324.660156 204.457031 325.261719 194.601562 325.710938 C 185.488281 326.125 176.40625 325.878906 167.507812 323.574219 C 161.128906 321.921875 155.101562 319.433594 149.75 315.507812 C 146.796875 313.347656 144.628906 310.582031 143.839844 306.933594 C 143.488281 305.335938 143.273438 303.636719 145.34375 302.417969 C 145.800781 303.234375 146.3125 303.925781 146.609375 304.695312 C 148.0625 308.511719 150.734375 311.144531 154.289062 313.085938 C 162.824219 317.746094 171.976562 320.09375 181.636719 320.628906 C 183.515625 320.734375 185.4375 320.496094 187.28125 320.769531 C 191.226562 321.351562 194.441406 320.09375 197.230469 317.410156 C 200.261719 314.492188 203.3125 311.597656 206.335938 308.671875 C 206.960938 308.070312 207.519531 307.410156 208.316406 306.980469 C 206.027344 313.535156 200.578125 316.972656 194.570312 320.417969 C 199.0625 320.851562 202.78125 320.453125 205.953125 317.46875 C 209.417969 314.199219 213.058594 311.117188 216.625 307.953125 C 217.421875 307.246094 218.203125 306.519531 218.996094 305.800781 C 219.179688 305.964844 219.363281 306.121094 219.546875 306.289062 Z M 224.433594 316.820312 C 219.703125 314.902344 216.527344 317.921875 212.996094 319.722656 C 217.058594 319.789062 221.480469 321.261719 224.433594 316.820312 Z M 205.125 319.957031 C 209.308594 320.863281 212.164062 318.453125 215.546875 316.15625 C 214.046875 315.648438 212.960938 315.277344 211.804688 314.886719 C 209.632812 316.53125 207.53125 318.128906 205.125 319.957031 Z M 205.125 319.957031 " fill-opacity="1" fill-rule="evenodd"/><path fill="#a60000" d="M 105.550781 195.429688 C 105.863281 200.175781 104.050781 204.34375 102.386719 208.558594 C 101.84375 209.925781 101.652344 211.34375 102.894531 212.863281 C 106.570312 211.539062 109.53125 207.8125 114.125 208.820312 C 111.109375 211.632812 107.722656 213.816406 104.0625 215.527344 C 102.421875 216.292969 100.917969 215.738281 100.136719 214.066406 C 99.46875 212.625 99.140625 210.9375 99.027344 209.335938 C 98.949219 208.292969 99.414062 207.152344 99.832031 206.140625 C 101.238281 202.734375 102.316406 199.289062 102.257812 195.519531 C 102.21875 192.882812 103.203125 191.976562 105.722656 192.402344 C 107.402344 192.6875 109.109375 193.414062 110.539062 194.355469 C 112.277344 195.5 113.722656 197.066406 115.644531 198.753906 C 115.957031 197.492188 116.242188 196.507812 116.441406 195.503906 C 117.496094 190.328125 120.265625 186.410156 124.726562 183.5625 C 131.328125 179.355469 138.617188 177.9375 146.292969 177.804688 C 154.015625 177.675781 161.507812 179.339844 169.035156 180.710938 C 181.378906 182.957031 193.675781 185.429688 206.039062 187.574219 C 209.261719 188.128906 212.65625 188.078125 215.945312 187.824219 C 220.234375 187.503906 223.773438 185.554688 226.164062 181.789062 C 226.773438 180.835938 227.347656 179.230469 228.882812 180.21875 C 230.382812 181.179688 229.207031 182.40625 228.648438 183.40625 C 226.699219 186.855469 223.734375 189.054688 219.953125 190.1875 C 215.183594 191.609375 210.316406 191.792969 205.453125 191.019531 C 189.449219 188.492188 173.460938 185.855469 157.460938 183.285156 C 151.402344 182.316406 145.328125 182.070312 139.246094 183.132812 C 135.382812 183.808594 131.769531 185.105469 128.347656 187.035156 C 124.28125 189.328125 121.914062 192.746094 121.117188 197.265625 C 120.738281 199.445312 120.539062 201.660156 120.351562 203.871094 C 120.234375 205.308594 120.460938 206.890625 118.613281 207.40625 C 116.738281 207.921875 116.125 206.316406 115.273438 205.242188 C 113.34375 202.808594 111.542969 200.265625 109.554688 197.882812 C 108.675781 196.820312 107.480469 196.023438 106.429688 195.105469 C 106.132812 195.210938 105.84375 195.320312 105.550781 195.429688 Z M 105.550781 195.429688 " fill-opacity="1" fill-rule="evenodd"/><path fill="#a60000" d="M 110.8125 90.902344 C 111.625 91.507812 112.230469 91.78125 112.570312 92.242188 C 115.976562 96.835938 120.890625 98.6875 126.191406 99.855469 C 131.886719 101.113281 137.664062 101.105469 143.402344 100.433594 C 156.4375 98.921875 169.503906 98.574219 182.570312 99.558594 C 188.515625 100.007812 194.414062 101.199219 200.289062 102.28125 C 205.085938 103.167969 209.808594 104.429688 214.574219 105.472656 C 220.792969 106.832031 226.683594 105.550781 232.433594 103.175781 C 234.117188 102.484375 235.832031 101.855469 237.71875 101.558594 C 235.871094 105.835938 232.496094 108.304688 228.445312 109.882812 C 225.410156 111.058594 222.1875 111.105469 218.9375 110.984375 C 213.210938 110.773438 207.761719 109.132812 202.355469 107.5625 C 192.652344 104.757812 182.75 104.09375 172.75 103.726562 C 162.191406 103.335938 151.71875 104.363281 141.222656 105.160156 C 133.941406 105.710938 126.816406 105.035156 120.011719 102.195312 C 117.320312 101.074219 114.875 99.546875 113.003906 97.273438 C 111.601562 95.574219 110.519531 93.707031 110.8125 90.902344 Z M 110.8125 90.902344 " fill-opacity="1" fill-rule="evenodd"/><path fill="#a60000" d="M 189.429688 228.878906 C 189.222656 228.953125 188.976562 229.140625 188.820312 229.082031 C 185.738281 227.976562 183.015625 228.941406 180.261719 230.3125 C 179.390625 230.742188 178.023438 230.871094 177.164062 230.488281 C 175.179688 229.617188 173.285156 229.105469 170.945312 229.777344 C 171.375 229.257812 171.808594 228.742188 172.234375 228.230469 C 170.820312 226.996094 170.820312 226.996094 167.355469 228.84375 C 167.738281 229.632812 168.117188 230.429688 168.503906 231.226562 C 168.390625 231.347656 168.273438 231.464844 168.15625 231.578125 C 167.15625 230.980469 166.148438 230.375 165.066406 229.722656 C 163.996094 230 162.839844 230.304688 161.683594 230.605469 C 161.613281 230.5 161.535156 230.386719 161.460938 230.277344 C 162.261719 229.660156 163.0625 229.042969 163.863281 228.429688 C 162.632812 226.878906 162.632812 226.878906 158.523438 228.972656 C 158.777344 229.628906 159.042969 230.300781 159.601562 231.71875 C 158.085938 230.820312 157.019531 230.363281 156.191406 229.636719 C 155.441406 228.972656 154.949219 228.015625 154.152344 226.925781 C 153.464844 227.070312 152.554688 227.265625 151.433594 227.5 C 151.558594 228.492188 151.664062 229.296875 151.847656 230.757812 C 150.675781 229.5625 149.949219 228.824219 149.222656 228.078125 C 145.691406 228.308594 145.691406 228.308594 144.847656 229.921875 C 142.328125 227.71875 139.226562 227.917969 135.816406 227.394531 C 135.671875 226.808594 135.226562 225.761719 135.195312 224.699219 C 135.125 222.304688 134.097656 220.742188 131.484375 219.929688 C 131.273438 221.660156 131.0625 223.335938 130.816406 225.304688 C 129.453125 223.699219 129.675781 221.988281 129.511719 220.394531 C 129.386719 219.207031 129.351562 218.003906 129.296875 216.808594 C 129.285156 216.554688 129.285156 216.15625 129.4375 216.050781 C 131.757812 214.4375 130.125 213.132812 128.871094 211.058594 C 128.164062 213.320312 127.625 215.023438 127 217.019531 C 125.09375 213.1875 129.285156 209.683594 127.121094 205.90625 C 126.484375 206.6875 125.96875 207.324219 125.417969 208.003906 C 125.1875 207.609375 124.980469 207.421875 125.007812 207.273438 C 125.871094 203.097656 127.371094 199.324219 131.636719 197.078125 C 131.75 200.410156 127.113281 202.175781 129.214844 206.0625 C 130.261719 205.042969 131.175781 204.144531 132.554688 202.808594 C 131.527344 205.976562 128.347656 208.410156 131.84375 211.480469 C 132.738281 210.554688 133.667969 209.582031 134.835938 208.367188 C 135.019531 210.949219 131.414062 213.332031 135.320312 215.4375 C 136.101562 214.121094 136.890625 212.800781 137.679688 211.472656 C 137.890625 211.554688 138.097656 211.632812 138.308594 211.710938 C 138.050781 213.5 137.789062 215.28125 137.488281 217.390625 C 138.398438 218.058594 139.40625 218.792969 140.515625 219.613281 C 141.3125 217.21875 141.988281 215.207031 142.660156 213.1875 C 142.894531 213.234375 143.128906 213.285156 143.355469 213.332031 C 143.011719 217.640625 142.785156 221.9375 144.441406 226.214844 C 145.605469 226.109375 146.792969 226.003906 148.164062 225.878906 C 147.785156 222.121094 147.160156 218.484375 149.566406 214.886719 C 149.949219 218.640625 150.296875 222.035156 150.664062 225.589844 C 151.878906 225.363281 152.605469 225.234375 153.34375 225.097656 C 153.292969 223.164062 153.136719 221.414062 153.234375 219.667969 C 153.332031 218.078125 153.449219 216.398438 155.144531 215.089844 C 155.515625 218.28125 155.859375 221.214844 156.210938 224.304688 C 157.121094 224.402344 157.816406 224.476562 158.589844 224.558594 C 157.320312 225.816406 157.320312 225.816406 157.582031 227.5 C 159.148438 226.945312 160.664062 226.40625 162.3125 225.816406 C 161.589844 222.648438 160.328125 219.703125 161.777344 215.773438 C 162.960938 219.160156 163.917969 221.871094 164.867188 224.578125 C 166.304688 224.429688 167.492188 224.308594 168.679688 224.183594 C 167.609375 224.664062 166.539062 225.144531 165.027344 225.832031 C 167.664062 228.015625 168.886719 226.417969 170.496094 225.855469 C 170.167969 225.257812 170.054688 224.78125 169.757812 224.554688 C 169.453125 224.324219 168.960938 224.34375 168.554688 224.253906 C 170.222656 223.09375 168.136719 221.574219 169.011719 220.136719 C 171.054688 221.609375 171.191406 225.457031 174.726562 224.898438 C 174.496094 225.378906 174.039062 225.90625 174.085938 226.398438 C 174.109375 226.6875 174.980469 227.210938 175.34375 227.121094 C 176.597656 226.824219 177.792969 226.300781 179.003906 225.867188 C 177.46875 224.09375 176.070312 222.472656 174.667969 220.855469 C 174.820312 220.675781 174.972656 220.496094 175.125 220.3125 C 178.421875 221.261719 180.128906 225.792969 184.335938 224.597656 C 184.207031 227.167969 184.566406 227.199219 188.871094 225.015625 C 187.171875 223.25 185.492188 221.503906 183.8125 219.757812 C 183.960938 219.574219 184.109375 219.402344 184.257812 219.222656 C 184.886719 219.527344 185.535156 219.808594 186.144531 220.148438 C 189.019531 221.726562 191.851562 223.371094 194.773438 224.855469 C 195.414062 225.1875 196.339844 224.960938 197.714844 225.015625 C 195.746094 223.214844 194.292969 221.914062 192.886719 220.554688 C 192.601562 220.28125 192.519531 219.796875 192.507812 219.136719 C 198.5 222.640625 205 224.667969 211.601562 226.601562 C 209.359375 227.429688 207.082031 227.21875 204.859375 226.839844 C 202.785156 226.492188 200.753906 225.875 198.703125 225.375 C 198.632812 225.582031 198.5625 225.792969 198.488281 226.003906 C 199.273438 226.398438 200.0625 226.792969 200.847656 227.1875 C 196.851562 226.917969 193.066406 227.796875 189.328125 228.953125 C 190.25 228.152344 191.175781 227.351562 192.46875 226.238281 C 190.207031 225.613281 188.957031 226.679688 187.335938 227.425781 C 188.191406 228.019531 188.808594 228.449219 189.429688 228.878906 Z M 136.777344 225.503906 C 138.648438 225.859375 140.152344 226.535156 141.851562 225.792969 C 140.664062 224.164062 137.921875 222.773438 137.003906 223.449219 C 136.957031 223.910156 136.882812 224.535156 136.777344 225.503906 Z M 177.058594 228.605469 C 179.253906 230.3125 180.542969 228.191406 182.867188 227.617188 C 180.160156 226.191406 178.710938 227.847656 177.058594 228.605469 Z M 137.070312 219.410156 C 137.851562 221.996094 138.277344 222.289062 141.066406 222.503906 C 140.964844 220.136719 139.167969 219.992188 137.070312 219.410156 Z M 134.675781 219.847656 C 135.167969 217.261719 133.753906 216.785156 132.449219 215.992188 C 131.351562 218.363281 133.152344 218.703125 134.675781 219.847656 Z M 134.675781 219.847656 " fill-opacity="1" fill-rule="evenodd"/><path fill="#a60000" d="M 294.996094 157.144531 C 294.167969 154.480469 294.902344 152.523438 295.910156 150.679688 C 296.75 149.140625 296.632812 147.972656 294.730469 146.835938 C 293.738281 149.027344 292.761719 151.183594 291.769531 153.355469 C 290.472656 148.992188 292.804688 144.019531 297.71875 141.355469 C 296.933594 142.835938 296.339844 143.941406 295.632812 145.265625 C 296.207031 145.921875 296.835938 146.640625 297.578125 147.488281 C 298.644531 146.847656 299.65625 146.246094 301.304688 145.265625 C 300.496094 146.90625 299.96875 147.980469 299.355469 149.210938 C 299.980469 150.058594 300.621094 150.9375 301.578125 152.25 C 302.839844 151.148438 304.011719 150.125 305.183594 149.089844 C 305.351562 149.277344 305.515625 149.464844 305.675781 149.652344 C 304.753906 151.121094 303.832031 152.589844 302.757812 154.296875 C 303.3125 155.460938 303.914062 156.722656 304.644531 158.253906 C 306.492188 156.484375 308.121094 154.925781 309.746094 153.371094 C 309.9375 153.523438 310.128906 153.664062 310.316406 153.816406 C 309.171875 155.539062 308.019531 157.269531 306.863281 158.992188 C 305.828125 160.527344 305.664062 161.996094 307.167969 163.488281 C 308.609375 162.125 309.992188 160.808594 311.816406 159.082031 C 311.113281 162.886719 307.085938 165.066406 309.050781 169.207031 C 310.464844 167.820312 311.675781 166.636719 313.210938 165.128906 C 313.472656 168.761719 309.324219 170.964844 311.46875 174.566406 C 312.792969 173.136719 313.988281 171.839844 315.179688 170.546875 C 315.449219 170.695312 315.714844 170.84375 315.984375 170.996094 C 315.484375 172.722656 315.058594 174.476562 314.460938 176.175781 C 313.902344 177.765625 313.960938 178.996094 315.769531 179.613281 C 316.726562 178.628906 317.667969 177.660156 318.605469 176.6875 C 318.804688 176.8125 319 176.9375 319.195312 177.066406 C 318.898438 178.621094 318.601562 180.175781 318.285156 181.832031 C 319.34375 182.546875 320.242188 183.144531 321.179688 183.773438 C 321.933594 181.699219 322.621094 179.804688 323.308594 177.902344 C 323.613281 177.945312 323.914062 177.988281 324.214844 178.03125 C 324.679688 181.5 324.789062 184.988281 324.84375 189.015625 C 322.566406 187.445312 321.34375 185.121094 318.410156 185.484375 C 318.363281 186.21875 318.300781 187.132812 318.230469 188.125 C 317.964844 188.109375 317.476562 188.214844 317.367188 188.0625 C 316.691406 187.085938 315.917969 186.117188 315.539062 185.015625 C 315.117188 183.800781 314.769531 182.730469 312.941406 182.425781 C 312.667969 184.398438 312.402344 186.285156 312.070312 188.660156 C 308.816406 185.300781 310.628906 181.273438 309.636719 177.15625 C 309.015625 178.621094 308.722656 179.304688 308.359375 180.148438 C 305.761719 177.757812 308.609375 174.234375 306.394531 171.699219 C 305.859375 172.945312 305.394531 174.042969 304.746094 175.570312 C 302.960938 172.007812 305.984375 168.820312 304.457031 165.417969 C 303.804688 166.269531 303.285156 166.945312 302.757812 167.640625 C 302.609375 167.449219 302.363281 167.292969 302.375 167.148438 C 302.460938 166.050781 302.425781 164.894531 302.746094 163.867188 C 303.484375 161.476562 302.519531 159.617188 301.160156 157.40625 C 300.304688 159.171875 299.609375 160.609375 298.816406 162.230469 C 297.800781 160.148438 298.445312 158.257812 299.148438 156.609375 C 300.019531 154.558594 299.824219 153.011719 297.96875 151.402344 C 297.027344 153.210938 296.128906 154.945312 294.996094 157.144531 Z M 294.996094 157.144531 " fill-opacity="1" fill-rule="evenodd"/><path fill="#a60000" d="M 157.222656 295.996094 C 157.226562 297.035156 157.242188 298.074219 157.25 299.230469 C 157.789062 299.566406 158.417969 299.96875 159.128906 300.414062 C 156.742188 301.230469 156.742188 301.230469 156.269531 303.0625 C 157.3125 303.257812 158.335938 303.453125 159.429688 303.660156 C 159.875 302.75 160.238281 302.003906 160.96875 300.5 C 161.183594 303.035156 162.332031 303.714844 164.015625 303.417969 C 163.898438 304.851562 161.546875 304.910156 162.546875 306.589844 C 163.511719 308.210938 164.925781 307.261719 166.136719 307.097656 C 168.128906 306.832031 170.101562 306.402344 172.257812 306.566406 C 171.40625 307.09375 170.546875 307.617188 169.480469 308.269531 C 170.175781 309.09375 170.789062 309.828125 171.535156 310.714844 C 174.335938 309.75 177.011719 308.824219 180.269531 307.703125 C 178.109375 310.183594 175.515625 310.886719 173.246094 312.167969 C 173.699219 314.035156 174.835938 314.386719 176.460938 313.695312 C 180.839844 311.816406 185.222656 309.945312 189.59375 308.050781 C 190.546875 307.636719 191.46875 307.144531 192.527344 306.917969 C 190.933594 309.742188 187.980469 310.875 185.472656 312.601562 C 188.617188 315.328125 188.710938 315.460938 191.601562 313.542969 C 194.8125 311.410156 197.839844 309 201.253906 306.488281 C 200.894531 307.292969 200.726562 307.960938 200.347656 308.484375 C 198.300781 311.339844 195.546875 313.375 192.59375 315.1875 C 191.898438 315.609375 190.613281 315.859375 191.742188 316.851562 C 188.515625 317.476562 185.296875 318.101562 182.078125 318.726562 C 182.035156 318.574219 181.996094 318.421875 181.957031 318.273438 C 183.511719 317.585938 185.074219 316.894531 186.726562 316.171875 C 184.644531 314.023438 182.65625 313.441406 179.996094 314.535156 C 177.527344 315.546875 174.878906 316.414062 172.082031 315.703125 C 172.15625 315 172.503906 314.128906 172.21875 313.785156 C 171.820312 313.292969 170.945312 312.960938 170.28125 312.972656 C 169.1875 312.996094 168.105469 313.402344 167.011719 313.550781 C 164.394531 313.898438 161.777344 314.1875 158.503906 313.003906 C 160.347656 312.523438 161.542969 312.214844 162.804688 311.882812 C 162.585938 310.101562 161.699219 309.683594 160.09375 309.816406 C 157.140625 310.058594 154.1875 309.925781 151.308594 308.578125 C 152.546875 308.425781 153.785156 308.273438 155.015625 308.121094 C 154.765625 303.605469 149.941406 306.007812 148.496094 303.207031 C 149.855469 302.703125 151.363281 301.996094 150.253906 299.582031 C 149.460938 298.878906 148.316406 297.871094 146.902344 296.625 C 151.476562 294.769531 148.40625 292.246094 147.644531 289.417969 C 148.871094 290.148438 149.710938 290.648438 150.484375 291.109375 C 153.257812 289.390625 151.335938 286.765625 152.003906 284.167969 C 153.609375 286.792969 154.988281 289.050781 156.425781 291.398438 C 155.996094 292.242188 155.523438 293.191406 155.058594 294.105469 C 155.890625 294.847656 156.59375 295.46875 157.300781 296.089844 C 154.007812 295.839844 154.007812 295.839844 153.441406 298.28125 C 154.234375 298.902344 154.984375 299.011719 155.664062 298.097656 C 156.191406 297.40625 156.699219 296.699219 157.222656 295.996094 Z M 169.347656 310.738281 C 168.746094 309.894531 168.308594 309.285156 167.800781 308.589844 C 166.476562 308.917969 165.222656 309.226562 163.953125 309.542969 C 164.855469 312.125 165.042969 312.167969 169.347656 310.738281 Z M 156.414062 306.226562 C 156.988281 308.511719 156.988281 308.511719 160.636719 307.441406 C 159.769531 305.34375 159.769531 305.34375 156.414062 306.226562 Z M 151.28125 303.085938 C 152.664062 302.917969 153.894531 304.085938 154.269531 302.1875 C 154.617188 300.441406 153.40625 300.488281 152.160156 300.570312 C 151.933594 301.222656 151.714844 301.84375 151.28125 303.085938 Z M 152.667969 296.179688 C 151.882812 295.464844 151.441406 294.75 151.035156 294.769531 C 150.542969 294.792969 149.835938 295.359375 149.6875 295.839844 C 149.578125 296.207031 150.222656 297.21875 150.46875 297.199219 C 151.09375 297.148438 151.683594 296.675781 152.667969 296.179688 Z M 154.738281 292.542969 C 154.261719 291.976562 154.007812 291.386719 153.628906 291.289062 C 153.277344 291.195312 152.785156 291.628906 152.359375 291.828125 C 152.609375 292.339844 152.867188 292.855469 153.117188 293.367188 C 153.558594 293.144531 154 292.917969 154.738281 292.542969 Z M 154.738281 292.542969 " fill-opacity="1" fill-rule="evenodd"/><path fill="#a60000" d="M 361.175781 233.320312 C 364.183594 231.285156 364.972656 227.921875 367.535156 225.402344 C 367.652344 229.535156 365.90625 232.347656 363.394531 234.480469 C 360.9375 236.578125 359.519531 238.914062 359.570312 242.550781 C 363.453125 240.722656 365.769531 237.4375 368.304688 234.238281 C 368.714844 236.523438 368.855469 236.925781 367.488281 238.433594 C 365.652344 240.457031 363.738281 242.671875 361.390625 243.929688 C 358.335938 245.5625 357.253906 247.953125 356.667969 251.761719 C 360.375 248.703125 363.636719 246.015625 367.058594 243.199219 C 367.429688 245.0625 366.640625 246.441406 365.53125 247.429688 C 363.390625 249.328125 361.253906 251.421875 358.730469 252.652344 C 355.472656 254.246094 353.535156 256.523438 352.589844 260.226562 C 357.160156 258.964844 360.796875 256.484375 364.210938 253.289062 C 363.933594 258.65625 354.023438 263.894531 346.890625 262.53125 C 347.558594 262.261719 348.027344 262.050781 348.507812 261.878906 C 351.480469 260.8125 352.734375 258.824219 352.570312 255.46875 C 352.554688 255.121094 352.597656 254.609375 352.816406 254.445312 C 354.8125 252.945312 354.859375 250.59375 355.441406 248.496094 C 355.566406 248.03125 355.160156 247.410156 354.902344 246.550781 C 357.476562 244.957031 357.15625 241.988281 357.789062 238.90625 C 356.355469 239.199219 355.347656 239.40625 354.351562 239.613281 C 357.675781 237.753906 359.367188 235.261719 358.503906 231.136719 C 357.394531 231.847656 356.359375 232.496094 354.703125 233.546875 C 356.65625 229.777344 360.632812 227.535156 359.035156 222.972656 C 357.71875 224.136719 356.355469 225.332031 354.492188 226.980469 C 355.863281 222.394531 360.535156 219.695312 358.761719 214.519531 C 357.546875 216.269531 356.441406 217.855469 355.339844 219.4375 C 355.136719 219.320312 354.933594 219.203125 354.730469 219.078125 C 356.316406 215.636719 357.902344 212.191406 359.675781 208.339844 C 360.175781 210.449219 360.554688 212.078125 361.058594 214.207031 C 361.90625 213.191406 362.472656 212.523438 363.152344 211.710938 C 363.429688 212.21875 363.738281 212.515625 363.691406 212.730469 C 363.324219 214.324219 363.140625 216.03125 362.402344 217.445312 C 361.613281 218.964844 361.527344 220.355469 362.019531 222.347656 C 363.144531 220.640625 364.105469 219.191406 365.0625 217.734375 C 365.269531 217.757812 365.476562 217.785156 365.679688 217.816406 C 365.695312 218.707031 365.933594 219.671875 365.671875 220.472656 C 365.191406 221.933594 364.695312 223.542969 363.710938 224.652344 C 361.53125 227.089844 361.375 229.933594 361.175781 233.320312 Z M 361.175781 233.320312 " fill-opacity="1" fill-rule="evenodd"/><path fill="#a60000" d="M 286.949219 297.90625 C 290.410156 299.285156 292.402344 303.660156 297.277344 302.199219 C 296.007812 300.558594 294.859375 299.078125 293.71875 297.601562 C 293.882812 297.433594 294.050781 297.265625 294.214844 297.101562 C 295.875 298.113281 297.667969 298.96875 299.164062 300.1875 C 301.539062 302.113281 303.933594 301.90625 306.792969 300.800781 C 304.800781 299.125 302.980469 297.597656 301.160156 296.070312 C 301.296875 295.851562 301.4375 295.628906 301.570312 295.410156 C 303.855469 296.535156 306.191406 297.558594 308.40625 298.808594 C 310.652344 300.070312 312.777344 300.066406 315.234375 298.703125 C 313.058594 296.988281 310.996094 295.355469 308.929688 293.730469 C 309.046875 293.558594 309.160156 293.394531 309.273438 293.226562 C 312.050781 294.445312 314.871094 295.585938 317.589844 296.914062 C 319.503906 297.847656 321.109375 297.488281 323.101562 296.265625 C 319.726562 294.53125 315.984375 293.8125 313.648438 289.898438 C 317.011719 291.128906 319.652344 292.234375 322.378906 293.070312 C 325.425781 294.003906 328.539062 295.226562 331.738281 293.570312 C 332.890625 292.972656 332.769531 294.371094 333.128906 294.425781 C 334.285156 294.609375 335.507812 294.445312 337.28125 294.394531 C 336.503906 295.164062 336.101562 295.914062 335.550781 296.042969 C 333.738281 296.46875 331.875 296.882812 330.027344 296.898438 C 328.042969 296.914062 326.332031 297.351562 324.339844 298.90625 C 326.164062 299.433594 327.648438 299.859375 329.375 300.355469 C 327.753906 301.648438 326.066406 301.234375 324.492188 301.175781 C 323.390625 301.136719 322.304688 300.671875 321.210938 300.664062 C 320.257812 300.652344 318.722656 300.730469 318.460938 301.269531 C 317.191406 303.851562 315.074219 303.230469 312.964844 303.296875 C 311.5625 303.347656 309.914062 303.65625 308.855469 304.472656 C 307.066406 305.859375 305.339844 305.726562 303.335938 305.46875 C 301.941406 305.289062 300.472656 305.792969 299.035156 305.777344 C 297.195312 305.761719 295.285156 305.789062 293.523438 305.335938 C 289.710938 304.351562 288.660156 300.832031 286.949219 297.90625 Z M 286.949219 297.90625 " fill-opacity="1" fill-rule="evenodd"/><path fill="#a60000" d="M 214.640625 166.507812 C 214.964844 165.839844 215.289062 165.175781 215.925781 163.859375 C 216.390625 166.097656 216.753906 167.816406 217.171875 169.835938 C 221.332031 167.121094 218.441406 163.210938 219.472656 159.472656 C 220.164062 161.875 220.699219 163.734375 221.242188 165.609375 C 221.800781 165.425781 222.292969 165.265625 223.273438 164.945312 C 222.066406 167.511719 221.027344 169.742188 219.984375 171.960938 C 222.683594 170.777344 224.621094 169.21875 224.144531 166.0625 C 223.769531 163.554688 223.539062 161.015625 223.25 158.492188 C 223.179688 157.886719 223.136719 157.277344 223.011719 155.996094 C 225.738281 159.335938 225.191406 162.746094 225.542969 166.261719 C 226.359375 165.632812 226.980469 165.15625 227.765625 164.554688 C 227.078125 171.398438 219.40625 178.515625 212.671875 178.574219 C 212.945312 177.644531 213.191406 176.792969 213.480469 175.8125 C 213.082031 175.777344 212.765625 175.679688 212.484375 175.742188 C 210.226562 176.246094 207.988281 176.855469 205.714844 177.253906 C 204.964844 177.386719 204.117188 176.996094 202.980469 176.777344 C 204.765625 174.472656 208.707031 176.175781 209.019531 172.125 C 205.628906 173.769531 202.359375 175.089844 198.621094 173.859375 C 199.710938 173.472656 200.796875 173.070312 201.890625 172.699219 C 205.550781 171.453125 205.554688 171.453125 206.007812 167.140625 C 203.949219 167.949219 202.664062 169.261719 202.386719 170.769531 C 201.0625 170.996094 200.078125 171.007812 199.230469 171.34375 C 197.464844 172.035156 195.757812 172.753906 193.773438 171.949219 C 194.296875 169.847656 197.664062 170.933594 197.566406 168.089844 C 195.183594 169.035156 193.347656 171.160156 189.773438 170.53125 C 191.933594 169.183594 193.507812 168.1875 195.101562 167.214844 C 196.703125 166.230469 198.320312 165.269531 200.246094 164.113281 C 199.667969 165.742188 199.214844 167.042969 198.636719 168.699219 C 200.957031 168.320312 202.210938 167.476562 202.558594 165.53125 C 204.847656 166.898438 206.15625 165.152344 208.132812 163.726562 C 207.957031 166.082031 207.816406 167.910156 207.664062 169.929688 C 210.789062 169.84375 210.378906 167.058594 211.40625 164.960938 C 211.722656 165.90625 211.964844 166.621094 212.289062 167.59375 C 213.039062 167.242188 213.785156 166.890625 214.523438 166.542969 C 213.859375 167.414062 213.144531 168.242188 212.550781 169.152344 C 211.675781 170.480469 210.890625 171.871094 209.8125 173.652344 C 214.996094 172.242188 215.945312 170.644531 214.640625 166.507812 Z M 218.914062 171.808594 C 217.402344 173.246094 215.339844 173.574219 215.339844 176.5625 C 216.953125 175.121094 219.222656 174.980469 218.914062 171.808594 Z M 218.914062 171.808594 " fill-opacity="1" fill-rule="evenodd"/><path fill="#a60000" d="M 234.695312 89.28125 C 236.171875 91.605469 233.222656 93.59375 234.808594 95.867188 C 231.917969 97.320312 230.820312 101.289062 226.511719 102.03125 C 227.101562 100.757812 227.527344 99.835938 228.007812 98.796875 C 226.808594 98.214844 225.980469 98.800781 225.132812 99.570312 C 224.234375 100.386719 223.324219 101.230469 222.292969 101.847656 C 221.660156 102.230469 220.789062 102.214844 219.78125 101.796875 C 220.488281 101.003906 221.191406 100.207031 222.03125 99.257812 C 220.953125 98.6875 220.164062 98.910156 219.335938 99.617188 C 218.328125 100.480469 217.285156 101.332031 216.15625 102.019531 C 215.285156 102.550781 214.25 102.824219 213.117188 103.28125 C 212.585938 100.582031 215.367188 100.65625 215.703125 98.929688 C 214.023438 98.058594 212.523438 98.03125 210.972656 99.433594 C 210.039062 100.277344 208.800781 100.789062 207.554688 101.539062 C 206.699219 99.414062 208.800781 99.167969 209.140625 97.855469 C 208.214844 97.050781 207.320312 97.089844 206.324219 97.867188 C 205.535156 98.476562 204.710938 99.066406 203.824219 99.5 C 203.464844 99.671875 202.898438 99.40625 201.722656 99.242188 C 203.601562 97.242188 205.070312 95.683594 206.683594 93.96875 C 204.457031 92.980469 202.777344 92.933594 201.089844 94.648438 C 199.644531 96.121094 197.90625 97.316406 195.3125 96.941406 C 198.511719 93.816406 201.710938 90.679688 204.910156 87.550781 C 205.128906 87.699219 205.347656 87.84375 205.566406 87.988281 C 205.21875 89.171875 204.875 90.355469 204.539062 91.496094 C 207.824219 93.125 209.878906 90.917969 212.34375 89.269531 C 212.074219 90.253906 211.8125 91.246094 211.550781 92.210938 C 214.972656 94.625 215.609375 90.375 218.082031 89.4375 C 217.617188 90.941406 217.269531 92.0625 216.832031 93.492188 C 218.0625 93.832031 219.285156 94.175781 220.691406 94.558594 C 222.152344 92.867188 223.570312 91.230469 225.351562 89.175781 C 225.386719 92.613281 223.390625 94.542969 222.214844 96.929688 C 223.5625 97.820312 224.5 97.136719 225.296875 96.132812 C 226.40625 94.75 227.449219 93.308594 228.53125 91.902344 C 229.035156 91.246094 229.574219 90.605469 230.628906 90.261719 C 229.730469 92.335938 228.832031 94.402344 227.925781 96.480469 C 230.078125 96.480469 230.078125 96.480469 231.703125 93.945312 C 232.660156 92.457031 233.617188 90.96875 234.695312 89.28125 Z M 214.199219 96.945312 C 215.984375 97.089844 217.789062 98.027344 219.328125 95.648438 C 217.300781 95.507812 215.425781 94.242188 214.199219 96.945312 Z M 212.277344 94.964844 C 210.386719 93.820312 209.234375 94.394531 208.46875 96.433594 C 210.269531 97.101562 211.476562 96.664062 212.277344 94.964844 Z M 212.277344 94.964844 " fill-opacity="1" fill-rule="evenodd"/><path fill="#a60000" d="M 189.265625 166.359375 C 187.652344 165.777344 186.066406 165.421875 184.328125 167.695312 C 184.59375 165.4375 184.816406 163.792969 182.492188 163.796875 C 181.847656 164.375 181.144531 165.003906 180.011719 166.023438 C 180.152344 164.546875 180.242188 163.644531 180.390625 162.121094 C 178.980469 162.605469 178.003906 162.9375 177 163.285156 C 176.945312 162.839844 176.855469 162.125 176.683594 160.714844 C 175.503906 161.996094 174.699219 162.867188 173.855469 163.78125 C 172.695312 162.691406 175.242188 160.0625 171.949219 160.042969 C 171.53125 160.839844 171.089844 161.691406 170.3125 163.171875 C 170.03125 161.585938 169.859375 160.601562 169.640625 159.34375 C 169.070312 159.171875 168.378906 158.964844 167.507812 158.707031 C 166.984375 160.238281 166.515625 161.613281 166.042969 162.988281 C 165.824219 162.988281 165.601562 162.996094 165.378906 163 C 165.085938 161.457031 164.792969 159.917969 164.480469 158.300781 C 163.925781 158.195312 163.324219 158.078125 162.664062 157.953125 C 162.507812 159.277344 162.371094 160.414062 162.234375 161.550781 C 162.054688 161.585938 161.878906 161.617188 161.699219 161.648438 C 161.21875 160.335938 160.738281 159.023438 160.210938 157.570312 C 159.03125 157.351562 157.792969 157.113281 156.367188 156.84375 C 156.300781 158.382812 156.242188 159.675781 156.183594 161.140625 C 154.742188 160.683594 154.578125 159.472656 154.445312 158.515625 C 154.132812 156.320312 152.847656 155.871094 150.769531 156.0625 C 150.808594 157.789062 150.851562 159.410156 150.890625 161.027344 C 150.890625 161.023438 150.984375 160.964844 150.988281 160.964844 C 150.652344 160.746094 150.136719 160.605469 150.015625 160.304688 C 148.394531 156.3125 147.707031 152.25 149.710938 148.011719 C 149.972656 150.195312 150.238281 152.382812 150.511719 154.722656 C 151.496094 154.714844 152.351562 154.703125 153.25 154.6875 C 154.261719 152.871094 153.621094 150.394531 155.980469 148.8125 C 156.128906 150.8125 156.253906 152.507812 156.402344 154.558594 C 157.523438 154.65625 158.679688 154.765625 159.910156 154.875 C 160.742188 153.011719 161.523438 151.273438 162.300781 149.53125 C 162.546875 149.601562 162.796875 149.667969 163.042969 149.730469 C 163.015625 151.40625 162.980469 153.089844 162.945312 154.804688 C 166.03125 156.710938 165.957031 152.789062 167.972656 152.167969 C 168.003906 153.324219 168.035156 154.332031 168.066406 155.34375 C 169.980469 156.316406 169.980469 156.316406 172.273438 153.851562 C 172.351562 154.976562 172.414062 155.886719 172.460938 156.574219 C 174.644531 158.515625 175.464844 156.433594 176.636719 155.347656 C 176.871094 156.546875 177.066406 157.554688 177.359375 159.019531 C 178.039062 158.339844 178.390625 158.003906 178.730469 157.648438 C 179.007812 157.355469 179.261719 157.035156 179.9375 156.265625 C 179.945312 157.535156 179.78125 158.285156 180.003906 158.898438 C 180.191406 159.414062 180.820312 159.765625 181.402344 160.339844 C 182.292969 159.441406 183.027344 158.691406 183.933594 157.777344 C 184.882812 159.085938 183.722656 160.171875 183.855469 161.492188 C 184.402344 161.902344 185.074219 162.398438 185.773438 162.929688 C 186.8125 161.898438 187.71875 161.007812 188.839844 159.898438 C 189.707031 161.820312 188.25 162.859375 187.96875 164.257812 C 188.335938 164.914062 188.753906 165.671875 189.167969 166.425781 Z M 189.265625 166.359375 " fill-opacity="1" fill-rule="evenodd"/><path fill="#a60000" d="M 253.96875 123.441406 C 253.003906 120.128906 253.707031 117.578125 254.554688 115.125 C 255.175781 113.339844 255.320312 111.707031 254.339844 109.628906 C 252.152344 112.621094 251.453125 116.0625 250.027344 119.484375 C 249.703125 113.875 252.402344 107.308594 256.753906 103.1875 C 256.046875 105.613281 255.578125 107.742188 257.109375 109.980469 C 257.9375 109.253906 258.71875 108.585938 259.488281 107.910156 C 259.632812 108.003906 259.773438 108.09375 259.917969 108.1875 C 259.265625 109.480469 258.621094 110.765625 257.78125 112.449219 C 258.375 113.410156 259.054688 114.496094 259.886719 115.832031 C 260.996094 114.617188 261.648438 113.910156 262.304688 113.191406 C 262.417969 113.253906 262.535156 113.316406 262.652344 113.378906 C 262.214844 114.410156 261.777344 115.441406 261.253906 116.667969 C 262.089844 117.464844 262.941406 118.273438 263.863281 119.152344 C 265.460938 117.679688 266.871094 116.371094 268.292969 115.0625 C 268.464844 115.195312 268.644531 115.320312 268.820312 115.460938 C 267.964844 117.191406 267.109375 118.917969 266.117188 120.925781 C 267.054688 121.6875 267.953125 122.410156 268.847656 123.140625 C 270.359375 121.527344 271.691406 120.105469 273.027344 118.683594 C 273.199219 118.796875 273.363281 118.910156 273.539062 119.027344 C 272.636719 120.78125 271.730469 122.542969 270.789062 124.394531 C 271.664062 125.054688 272.351562 125.570312 273.199219 126.207031 C 274.960938 124.476562 276.648438 122.8125 278.34375 121.144531 C 278.507812 121.273438 278.675781 121.398438 278.84375 121.523438 C 277.648438 123.359375 276.453125 125.195312 275.144531 127.199219 C 275.960938 127.796875 276.625 128.285156 277.320312 128.796875 C 278.257812 127.84375 279.082031 127.007812 279.910156 126.164062 C 280.03125 126.242188 280.148438 126.324219 280.261719 126.40625 C 278.808594 129.542969 277.347656 132.683594 275.761719 136.109375 C 274.792969 133.761719 276.335938 132.164062 276.738281 130.046875 C 275.972656 129.695312 275.160156 129.328125 274.183594 128.878906 C 273.097656 130.851562 272.148438 132.566406 271.207031 134.28125 C 271.007812 134.21875 270.808594 134.15625 270.613281 134.089844 C 271.15625 132.203125 271.691406 130.3125 272.296875 128.214844 C 271.546875 127.789062 270.71875 127.328125 269.597656 126.695312 C 268.820312 128.382812 268.113281 129.917969 267.40625 131.453125 C 267.261719 131.421875 267.117188 131.390625 266.980469 131.355469 C 267.3125 129.59375 267.648438 127.832031 268.015625 125.90625 C 266.902344 125.179688 265.917969 124.53125 264.765625 123.777344 C 263.859375 125.621094 263.054688 127.257812 262.050781 129.308594 C 261.097656 126.621094 262.5 124.640625 262.574219 122.199219 C 261.875 121.582031 261.015625 120.824219 259.96875 119.894531 C 259.308594 121.925781 258.777344 123.570312 258.242188 125.214844 C 258.011719 125.179688 257.78125 125.144531 257.554688 125.113281 C 257.726562 123.6875 257.664062 122.191406 258.128906 120.875 C 258.863281 118.78125 258.394531 117.261719 256.589844 115.859375 C 254.957031 117.910156 255.097656 120.492188 253.96875 123.441406 Z M 253.96875 123.441406 " fill-opacity="1" fill-rule="evenodd"/><path fill="#a60000" d="M 135.140625 92.691406 C 136.210938 92.714844 137.167969 92.738281 138.175781 92.753906 C 138.015625 90.464844 137.867188 88.324219 137.71875 86.1875 C 137.972656 86.121094 138.230469 86.0625 138.488281 85.996094 C 139.300781 88.148438 140.113281 90.300781 140.996094 92.652344 C 141.964844 92.601562 142.910156 92.558594 143.816406 92.515625 C 144.085938 90.65625 144.328125 88.976562 144.570312 87.296875 C 146.191406 88.679688 145.875 90.589844 146.820312 92.277344 C 147.421875 92.222656 148.125 92.164062 148.90625 92.089844 C 149.230469 90.390625 149.527344 88.835938 149.851562 87.125 C 151.882812 88.457031 149.855469 91.628906 152.921875 92.210938 C 153.28125 90.722656 153.628906 89.320312 153.96875 87.929688 C 155.367188 90.480469 155.964844 92.941406 154.285156 95.417969 C 153.464844 94.828125 153.699219 92.976562 151.71875 93.671875 C 151.59375 94.546875 151.453125 95.558594 151.308594 96.585938 C 149.539062 96.628906 150.054688 92.933594 147.332031 94.621094 C 147.457031 95.511719 147.605469 96.515625 147.859375 98.265625 C 146.554688 96.796875 145.71875 95.855469 144.769531 94.789062 C 144.015625 94.914062 143.179688 95.054688 142.171875 95.230469 C 142.359375 96.199219 142.519531 97.03125 142.734375 98.121094 C 142.273438 97.910156 141.921875 97.863281 141.8125 97.675781 C 140.652344 95.691406 138.984375 95.042969 136.554688 95.734375 C 136.648438 96.511719 136.75 97.328125 136.886719 98.453125 C 136.398438 98.183594 135.976562 98.078125 135.757812 97.804688 C 134.535156 96.304688 133.527344 94.457031 130.8125 95.238281 C 131.257812 96.242188 131.679688 97.171875 132.265625 98.472656 C 128.828125 97.332031 128.394531 93.132812 124.367188 92.519531 C 125.9375 94.652344 127.203125 96.371094 128.851562 98.613281 C 125.320312 97.203125 123.222656 95.121094 121.773438 92.3125 C 121.21875 91.238281 120.496094 90.160156 120.304688 89.007812 C 120.121094 87.890625 120.527344 86.683594 120.984375 85.488281 C 122.433594 87.214844 122.390625 90.050781 125.582031 90.105469 C 125.566406 88.773438 125.554688 87.417969 125.53125 85.636719 C 127.015625 86.695312 127.234375 88.039062 127.660156 89.148438 C 128.429688 91.1875 129.726562 92.1875 131.992188 92.035156 C 132.117188 90.019531 130.910156 87.96875 132.40625 85.511719 C 133.40625 88.140625 134.253906 90.355469 135.140625 92.691406 Z M 135.140625 92.691406 " fill-opacity="1" fill-rule="evenodd"/><path fill="#a60000" d="M 333.597656 275.691406 C 336.410156 275.683594 338.992188 275.847656 341.542969 275.625 C 344.273438 275.390625 346.96875 274.789062 349.683594 274.363281 C 352.230469 273.960938 354.347656 271.957031 357.207031 272.195312 C 354.320312 278.246094 340.140625 280.367188 333.597656 275.691406 Z M 333.597656 275.691406 " fill-opacity="1" fill-rule="evenodd"/><path fill="#a60000" d="M 302.132812 313.347656 C 299.535156 313.367188 296.933594 313.464844 294.332031 313.390625 C 290.472656 313.277344 286.605469 313.046875 282.746094 312.839844 C 282.085938 312.804688 281.355469 312.78125 280.804688 312.476562 C 280.3125 312.207031 279.742188 311.5625 279.738281 311.082031 C 279.738281 310.640625 280.386719 310.097656 280.867188 309.78125 C 281.191406 309.5625 281.722656 309.601562 282.160156 309.617188 C 288.921875 309.871094 295.535156 311.109375 302.132812 312.460938 C 302.132812 312.753906 302.132812 313.046875 302.132812 313.347656 Z M 302.132812 313.347656 " fill-opacity="1" fill-rule="evenodd"/><path fill="#a60000" d="M 362.101562 261.660156 C 362.347656 263.769531 361.347656 264.707031 360.339844 265.480469 C 354.738281 269.792969 348.34375 271.277344 341.378906 270.597656 C 341.234375 270.578125 341.117188 270.34375 340.738281 269.960938 C 348.304688 268.320312 355.601562 266.414062 362.101562 261.660156 Z M 362.101562 261.660156 " fill-opacity="1" fill-rule="evenodd"/><path fill="#a60000" d="M 321.988281 287.96875 C 325.75 288.273438 329.359375 288.789062 332.964844 288.789062 C 336.441406 288.792969 339.925781 288.265625 343.464844 287.96875 C 341.324219 292.574219 326.597656 291.777344 321.988281 287.96875 Z M 321.988281 287.96875 " fill-opacity="1" fill-rule="evenodd"/><path fill="#a60000" d="M 81.402344 302.207031 C 74.863281 301.078125 65.816406 290.652344 66.578125 284.527344 C 70.199219 291.625 75.09375 297.226562 81.402344 302.207031 Z M 81.402344 302.207031 " fill-opacity="1" fill-rule="evenodd"/><path fill="#a60000" d="M 89.847656 304.484375 C 84.261719 303.347656 77.070312 296.089844 75.261719 289.3125 C 77.949219 292.347656 80.058594 294.902344 82.355469 297.277344 C 84.722656 299.730469 87.265625 302.015625 89.847656 304.484375 Z M 89.847656 304.484375 " fill-opacity="1" fill-rule="evenodd"/><path fill="#a60000" d="M 256.433594 97.816406 C 253.683594 103.289062 251.125 108.390625 248.609375 113.398438 C 247.070312 108.855469 251.0625 100.570312 256.433594 97.816406 Z M 256.433594 97.816406 " fill-opacity="1" fill-rule="evenodd"/><path fill="#a60000" d="M 69.183594 298.441406 C 63.214844 293.511719 59.527344 288.109375 58.988281 280.894531 C 62.265625 286.535156 65.546875 292.183594 69.183594 298.441406 Z M 69.183594 298.441406 " fill-opacity="1" fill-rule="evenodd"/><path fill="#a60000" d="M 98.386719 305.386719 C 92.605469 303.296875 87.695312 298.613281 86.660156 293.976562 C 90.6875 297.894531 94.492188 301.601562 98.386719 305.386719 Z M 98.386719 305.386719 " fill-opacity="1" fill-rule="evenodd"/><path fill="#a60000" d="M 189.0625 96.296875 C 192.34375 93.085938 195.328125 90.171875 198.539062 87.03125 C 197.882812 91.429688 192.992188 96.273438 189.0625 96.296875 Z M 189.0625 96.296875 " fill-opacity="1" fill-rule="evenodd"/><path fill="#a60000" d="M 192.113281 87.179688 C 191.5 90.851562 189.816406 93.746094 186.070312 95.367188 C 186.101562 92.753906 187.1875 91.230469 192.113281 87.179688 Z M 192.113281 87.179688 " fill-opacity="1" fill-rule="evenodd"/><path fill="#a60000" d="M 279.8125 303.648438 C 276.152344 303.238281 273.34375 299.230469 272.882812 293.648438 C 275.246094 297.050781 277.46875 300.265625 279.8125 303.648438 Z M 279.8125 303.648438 " fill-opacity="1" fill-rule="evenodd"/><path fill="#a60000" d="M 288.210938 305.988281 C 283.449219 304.613281 280.023438 300.671875 279.8125 296.644531 C 282.507812 299.640625 285.265625 302.710938 288.210938 305.988281 Z M 288.210938 305.988281 " fill-opacity="1" fill-rule="evenodd"/><path fill="#a60000" d="M 329.566406 188.445312 C 325.605469 184.933594 325.261719 182.441406 327.960938 179.523438 C 329.226562 182.234375 329.128906 185.046875 329.566406 188.445312 Z M 329.566406 188.445312 " fill-opacity="1" fill-rule="evenodd"/><path fill="#a60000" d="M 117.144531 86.496094 C 119.121094 89.957031 121.089844 93.425781 123.0625 96.886719 C 119.367188 94.378906 116.921875 91.175781 117.144531 86.496094 Z M 117.144531 86.496094 " fill-opacity="1" fill-rule="evenodd"/><path fill="#a60000" d="M 293.402344 138.035156 C 291.992188 141.425781 290.632812 144.683594 289.285156 147.914062 C 287.882812 144.21875 289.378906 140.5 293.402344 138.035156 Z M 293.402344 138.035156 " fill-opacity="1" fill-rule="evenodd"/><path fill="#a60000" d="M 130.46875 194.386719 C 127.992188 197.527344 125.96875 200.089844 123.78125 202.867188 C 124.125 198.8125 126.664062 195.390625 130.46875 194.386719 Z M 130.46875 194.386719 " fill-opacity="1" fill-rule="evenodd"/><path fill="#a60000" d="M 290.460938 134.589844 C 289.109375 137.347656 287.757812 140.105469 286.203125 143.277344 C 285.761719 139.417969 287.234375 136.003906 289.808594 134.234375 C 290.027344 134.347656 290.246094 134.46875 290.460938 134.589844 Z M 290.460938 134.589844 " fill-opacity="1" fill-rule="evenodd"/><path fill="#a60000" d="M 284.585938 128.785156 C 283.332031 131.558594 282.074219 134.335938 280.773438 137.21875 C 279.414062 134.4375 280.71875 131.269531 284.585938 128.785156 Z M 284.585938 128.785156 " fill-opacity="1" fill-rule="evenodd"/><path fill="#a60000" d="M 188.722656 213.105469 C 187.679688 214.625 186.707031 216.191406 185.566406 217.625 C 185.285156 217.972656 184.453125 217.886719 183.871094 218 C 183.828125 217.398438 183.5 216.519531 183.777344 216.242188 C 185.148438 214.886719 186.679688 213.695312 188.15625 212.441406 C 188.34375 212.664062 188.53125 212.886719 188.722656 213.105469 Z M 188.722656 213.105469 " fill-opacity="1" fill-rule="evenodd"/><path fill="#a60000" d="M 125.039062 132.738281 C 122.488281 135.542969 119.972656 138.316406 117.558594 140.976562 C 118.085938 137.664062 121.035156 134.335938 125.039062 132.738281 Z M 125.039062 132.738281 " fill-opacity="1" fill-rule="evenodd"/><path fill="#a60000" d="M 282.226562 139.214844 C 282.304688 136.59375 283.210938 134.339844 285.292969 132.609375 C 285.546875 132.71875 285.796875 132.828125 286.050781 132.929688 C 285.121094 135.15625 284.1875 137.382812 283.257812 139.609375 C 282.914062 139.476562 282.570312 139.347656 282.226562 139.214844 Z M 282.226562 139.214844 " fill-opacity="1" fill-rule="evenodd"/><path fill="#a60000" d="M 114.9375 85.195312 C 113.578125 82.625 112.191406 80.066406 113.15625 77.183594 C 113.40625 77.152344 113.648438 77.121094 113.890625 77.085938 C 114.242188 79.785156 114.585938 82.488281 114.9375 85.195312 Z M 114.9375 85.195312 " fill-opacity="1" fill-rule="evenodd"/><path fill="#a60000" d="M 185.335938 88.726562 C 185.027344 92.835938 184.945312 92.992188 182.117188 94.820312 C 182.371094 92.355469 183.253906 90.542969 185.335938 88.726562 Z M 185.335938 88.726562 " fill-opacity="1" fill-rule="evenodd"/><path fill="#a60000" d="M 189.167969 166.425781 C 190.546875 165.492188 191.921875 164.546875 193.796875 163.277344 C 192.269531 166.628906 191.304688 167.410156 188.183594 168.066406 C 188.617188 167.382812 188.941406 166.863281 189.265625 166.351562 C 189.265625 166.359375 189.167969 166.425781 189.167969 166.425781 Z M 189.167969 166.425781 " fill-opacity="1" fill-rule="evenodd"/><path fill="#a60000" d="M 167.78125 93.183594 C 167.152344 91.007812 167.109375 89.367188 168.832031 87.671875 C 169.550781 89.828125 169.257812 91.414062 167.78125 93.183594 Z M 167.78125 93.183594 " fill-opacity="1" fill-rule="evenodd"/><path fill="#a60000" d="M 157.867188 93.207031 C 157.648438 91.398438 157.550781 89.601562 159.363281 88.117188 C 159.167969 89.824219 158.976562 91.527344 158.777344 93.234375 C 158.476562 93.222656 158.171875 93.21875 157.867188 93.207031 Z M 157.867188 93.207031 " fill-opacity="1" fill-rule="evenodd"/><path fill="#a60000" d="M 163.558594 87.65625 C 164.203125 90.433594 163.679688 92.277344 162.535156 94.535156 C 161.46875 91.9375 161.824219 90.066406 163.558594 87.65625 Z M 163.558594 87.65625 " fill-opacity="1" fill-rule="evenodd"/><path fill="#a60000" d="M 332.4375 180.085938 C 332.925781 181.273438 333.410156 182.460938 334.039062 184.003906 C 331.265625 182.898438 331.238281 182.851562 332.4375 180.085938 Z M 332.4375 180.085938 " fill-opacity="1" fill-rule="evenodd"/><path fill="#a60000" d="M 131.597656 275.269531 C 132.734375 276.886719 132.273438 278.171875 130.585938 279.679688 C 130.261719 277.773438 130.941406 276.523438 131.597656 275.269531 Z M 131.597656 275.269531 " fill-opacity="1" fill-rule="evenodd"/><path fill="#a60000" d="M 354.597656 210.863281 C 355.21875 208.898438 355.839844 206.925781 356.457031 204.957031 C 356.589844 204.996094 356.722656 205.035156 356.855469 205.074219 C 356.265625 207.113281 355.679688 209.160156 355.089844 211.207031 C 354.933594 211.09375 354.765625 210.976562 354.597656 210.863281 Z M 354.597656 210.863281 " fill-opacity="1" fill-rule="evenodd"/><path fill="#a60000" d="M 156.113281 286.972656 C 155.617188 285.773438 155.117188 284.566406 154.621094 283.371094 C 154.835938 283.285156 155.054688 283.203125 155.269531 283.113281 C 156.222656 284.144531 156.804688 285.316406 156.113281 286.972656 Z M 156.113281 286.972656 " fill-opacity="1" fill-rule="evenodd"/><path fill="#a60000" d="M 171.546875 91.902344 C 171.640625 91.066406 171.738281 90.226562 171.914062 88.671875 C 173.0625 90.363281 172.808594 91.183594 171.546875 91.902344 Z M 171.546875 91.902344 " fill-opacity="1" fill-rule="evenodd"/><path fill="#a60000" d="M 335.621094 181.929688 C 335.441406 181.222656 335.261719 180.507812 335.078125 179.804688 C 335.324219 179.71875 335.570312 179.636719 335.8125 179.554688 C 336.066406 180.25 336.320312 180.945312 336.570312 181.640625 C 336.253906 181.734375 335.9375 181.832031 335.621094 181.929688 Z M 335.621094 181.929688 " fill-opacity="1" fill-rule="evenodd"/><path fill="#a60000" d="M 245.257812 91.527344 C 245.722656 92.011719 246.183594 92.488281 246.644531 92.96875 C 246.484375 93.128906 246.3125 93.289062 246.15625 93.449219 C 245.679688 92.980469 245.214844 92.511719 244.742188 92.035156 C 244.914062 91.871094 245.085938 91.699219 245.257812 91.527344 Z M 245.257812 91.527344 " fill-opacity="1" fill-rule="evenodd"/></svg>