<svg xmlns="http://www.w3.org/2000/svg" xmlns:xlink="http://www.w3.org/1999/xlink" width="500" zoomAndPan="magnify" viewBox="0 0 375 374.999991" height="500" preserveAspectRatio="xMidYMid meet" version="1.0"><defs><clipPath id="356eca1e2c"><path d="M 5 74 L 372 74 L 372 303.46875 L 5 303.46875 Z M 5 74 " clip-rule="nonzero"/></clipPath></defs><path fill="#ffc5d7" d="M 76.511719 212.84375 C 86.660156 202.433594 97.832031 193.007812 109.0625 183.789062 C 110.1875 183.226562 112.988281 180.152344 114.011719 181.347656 C 114.171875 181.726562 113.839844 181.9375 113.59375 182.113281 C 100.839844 191.863281 88.800781 202.519531 76.667969 213.015625 Z M 76.511719 212.84375 " fill-opacity="1" fill-rule="nonzero"/><path fill="#ffc5d7" d="M 86.558594 200.496094 C 87.039062 198.636719 89.863281 197.535156 89.632812 196.023438 C 92.457031 192.75 96.558594 189.859375 99.863281 186.898438 C 100.953125 186.335938 104.429688 182.082031 105.269531 183.4375 C 106.058594 184.371094 106.121094 184.359375 105.027344 185.246094 C 98.871094 190.328125 92.484375 195.144531 86.558594 200.496094 Z M 86.558594 200.496094 " fill-opacity="1" fill-rule="nonzero"/><path fill="#ffc5d7" d="M 59.957031 176.320312 C 53.664062 181.167969 48.289062 187.28125 42.253906 192.5 C 41.417969 191.886719 42.722656 190.859375 43.027344 190.257812 C 47.640625 184.667969 53.128906 178.792969 59.957031 176.320312 Z M 59.957031 176.320312 " fill-opacity="1" fill-rule="nonzero"/><path fill="#ffc5d7" d="M 92.425781 191.539062 C 94.652344 188.882812 97.703125 186.941406 100.125 184.429688 L 99.90625 184.171875 L 91.816406 190.949219 L 91.59375 190.738281 C 94.691406 187.554688 98.214844 184.820312 101.417969 181.753906 C 102.304688 180.917969 103.050781 181.714844 103.824219 181.449219 C 104.371094 181.671875 103.652344 182.441406 103.363281 182.683594 C 99.773438 185.667969 96.382812 189.066406 92.496094 191.617188 Z M 101.664062 182.914062 C 101.125 183.054688 100.742188 183.382812 100.523438 183.894531 C 101.027344 183.710938 101.40625 183.386719 101.664062 182.914062 Z M 101.664062 182.914062 " fill-opacity="1" fill-rule="nonzero"/><path fill="#ffc5d7" d="M 69.097656 171.230469 C 75.714844 168.285156 82.847656 167.726562 90.070312 166.476562 C 89.574219 167.375 88.898438 167.375 88.316406 167.515625 C 81.960938 169.0625 75.308594 169.027344 69.097656 171.230469 Z M 69.097656 171.230469 " fill-opacity="1" fill-rule="nonzero"/><path fill="#ffc5d7" d="M 90.714844 189.972656 C 90.679688 189.453125 91.003906 189.316406 91.207031 189.117188 C 93.949219 186.433594 96.777344 183.84375 99.699219 181.355469 C 100.054688 181.117188 100.597656 180.339844 101.003906 180.847656 C 101.097656 181.125 100.820312 181.453125 100.585938 181.613281 C 97.140625 184.234375 94.105469 187.289062 90.714844 189.972656 Z M 90.714844 189.972656 " fill-opacity="1" fill-rule="nonzero"/><path fill="#ffc5d7" d="M 44.347656 185.292969 C 44.785156 184.269531 50.011719 178.089844 50.894531 179.394531 C 51.058594 179.699219 50.800781 179.890625 50.59375 180.042969 C 48.429688 181.683594 46.453125 183.527344 44.664062 185.578125 Z M 44.347656 185.292969 " fill-opacity="1" fill-rule="nonzero"/><path fill="#ffc5d7" d="M 67.632812 223.351562 C 70.5 224.867188 72.992188 226.875 75.53125 228.773438 C 75.507812 230.367188 68.640625 223.816406 67.632812 223.351562 Z M 67.632812 223.351562 " fill-opacity="1" fill-rule="nonzero"/><path fill="#ffc5d7" d="M 43.15625 183.648438 C 43.28125 182.953125 48.003906 176.902344 47.304688 179.71875 C 45.957031 181.066406 44.550781 182.355469 43.15625 183.648438 Z M 43.15625 183.648438 " fill-opacity="1" fill-rule="nonzero"/><path fill="#ffc5d7" d="M 126.476562 157.882812 C 125.492188 159.667969 124.503906 161.453125 123.398438 163.449219 C 123.507812 161.722656 125.152344 158.484375 126.214844 157.683594 Z M 126.476562 157.882812 " fill-opacity="1" fill-rule="nonzero"/><path fill="#ffc5d7" d="M 63.300781 227.210938 C 61.144531 226.046875 59.710938 223.898438 57.945312 222.238281 C 57.59375 221.859375 57.125 221.523438 57.164062 220.902344 C 59.058594 223.140625 61.363281 225.070312 63.300781 227.210938 Z M 63.300781 227.210938 " fill-opacity="1" fill-rule="nonzero"/><path fill="#ffc5d7" d="M 70.15625 221.714844 C 71.898438 222.472656 73.171875 223.488281 73.925781 224.609375 C 72.96875 224.382812 72.609375 224.113281 70.15625 221.714844 Z M 70.15625 221.714844 " fill-opacity="1" fill-rule="nonzero"/><path fill="#ffc5d7" d="M 70.59375 223.277344 L 74.148438 226.035156 C 72.890625 225.894531 71.625 224.953125 70.59375 223.277344 Z M 70.59375 223.277344 " fill-opacity="1" fill-rule="nonzero"/><path fill="#ffc5d7" d="M 31.242188 188.96875 C 32.347656 189.285156 33.375 189.769531 34.320312 190.417969 C 33.167969 190.203125 32.15625 189.710938 31.277344 188.933594 Z M 31.242188 188.96875 " fill-opacity="1" fill-rule="nonzero"/><path fill="#ffc5d7" d="M 37.621094 195.613281 C 36.808594 194.949219 35.878906 194.417969 35.328125 193.480469 C 36.378906 193.882812 37.144531 194.59375 37.621094 195.613281 Z M 37.621094 195.613281 " fill-opacity="1" fill-rule="nonzero"/><path fill="#ffc5d7" d="M 41.472656 199.734375 C 40.890625 199.042969 40.171875 198.460938 39.738281 197.644531 C 40.484375 198.203125 41.21875 198.769531 41.472656 199.734375 Z M 41.472656 199.734375 " fill-opacity="1" fill-rule="nonzero"/><path fill="#ffc5d7" d="M 56.714844 220.460938 C 55.929688 220.167969 55.5 219.558594 55.222656 218.808594 C 55.898438 219.199219 56.261719 219.871094 56.714844 220.460938 Z M 56.714844 220.460938 " fill-opacity="1" fill-rule="nonzero"/><path fill="#ffc5d7" d="M 64.90625 228.492188 C 64.160156 228.285156 63.601562 227.839844 63.238281 227.15625 C 63.972656 227.378906 64.527344 227.824219 64.90625 228.492188 Z M 64.90625 228.492188 " fill-opacity="1" fill-rule="nonzero"/><path fill="#ffc5d7" d="M 43.5625 201.863281 C 42.929688 201.597656 42.542969 201.132812 42.398438 200.460938 C 42.785156 200.929688 43.175781 201.394531 43.5625 201.863281 Z M 43.5625 201.863281 " fill-opacity="1" fill-rule="nonzero"/><path fill="#ffc5d7" d="M 92.496094 191.617188 C 92.34375 192.113281 91.863281 192.214844 91.425781 192.644531 C 91.449219 192.367188 91.550781 192.125 91.738281 191.917969 C 91.925781 191.714844 92.152344 191.585938 92.425781 191.539062 Z M 92.496094 191.617188 " fill-opacity="1" fill-rule="nonzero"/><path fill="#ffc5d7" d="M 31.277344 188.933594 C 30.710938 189.179688 30.328125 188.75 29.894531 188.519531 C 30.40625 188.480469 30.855469 188.632812 31.238281 188.972656 Z M 31.277344 188.933594 " fill-opacity="1" fill-rule="nonzero"/><path fill="#ffc5d7" d="M 54.316406 217.59375 C 54.03125 217.445312 53.796875 217.238281 53.621094 216.972656 C 53.441406 216.707031 53.339844 216.414062 53.3125 216.09375 C 53.800781 216.492188 54.132812 216.992188 54.316406 217.59375 Z M 54.316406 217.59375 " fill-opacity="1" fill-rule="nonzero"/><path fill="#ffc5d7" d="M 55.277344 218.875 C 54.714844 218.597656 54.375 218.144531 54.261719 217.527344 C 54.773438 217.84375 55.113281 218.292969 55.277344 218.875 Z M 55.277344 218.875 " fill-opacity="1" fill-rule="nonzero"/><path fill="#ffc5d7" d="M 66.339844 229.4375 C 66.015625 229.425781 65.71875 229.332031 65.449219 229.152344 C 65.179688 228.972656 64.976562 228.734375 64.839844 228.4375 C 65.484375 228.550781 65.914062 228.992188 66.339844 229.4375 Z M 66.339844 229.4375 " fill-opacity="1" fill-rule="nonzero"/><path fill="#ffc5d7" d="M 109.691406 226.332031 C 105.082031 224.546875 100.433594 223.863281 95.585938 225.203125 C 97.027344 221.730469 108.414062 223.058594 109.691406 226.332031 Z M 109.691406 226.332031 " fill-opacity="1" fill-rule="nonzero"/><path fill="#ffc5d7" d="M 122.714844 252.074219 C 119.84375 251 117.257812 249.457031 114.566406 248.058594 C 114.460938 248.019531 114.390625 247.945312 114.359375 247.835938 C 114.328125 247.726562 114.34375 247.628906 114.410156 247.539062 C 115 247.039062 115.90625 248.25 116.4375 247.9375 C 116.925781 246.445312 117.480469 247.765625 117.871094 247.953125 C 118.574219 248.335938 119.234375 248.785156 119.847656 249.296875 C 120.328125 249.664062 120.875 249.878906 121.082031 250.636719 C 121.269531 251.324219 122.292969 251.417969 122.714844 252.074219 Z M 122.714844 252.074219 " fill-opacity="1" fill-rule="nonzero"/><path fill="#ffc5d7" d="M 110.820312 246.957031 C 115.015625 248.851562 118.933594 251.1875 122.78125 253.65625 C 118.628906 251.8125 114.277344 249.949219 110.820312 246.957031 Z M 110.820312 246.957031 " fill-opacity="1" fill-rule="nonzero"/><path fill="#ffc5d7" d="M 92.339844 237.128906 C 94.449219 239.113281 96.621094 241.027344 98.910156 243.082031 C 96.734375 242.28125 92.644531 238.644531 92.339844 237.128906 Z M 92.339844 237.128906 " fill-opacity="1" fill-rule="nonzero"/><path fill="#ffc5d7" d="M 122.46875 250.023438 C 119.992188 248.972656 118.148438 247.417969 117.617188 246.238281 C 119.351562 246.875 120.835938 248.902344 122.46875 250.023438 Z M 122.46875 250.023438 " fill-opacity="1" fill-rule="nonzero"/><path fill="#ffc5d7" d="M 103.019531 227.28125 C 104.363281 226.917969 108.042969 226.789062 108.078125 228.164062 C 107.984375 228.367188 107.746094 228.359375 107.523438 228.308594 C 106.140625 227.988281 104.757812 227.675781 103.019531 227.28125 Z M 103.019531 227.28125 " fill-opacity="1" fill-rule="nonzero"/><path fill="#ffc5d7" d="M 104.992188 229.222656 C 106.03125 229.128906 106.746094 228.945312 107.542969 229.574219 C 106.617188 229.917969 105.964844 229.640625 104.992188 229.222656 Z M 104.992188 229.222656 " fill-opacity="1" fill-rule="nonzero"/><g clip-path="url(#356eca1e2c)"><path fill="#ffc5d7" d="M 238.21875 303.226562 C 207.304688 300.46875 180.25 282.675781 151.25 272.933594 C 132.054688 268.597656 113.191406 264.007812 95.71875 254.414062 C 76.25 245.359375 55.148438 240.386719 34.925781 233.289062 C 29.414062 231.503906 24.160156 229.140625 19.171875 226.199219 C 7.871094 219.886719 1.269531 204.523438 8.320312 192.792969 C 16.355469 181.394531 29.460938 174.816406 40.414062 166.5625 C 78.367188 140.71875 115.828125 114.140625 151.820312 85.605469 C 157.089844 81.820312 162.121094 77.460938 168.226562 75.070312 C 176.039062 71.746094 183.429688 77.308594 190.300781 80.480469 C 200.296875 86.046875 206.425781 96.335938 214.886719 103.757812 C 215.949219 104.589844 215.976562 104.585938 217.078125 103.808594 C 224.472656 98.625 231.726562 93.234375 239.300781 88.316406 C 245 85.359375 252.015625 87.722656 256.890625 91.257812 C 266.292969 97.296875 271.035156 107.65625 279.40625 114.707031 C 294.421875 127.933594 310.675781 139.683594 328.285156 149.222656 C 341.890625 157.242188 374.992188 169.15625 371.761719 188.472656 C 371.394531 190.921875 370.394531 193.070312 369.085938 195.105469 C 354.890625 214.296875 337.425781 230.902344 321.65625 248.796875 C 299.085938 273.085938 273.742188 301.757812 238.21875 303.226562 Z M 193.800781 287.777344 C 195.554688 289.039062 197.882812 289.289062 199.753906 290.355469 C 200.785156 291.023438 202.042969 291.003906 203.101562 291.640625 C 203.761719 292.257812 204.640625 292.335938 205.5 292.296875 C 205.632812 293.042969 206.320312 293.058594 206.832031 293.269531 C 217.988281 297.484375 229.8125 301.910156 241.921875 300.859375 C 289.511719 294.679688 320.929688 242.96875 352.917969 211.25 C 358.355469 204.269531 373.011719 192.992188 367.175781 183.363281 C 364.148438 178.859375 359.476562 175.71875 356.949219 170.875 C 355.46875 167.683594 352.53125 165.921875 349.914062 163.789062 C 347.59375 161.332031 344.457031 160.105469 341.523438 158.585938 C 319.203125 147.871094 298.121094 134.46875 279.683594 117.886719 C 287.695312 133.976562 305.429688 142.21875 318.160156 154.238281 C 324.824219 159.996094 328.574219 168.777344 323.949219 177.070312 C 313.09375 197.335938 294.960938 212.347656 277.410156 226.636719 C 256.074219 242.78125 234.738281 259.40625 211.601562 272.855469 C 208.195312 274.410156 204.761719 275.914062 201.046875 276.5625 C 185.386719 279.0625 169.757812 274.015625 155.605469 267.6875 C 129.648438 258.113281 115.460938 210.839844 91.910156 221.59375 C 92.050781 220.75 92.882812 220.765625 93.472656 220.421875 C 97.761719 218.507812 102.136719 219.6875 106.429688 220.332031 C 101.957031 216.765625 96.320312 216.574219 90.945312 217.738281 C 87.25 219.523438 85.785156 224.136719 86.527344 228.03125 C 88.410156 240.617188 100.222656 246.902344 110.113281 252.945312 C 118.535156 257.570312 127.359375 262.125 136.480469 264.835938 C 126.28125 260.011719 116.144531 254.925781 106.8125 248.554688 C 106.121094 247.960938 104.507812 247.027344 105.148438 246 C 117.488281 252.695312 130.386719 259.722656 142.585938 267.121094 C 158.085938 273.496094 173.90625 279.582031 189.375 285.914062 L 189.308594 285.851562 C 189.957031 286.46875 190.730469 286.804688 191.625 286.855469 L 191.554688 286.8125 C 192.214844 287.398438 192.988281 287.734375 193.871094 287.820312 Z M 219.640625 104.292969 C 216.339844 105.671875 213.429688 108.226562 210.492188 110.332031 C 209.324219 112.65625 206.484375 113.320312 204.390625 114.660156 C 199.835938 117.25 195.339844 119.929688 191.199219 123.15625 C 163.019531 146.097656 135.0625 169.332031 107.132812 192.585938 C 98.832031 200.589844 75.34375 216.347656 81.25 229.074219 C 80.628906 218.035156 91.289062 213.265625 100.9375 215.511719 C 121.476562 221.734375 131.382812 252.148438 151.472656 262.96875 C 162.984375 268.777344 177.183594 274.949219 190.234375 274.300781 C 200.378906 271.527344 209.675781 266.269531 219.269531 262.058594 C 224.859375 259.378906 230.308594 256.375 235.152344 252.460938 C 256.0625 234.703125 323.027344 193.0625 323.34375 165.878906 C 318.957031 150.039062 289.152344 140.378906 278.503906 120.988281 C 270.972656 110.132812 258.789062 87.625 243.484375 89.613281 C 234.710938 92.714844 227.855469 99.449219 220.191406 104.445312 C 220.042969 104.273438 219.859375 104.222656 219.640625 104.292969 Z M 247.421875 245.792969 C 268.53125 230.882812 309.921875 201.789062 319.996094 178.828125 C 313.34375 190.570312 302.859375 199.078125 293.191406 208.222656 C 279.121094 222.128906 262.832031 233.644531 247.410156 245.78125 C 246.851562 245.792969 246.574219 246.179688 246.320312 246.601562 C 246.800781 246.488281 247.261719 246.347656 247.417969 245.792969 Z M 66.855469 229.953125 C 72.597656 232.296875 78.457031 235.855469 84.054688 237.898438 C 82.871094 236.15625 78.613281 234.628906 76.59375 233.558594 C 73.183594 232.1875 70.179688 230.15625 67.425781 227.753906 C 57.96875 219.4375 49.96875 209.667969 42.789062 199.359375 C 40.765625 196.441406 38.582031 193.699219 35.632812 191.648438 C 35.558594 191.597656 35.304688 191.480469 35.699219 191.238281 C 39.8125 193.890625 43.222656 197.484375 46.238281 201.304688 C 56.636719 213.703125 67.203125 227.910156 81.894531 235.015625 C 75.792969 226.023438 78.574219 216.75 85.792969 209.445312 C 95.863281 198.636719 107.460938 189.421875 118.769531 179.96875 C 119.222656 179.605469 119.75 179.300781 119.917969 178.675781 C 123.351562 168.898438 128.980469 159.84375 136.875 153.035156 C 142.0625 148.691406 147.589844 144.539062 151.25 138.734375 C 156.9375 130.90625 159.160156 120.425781 168.273438 115.585938 C 168.558594 115.402344 168.859375 115.074219 169.261719 115.421875 C 165.78125 118.808594 161.535156 121.640625 159.429688 126.246094 C 157.707031 129.761719 155.632812 133.035156 153.535156 136.324219 C 148.34375 144.953125 139.972656 150.785156 133.835938 158.628906 C 129.496094 164.660156 124.367188 170.90625 121.585938 177.632812 C 150.761719 154.628906 178.125 129.109375 209.425781 109.1875 C 209.269531 108.410156 208.507812 108.15625 208.421875 107.445312 C 209.207031 107.496094 209.527344 108.5625 210.441406 108.386719 C 210.132812 107.609375 209.3125 107.320312 209.050781 106.464844 C 209.957031 106.703125 210.449219 107.664062 211.730469 107.710938 C 210.597656 106.453125 209.476562 105.582031 208.613281 104.273438 C 210.039062 104.375 211.710938 107.140625 212.742188 106.746094 C 213.019531 106.449219 212.722656 106.273438 212.53125 106.105469 C 210.113281 103.949219 207.53125 101.9375 205.636719 99.269531 C 208.15625 100.847656 211.949219 105.476562 214.515625 105.640625 C 204.769531 98.421875 199.96875 85.996094 188.875 80.414062 C 182.707031 77.519531 176.050781 73.351562 169.207031 76.628906 C 163.71875 78.816406 159.152344 82.703125 154.410156 86.132812 C 109.457031 123.019531 59.75 153.601562 13.25 188.210938 C 14.980469 188.128906 16.585938 187.082031 18.398438 187.050781 C 21.214844 186.628906 24.0625 187.15625 26.816406 187.480469 C 26.527344 188.480469 27.464844 188.320312 27.894531 188.515625 C 30.515625 189.882812 33.550781 191.214844 35.390625 193.53125 C 18.460938 180.902344 0.0078125 192.332031 8.949219 212.824219 C 14.605469 224.550781 28.574219 229.316406 40.207031 232.519531 C 32.125 228.144531 23.054688 224.632812 16.714844 217.640625 C 16.496094 217.398438 16.117188 217.167969 16.367188 216.71875 C 19.277344 218.691406 21.953125 221.042969 25.121094 222.667969 C 32.464844 226.511719 39.925781 230.867188 47.714844 233.417969 C 42.988281 230.675781 38.308594 228.101562 33.914062 225.0625 C 41.257812 228.824219 48.199219 233.316406 55.757812 236.707031 C 64.628906 240.878906 74.042969 243.515625 83.300781 246.636719 C 103.339844 254.367188 121.347656 267.484375 143.175781 270.132812 C 128.871094 264.238281 114.441406 258.367188 101.355469 249.863281 C 98.9375 248.609375 96.460938 247.46875 94.148438 246.015625 C 88.472656 244.589844 82.757812 243.171875 77.199219 241.273438 C 68.515625 239.238281 61.601562 233.414062 55.292969 227.363281 C 48.242188 220.605469 43.328125 211.992188 35.988281 205.519531 C 31.617188 201.542969 26.472656 199.269531 20.640625 198.5 C 13.332031 197.105469 12.636719 205.253906 12.421875 210.59375 C 11.945312 205.582031 12.589844 197.566406 19.140625 197.554688 C 21.96875 197.589844 24.71875 198.074219 27.386719 199.007812 C 30.058594 199.941406 32.507812 201.277344 34.742188 203.011719 C 39.03125 206.347656 42.761719 210.238281 46.207031 214.410156 C 55.363281 224.582031 65.097656 235.78125 78.230469 240.628906 C 82.171875 241.859375 85.535156 243.125 89.769531 243.859375 C 82.058594 239.308594 74.703125 234.242188 66.855469 229.953125 Z M 194.925781 274.453125 C 204.007812 275.9375 220.859375 266.292969 226.359375 259.515625 C 215.953125 264.816406 205.648438 269.640625 194.925781 274.453125 Z M 363 175.855469 C 361.628906 170.640625 356.195312 165.15625 351.34375 164.027344 C 356.222656 167.234375 357.796875 173.03125 363 175.855469 Z M 86.160156 222.414062 C 84.132812 225.050781 84.097656 230.691406 87.226562 233.65625 C 85.105469 226.960938 85.6875 225.773438 86.160156 222.414062 Z M 321.144531 176.605469 L 321.445312 176.726562 C 322.324219 175.207031 323.109375 173.648438 323.1875 171.796875 C 322.503906 173.398438 321.824219 175.003906 321.144531 176.605469 Z M 321.144531 176.605469 " fill-opacity="1" fill-rule="nonzero"/></g><path fill="#ffc5d7" d="M 189.375 285.914062 C 186.949219 284.15625 183.636719 283.414062 180.921875 281.972656 C 180.371094 281.726562 179.6875 281.582031 179.460938 280.808594 C 180.238281 280.484375 180.839844 280.925781 181.4375 281.191406 C 186.390625 283.421875 191.328125 285.6875 196.28125 287.921875 C 199.046875 289.171875 201.828125 290.386719 204.597656 291.632812 C 204.933594 291.785156 205.425781 291.769531 205.496094 292.296875 L 204.929688 292.300781 C 202.574219 291.257812 200.167969 290.347656 197.714844 289.570312 C 197.1875 288.726562 196.273438 288.878906 195.464844 288.617188 C 195.085938 287.988281 194.46875 287.835938 193.800781 287.777344 L 193.871094 287.820312 C 193.210938 287.226562 192.441406 286.890625 191.554688 286.816406 L 191.628906 286.859375 C 190.984375 286.230469 190.210938 285.894531 189.308594 285.855469 Z M 189.375 285.914062 " fill-opacity="1" fill-rule="nonzero"/><path fill="#ffc5d7" d="M 218.507812 105.65625 C 218.628906 104.984375 219.480469 104.925781 219.640625 104.292969 C 219.859375 104.21875 220.039062 104.269531 220.191406 104.441406 C 219.753906 105.019531 219.195312 105.421875 218.507812 105.65625 Z M 218.507812 105.65625 " fill-opacity="1" fill-rule="nonzero"/><path fill="#ffc5d7" d="M 210.085938 111 C 210.570312 110.804688 210.972656 110.40625 211.542969 110.421875 C 211.09375 110.925781 210.539062 111.261719 209.886719 111.429688 Z M 210.085938 111 " fill-opacity="1" fill-rule="nonzero"/><path fill="#ffc5d7" d="M 224.707031 112.394531 C 208.179688 132.097656 182.675781 143.164062 170.304688 166.421875 C 166.667969 171.765625 163.929688 180.421875 157.1875 182.324219 C 153.828125 182.554688 152.332031 185.664062 149.640625 187.136719 C 147.703125 188.253906 143.9375 187.4375 144.246094 184.929688 C 146.789062 188.382812 149.167969 186.976562 151.996094 184.570312 C 153.480469 183.222656 155.085938 182.164062 157.125 181.777344 C 165.035156 178.480469 167.707031 165.636719 172.824219 158.957031 C 183.851562 141.535156 202.558594 131.199219 217.476562 117.457031 C 219.941406 115.679688 221.765625 113.558594 224.707031 112.394531 Z M 224.707031 112.394531 " fill-opacity="1" fill-rule="nonzero"/><path fill="#ffc5d7" d="M 239.179688 233.289062 C 242.015625 229.195312 246.375 226.800781 249.996094 223.503906 C 256.523438 218.980469 257.601562 210.664062 263.140625 205.378906 C 272.75 194.871094 279.660156 188.042969 277.398438 172.894531 C 277.910156 173 277.855469 173.429688 277.910156 173.773438 C 278.535156 177.53125 278.808594 181.304688 278.175781 185.089844 C 276.394531 193.3125 269.96875 199.589844 264.742188 205.851562 C 262.621094 208.175781 260.894531 210.636719 259.84375 213.636719 C 256.5 222.914062 247.640625 228.992188 239.179688 233.289062 Z M 239.179688 233.289062 " fill-opacity="1" fill-rule="nonzero"/><path fill="#ffc5d7" d="M 260.507812 126.125 C 267.796875 132.542969 274.726562 139.351562 282.640625 145.019531 C 289.808594 150.714844 296.84375 158.664062 296.699219 168.316406 C 296.84375 172.527344 298.054688 180.410156 301.855469 182.714844 C 299.242188 183.742188 297.800781 180.980469 296.820312 179.125 C 292.988281 172.410156 295.972656 164.132812 291.839844 157.523438 C 286.179688 146.621094 274.332031 141.503906 266.386719 132.566406 C 264.617188 130.304688 261.449219 128.886719 260.507812 126.125 Z M 260.507812 126.125 " fill-opacity="1" fill-rule="nonzero"/><path fill="#ffc5d7" d="M 144.722656 246.691406 C 138.535156 245.039062 133.378906 235.695312 129.867188 230.554688 C 123.730469 221.859375 121.375 207.492188 109.1875 205.496094 C 108.441406 205.433594 107.019531 205.402344 106.976562 204.390625 C 107.050781 204.117188 107.28125 204.140625 107.484375 204.160156 C 123.667969 205.878906 132.472656 236.722656 144.722656 246.691406 Z M 144.722656 246.691406 " fill-opacity="1" fill-rule="nonzero"/><path fill="#ffc5d7" d="M 205.945312 265.964844 C 202.066406 268.21875 198.042969 270.171875 193.871094 271.828125 C 193.4375 272.003906 192.796875 272.335938 192.597656 271.8125 C 192.359375 271.183594 193.136719 271.195312 193.535156 271.050781 C 197.742188 269.527344 201.742188 267.496094 205.945312 265.964844 Z M 205.945312 265.964844 " fill-opacity="1" fill-rule="nonzero"/><path fill="#ffc5d7" d="M 224.8125 117.429688 C 224.75 117.0625 225.398438 116.792969 225.207031 116.160156 C 224.167969 116.675781 223.597656 117.707031 222.582031 118.289062 C 222.25 117.847656 227.375 111.851562 227.710938 112.875 C 228.003906 113.105469 228.304688 114.320312 228.105469 114.5 C 227 115.5 225.878906 116.484375 224.8125 117.429688 Z M 224.8125 117.429688 " fill-opacity="1" fill-rule="nonzero"/><path fill="#ffc5d7" d="M 235.335938 97.121094 C 235.699219 96.195312 245.234375 89.761719 245.660156 90.9375 C 245.808594 91.265625 245.519531 91.410156 245.296875 91.542969 C 241.992188 93.285156 238.617188 95.734375 235.335938 97.121094 Z M 235.335938 97.121094 " fill-opacity="1" fill-rule="nonzero"/><path fill="#ffc5d7" d="M 200.171875 266.96875 C 199.882812 267.632812 190.890625 272.101562 192.921875 269.699219 C 195.320312 268.742188 197.757812 267.886719 200.171875 266.96875 Z M 200.171875 266.96875 " fill-opacity="1" fill-rule="nonzero"/><path fill="#ffc5d7" d="M 195.050781 265.335938 L 194.335938 266.160156 C 194.800781 266.550781 195.179688 265.785156 195.609375 266.09375 C 195.902344 266.683594 190.328125 269.058594 191.757812 267.328125 C 191.863281 267.238281 192.324219 267.265625 191.972656 266.984375 C 190.625 266.199219 194.308594 265.769531 195.050781 265.335938 Z M 195.050781 265.335938 " fill-opacity="1" fill-rule="nonzero"/><path fill="#ffc5d7" d="M 227.261719 117.75 C 227.914062 116.863281 229.261719 113.71875 230.457031 113.949219 C 230.84375 114.210938 230.570312 114.527344 230.382812 114.757812 C 229.863281 115.234375 227.730469 118.390625 227.261719 117.75 Z M 227.261719 117.75 " fill-opacity="1" fill-rule="nonzero"/><path fill="#ffc5d7" d="M 246.859375 91.835938 C 244.726562 93.289062 242.660156 94.171875 240.59375 95.417969 C 241.765625 93.957031 245.152344 91.957031 246.859375 91.835938 Z M 246.859375 91.835938 " fill-opacity="1" fill-rule="nonzero"/><path fill="#ffc5d7" d="M 193.316406 268.234375 L 197.703125 266.414062 C 196.644531 267.601562 194.703125 268.5 193.316406 268.234375 Z M 193.316406 268.234375 " fill-opacity="1" fill-rule="nonzero"/><path fill="#ffc5d7" d="M 248.121094 93.75 C 247.535156 94.289062 246.855469 94.664062 246.085938 94.871094 C 246.617188 94.226562 247.296875 93.855469 248.121094 93.75 Z M 248.121094 93.75 " fill-opacity="1" fill-rule="nonzero"/><path fill="#ffc5d7" d="M 245.386719 94.132812 C 245.964844 93.578125 246.289062 93.359375 246.832031 93.308594 C 246.566406 93.832031 246.109375 93.847656 245.386719 94.132812 Z M 245.386719 94.132812 " fill-opacity="1" fill-rule="nonzero"/><path fill="#ffc5d7" d="M 217.242188 106.773438 C 217.371094 106.023438 217.914062 105.746094 218.574219 105.601562 C 218.316406 106.199219 217.679688 106.375 217.242188 106.773438 Z M 217.242188 106.773438 " fill-opacity="1" fill-rule="nonzero"/><path fill="#ffc5d7" d="M 166.304688 82.699219 C 136.6875 106.226562 105.765625 128.097656 74.972656 149.964844 C 104.421875 126.414062 135.378906 104.140625 166.304688 82.699219 Z M 166.304688 82.699219 " fill-opacity="1" fill-rule="nonzero"/><path fill="#ffc5d7" d="M 121.605469 169.164062 C 122.8125 165.378906 127.777344 156.863281 129.246094 155.933594 C 129.566406 156.191406 129.148438 156.628906 129.035156 156.914062 C 126.40625 160.90625 124.113281 165.097656 121.605469 169.164062 Z M 121.605469 169.164062 " fill-opacity="1" fill-rule="nonzero"/><path fill="#ffc5d7" d="M 178.378906 78.820312 L 168.648438 84.203125 C 169.859375 82.84375 176.894531 78.753906 178.378906 78.820312 Z M 178.378906 78.820312 " fill-opacity="1" fill-rule="nonzero"/><path fill="#ffc5d7" d="M 178.601562 80.011719 L 171.355469 83.78125 C 172.730469 82.335938 177.320312 79.875 178.601562 80.011719 Z M 178.601562 80.011719 " fill-opacity="1" fill-rule="nonzero"/><path fill="#ffc5d7" d="M 186.488281 121.371094 C 187.691406 120.566406 192.261719 117.808594 193.390625 118.792969 C 191.132812 119.785156 188.824219 120.632812 186.464844 121.339844 Z M 186.488281 121.371094 " fill-opacity="1" fill-rule="nonzero"/><path fill="#ffc5d7" d="M 173.605469 78.84375 C 172.339844 79.910156 170.277344 80.148438 168.609375 80.960938 C 169.878906 79.589844 172.070312 78.695312 173.605469 78.84375 Z M 173.605469 78.84375 " fill-opacity="1" fill-rule="nonzero"/><path fill="#ffc5d7" d="M 174.726562 82.574219 C 176.226562 81.757812 177.660156 80.800781 179.292969 80.253906 L 179.441406 80.542969 L 174.910156 82.839844 Z M 174.726562 82.574219 " fill-opacity="1" fill-rule="nonzero"/><path fill="#ffc5d7" d="M 179.074219 83.15625 L 182.167969 81.207031 L 182.335938 81.480469 C 181.433594 82.335938 180.296875 82.816406 179.074219 83.15625 Z M 179.074219 83.15625 " fill-opacity="1" fill-rule="nonzero"/><path fill="#ffc5d7" d="M 180.21875 81.058594 C 179.4375 81.824219 178.042969 82.730469 176.917969 82.726562 C 177.914062 81.96875 179.015625 81.410156 180.21875 81.058594 Z M 180.21875 81.058594 " fill-opacity="1" fill-rule="nonzero"/><path fill="#ffc5d7" d="M 186.464844 121.339844 C 186.050781 121.957031 185.335938 121.910156 184.773438 122.191406 C 185.277344 121.761719 185.746094 121.246094 186.488281 121.371094 Z M 186.464844 121.339844 " fill-opacity="1" fill-rule="nonzero"/><path fill="#ffc5d7" d="M 335.53125 174.132812 C 338.253906 177.34375 336.605469 181.664062 336.472656 185.402344 C 334.089844 203.484375 321.363281 217.761719 312.714844 233.238281 C 307.320312 242.089844 302.894531 251.582031 295.546875 259.070312 C 292.710938 261.773438 290.945312 265.410156 287.949219 267.945312 C 284.878906 270.53125 281.625 272.867188 278.191406 274.949219 C 277.945312 275.097656 277.710938 275.421875 277.332031 275.164062 C 281.632812 271.296875 287.710938 268.953125 290.753906 263.769531 C 296.699219 255.660156 303.246094 248.027344 307.433594 238.757812 C 309.710938 234.152344 312.535156 229.859375 315.144531 225.445312 C 325.480469 207.902344 335.050781 195.5625 335.53125 174.132812 Z M 335.53125 174.132812 " fill-opacity="1" fill-rule="nonzero"/><path fill="#ffc5d7" d="M 275.816406 253.507812 C 277.089844 255.652344 260.953125 263.40625 258.675781 263.722656 C 249.847656 266.519531 241.808594 273.085938 232.207031 272.746094 C 238.078125 269.777344 244.746094 268.140625 250.554688 264.769531 C 253.269531 263.375 256.105469 262.28125 259.054688 261.484375 C 265.058594 259.710938 270.324219 256.460938 275.816406 253.507812 Z M 275.816406 253.507812 " fill-opacity="1" fill-rule="nonzero"/><path fill="#ffc5d7" d="M 263.527344 291.117188 C 256.167969 298.613281 237.085938 300.671875 227.046875 297.6875 C 226.328125 297.53125 226.308594 296.585938 227.136719 296.636719 C 243.0625 298.035156 249.019531 295.9375 263.527344 291.117188 Z M 263.527344 291.117188 " fill-opacity="1" fill-rule="nonzero"/><path fill="#ffc5d7" d="M 359.984375 183.300781 C 357.507812 182.847656 346.4375 167.667969 347.605469 165.84375 C 348.230469 165.46875 348.597656 166.246094 348.949219 166.671875 C 352.210938 172.46875 355.65625 178.226562 359.984375 183.300781 Z M 359.984375 183.300781 " fill-opacity="1" fill-rule="nonzero"/><path fill="#ffc5d7" d="M 329.667969 184.71875 C 330.101562 188.011719 328.878906 191.46875 327.519531 194.472656 C 325.484375 197.511719 327.269531 201.691406 324.0625 204.101562 C 323.953125 204.234375 323.8125 204.304688 323.640625 204.316406 C 323.472656 204.328125 323.324219 204.28125 323.195312 204.164062 C 322.476562 203.613281 323.332031 202.78125 323.625 202.214844 C 324.90625 200.285156 325.808594 198.195312 326.335938 195.945312 C 327.457031 192.5 328.714844 189.105469 329.292969 185.511719 C 329.296875 185.191406 329.421875 184.925781 329.667969 184.71875 Z M 329.667969 184.71875 " fill-opacity="1" fill-rule="nonzero"/><path fill="#ffc5d7" d="M 241.28125 294.988281 C 238.355469 296.722656 231.410156 296.929688 228.324219 295.597656 C 227.695312 295.277344 227.886719 294.347656 228.652344 294.519531 C 232.855469 295.351562 237.113281 294.714844 241.28125 294.988281 Z M 241.28125 294.988281 " fill-opacity="1" fill-rule="nonzero"/><path fill="#ffc5d7" d="M 199.53125 278.332031 C 205.011719 277.792969 210.203125 276.832031 215.210938 274.355469 C 213.597656 276.871094 201.535156 280.917969 199.53125 278.332031 Z M 199.53125 278.332031 " fill-opacity="1" fill-rule="nonzero"/><path fill="#ffc5d7" d="M 316.171875 214.128906 C 316.5 215.027344 315.882812 215.558594 315.492188 216.113281 C 312.066406 220.699219 308.953125 225.625 305.300781 229.992188 C 305.5625 229.195312 315.21875 215.078125 316.171875 214.128906 Z M 316.171875 214.128906 " fill-opacity="1" fill-rule="nonzero"/><path fill="#ffc5d7" d="M 354.785156 181.003906 C 353.894531 181.066406 346.839844 171.585938 347.691406 171.203125 C 348.453125 170.046875 353.757812 179.925781 354.785156 181.003906 Z M 354.785156 181.003906 " fill-opacity="1" fill-rule="nonzero"/><path fill="#ffc5d7" d="M 228.878906 291.726562 C 230.171875 291.992188 231.410156 292.296875 232.683594 292.242188 C 232.738281 292.769531 232.140625 292.566406 232.121094 293.058594 C 232.996094 293.429688 234.011719 293.15625 234.941406 293.503906 C 233.070312 294.199219 231.164062 294.3125 229.222656 293.839844 C 228.886719 293.757812 228.617188 293.464844 228.765625 293.125 C 228.953125 292.695312 228.585938 292.289062 228.878906 291.726562 Z M 228.878906 291.726562 " fill-opacity="1" fill-rule="nonzero"/><path fill="#ffc5d7" d="M 184.167969 280.492188 L 194.867188 285.925781 L 194.71875 286.214844 C 191.054688 284.566406 187.261719 283.1875 183.914062 280.90625 Z M 184.167969 280.492188 " fill-opacity="1" fill-rule="nonzero"/><path fill="#ffc5d7" d="M 351.835938 179.5 C 350.789062 178.488281 345.71875 174.023438 346.632812 172.753906 C 347.148438 172.421875 347.332031 173.03125 347.558594 173.351562 C 348.992188 175.394531 350.417969 177.445312 351.835938 179.5 Z M 351.835938 179.5 " fill-opacity="1" fill-rule="nonzero"/><path fill="#ffc5d7" d="M 241.722656 266.726562 C 239.953125 268.121094 237.988281 269.105469 235.703125 269.292969 C 237.566406 268.113281 239.695312 267.5625 241.722656 266.726562 Z M 241.722656 266.726562 " fill-opacity="1" fill-rule="nonzero"/><path fill="#ffc5d7" d="M 241.128906 265.0625 C 240.332031 265.816406 236.65625 267.820312 235.902344 266.984375 C 235.78125 266.644531 236.066406 266.503906 236.3125 266.433594 C 237.914062 265.964844 239.519531 265.515625 241.128906 265.0625 Z M 241.128906 265.0625 " fill-opacity="1" fill-rule="nonzero"/><path fill="#ffc5d7" d="M 187 280.816406 L 191.664062 282.785156 C 190.355469 282.898438 188.203125 282.109375 187 280.816406 Z M 187 280.816406 " fill-opacity="1" fill-rule="nonzero"/><path fill="#ffc5d7" d="M 346.125 173.910156 C 346.234375 174.851562 346.660156 175.597656 347.316406 176.578125 C 345.585938 175.492188 345.371094 174.960938 346.125 173.910156 Z M 346.125 173.910156 " fill-opacity="1" fill-rule="nonzero"/><path fill="#ffc5d7" d="M 235.886719 265.136719 L 239.140625 264.460938 C 237.621094 265.660156 237.074219 265.789062 235.886719 265.136719 Z M 235.886719 265.136719 " fill-opacity="1" fill-rule="nonzero"/><path fill="#ffc5d7" d="M 303.703125 232.144531 C 303.765625 231.628906 304.011719 231.34375 304.445312 231.003906 C 304.4375 231.246094 304.363281 231.472656 304.230469 231.675781 C 304.097656 231.878906 303.921875 232.035156 303.703125 232.144531 Z M 303.703125 232.144531 " fill-opacity="1" fill-rule="nonzero"/><path fill="#ffc5d7" d="M 25.308594 217.039062 C 21.527344 215.390625 19.175781 212.019531 16.375 209.128906 C 16.117188 208.84375 15.570312 208.441406 15.992188 208.085938 C 16.445312 207.707031 16.667969 208.378906 16.914062 208.652344 C 19.539062 211.625 22.460938 214.289062 25.308594 217.039062 Z M 25.308594 217.039062 " fill-opacity="1" fill-rule="nonzero"/><path fill="#ffc5d7" d="M 20.589844 208.605469 C 21.621094 210.242188 23.464844 211.046875 24.652344 212.582031 C 22.207031 211.136719 19.527344 209.523438 18.042969 207.039062 C 19.171875 207.210938 19.585938 208.417969 20.636719 208.65625 Z M 20.589844 208.605469 " fill-opacity="1" fill-rule="nonzero"/><path fill="#ffc5d7" d="M 24.265625 208.84375 C 22.929688 207.910156 21.550781 207.035156 20.570312 205.609375 C 21.359375 205.683594 22.851562 206.957031 24.265625 208.84375 Z M 24.265625 208.84375 " fill-opacity="1" fill-rule="nonzero"/><path fill="#ffc5d7" d="M 27.941406 205.738281 C 26.40625 205.011719 24.867188 203.882812 24.179688 202.984375 C 25.203125 203.042969 26.539062 203.96875 28.023438 205.648438 Z M 27.941406 205.738281 " fill-opacity="1" fill-rule="nonzero"/><path fill="#ffc5d7" d="M 22.082031 203.867188 C 23.402344 204.59375 24.519531 205.554688 25.441406 206.746094 C 24.199219 205.917969 22.976562 205.074219 22.082031 203.867188 Z M 22.082031 203.867188 " fill-opacity="1" fill-rule="nonzero"/><path fill="#ffc5d7" d="M 20.636719 208.65625 C 20.699219 207.84375 19.511719 208.007812 19.777344 207.035156 C 20.804688 207.8125 21.890625 208.410156 22.5 209.566406 L 22.53125 209.53125 C 21.738281 209.523438 21.4375 208.492188 20.589844 208.605469 Z M 20.636719 208.65625 " fill-opacity="1" fill-rule="nonzero"/><path fill="#ffc5d7" d="M 26.390625 219.359375 C 26.859375 219.542969 27.214844 219.832031 27.648438 220.496094 C 26.96875 220.105469 26.601562 219.8125 26.390625 219.359375 Z M 26.390625 219.359375 " fill-opacity="1" fill-rule="nonzero"/><path fill="#ffc5d7" d="M 29.589844 222.039062 C 28.925781 221.941406 28.558594 221.4375 28.191406 220.9375 C 28.769531 221.160156 29.339844 221.386719 29.5625 222.070312 Z M 29.589844 222.039062 " fill-opacity="1" fill-rule="nonzero"/><path fill="#ffc5d7" d="M 25.035156 209.292969 C 25.359375 209.394531 25.589844 209.605469 25.726562 209.917969 C 25.421875 210.027344 24.695312 209.472656 25.035156 209.292969 Z M 25.035156 209.292969 " fill-opacity="1" fill-rule="nonzero"/><path fill="#ffc5d7" d="M 22.5 209.566406 C 23.003906 209.511719 23.21875 209.890625 23.503906 210.234375 C 22.929688 210.296875 22.746094 209.894531 22.53125 209.53125 Z M 22.5 209.566406 " fill-opacity="1" fill-rule="nonzero"/><path fill="#ffc5d7" d="M 28.023438 205.648438 C 28.464844 205.703125 28.738281 205.984375 29.085938 206.605469 C 28.5 206.3125 28.128906 206.171875 27.941406 205.738281 Z M 28.023438 205.648438 " fill-opacity="1" fill-rule="nonzero"/><path fill="#ffc5d7" d="M 29.5625 222.070312 C 30.160156 222.015625 30.414062 222.46875 30.707031 222.863281 C 30.214844 222.753906 29.789062 222.558594 29.589844 222.039062 Z M 29.5625 222.070312 " fill-opacity="1" fill-rule="nonzero"/></svg>