<svg xmlns="http://www.w3.org/2000/svg" xmlns:xlink="http://www.w3.org/1999/xlink" width="500" zoomAndPan="magnify" viewBox="0 0 375 374.999991" height="500" preserveAspectRatio="xMidYMid meet" version="1.0"><path fill="#790000" d="M 92.179688 257.945312 C 108.003906 253.171875 123.78125 248.128906 139.460938 242.957031 C 154.578125 237.960938 169.820312 232.964844 184.023438 225.710938 C 197.257812 218.957031 209.597656 210.488281 221.066406 201.066406 C 244.003906 182.121094 264.226562 160.625 281.734375 136.574219 C 298.597656 113.347656 307.683594 86.167969 304.734375 57.316406 C 303.148438 41.769531 298.394531 24.675781 286.808594 13.527344 C 276.925781 4.019531 263.3125 0.0078125 250.175781 4.78125 C 220.636719 15.503906 209.195312 50.054688 192.160156 73.414062 C 172.835938 96.5625 147.914062 114.039062 121.203125 127.703125 C 108.554688 134.105469 95.617188 139.851562 82.390625 144.941406 C 68.617188 150.3125 54.367188 154.53125 40.691406 160.140625 C 28.539062 165.132812 17.070312 172.164062 9.730469 183.375 C 8.113281 185.851562 6.710938 188.449219 5.519531 191.160156 C 4.332031 193.871094 3.375 196.660156 2.644531 199.527344 C 1.917969 202.398438 1.429688 205.308594 1.183594 208.257812 C 0.933594 211.207031 0.929688 214.15625 1.167969 217.105469 C 3.304688 242.3125 24.386719 262 49.15625 264.445312 C 63.738281 265.878906 78.339844 262.105469 92.179688 257.945312 Z M 26.070312 249.953125 C 16.109375 242.660156 9.082031 231.5625 7.214844 219.339844 C 5.359375 207.1875 8.742188 194.332031 15.988281 184.464844 C 24.363281 173.0625 37.628906 167.203125 50.542969 162.527344 C 104.546875 142.972656 159.0625 121.988281 196.972656 76.601562 C 211.726562 56.402344 220.785156 31.425781 241.472656 16.082031 C 253.355469 7.273438 267.78125 5.710938 279.84375 15.066406 C 291.273438 23.921875 296.121094 38.914062 298.316406 52.65625 C 302.859375 81.0625 294.535156 108.617188 278.0625 131.777344 C 262.367188 153.867188 243.011719 174.480469 222.5625 192.222656 C 200.28125 211.554688 175.695312 224.59375 147.863281 234.082031 C 133.71875 238.902344 119.464844 243.398438 105.203125 247.855469 C 92.050781 251.976562 78.832031 256.539062 65.09375 258.304688 C 51.359375 260.066406 37.433594 258.21875 26.070312 249.953125 Z M 26.070312 249.953125 " fill-opacity="1" fill-rule="nonzero"/><path fill="#790000" d="M 353.085938 136.75 C 348.109375 133.375 342.804688 130.972656 336.726562 130.671875 C 331.507812 130.410156 326.417969 131.6875 321.273438 132.292969 C 309.082031 133.742188 297.398438 136.171875 288.324219 145.1875 C 279.355469 154.101562 274.8125 167.035156 267.914062 177.5 C 260.328125 189.085938 251.484375 199.621094 241.386719 209.097656 C 220.4375 228.632812 195.890625 240.402344 167.972656 246.277344 C 153.199219 249.382812 138.515625 252.230469 124.273438 257.371094 C 112.648438 261.574219 100.320312 266.714844 91.65625 275.882812 C 82.472656 285.605469 80.878906 297.984375 81.617188 310.882812 C 82.351562 323.78125 85.980469 335.214844 94.578125 344.964844 C 110.867188 363.441406 136.660156 370.320312 160.546875 368.949219 C 189.390625 367.285156 215.671875 353.902344 239.359375 338.230469 C 264.328125 321.714844 289.011719 303.675781 310.484375 282.730469 C 332.207031 261.558594 350.726562 236.382812 360.105469 207.261719 C 367.132812 185.460938 374.792969 152.925781 353.085938 136.75 Z M 354.640625 205.429688 C 346.878906 229.519531 332.609375 251.011719 315.453125 269.4375 C 296.554688 289.757812 274.34375 306.636719 251.832031 322.683594 C 229.710938 338.441406 206.117188 353.921875 179.378906 360.359375 C 156.574219 365.855469 130.722656 364.460938 110.703125 351.257812 C 99.859375 344.101562 91.214844 333.722656 88.578125 320.777344 C 86.046875 308.332031 85.574219 292.640625 93.816406 282.167969 C 101.410156 272.53125 113.742188 267.425781 124.90625 263.25 C 138.582031 258.136719 152.75 255.308594 167 252.367188 C 190.496094 247.507812 211.917969 239.40625 231.285156 225.035156 C 252.035156 209.640625 268.878906 189.210938 281.183594 166.574219 C 284.546875 160.375 287.621094 153.789062 292.816406 148.859375 C 298.144531 143.796875 305.175781 140.664062 312.316406 139.175781 C 317.988281 137.988281 323.96875 137.625 329.734375 136.835938 C 337.351562 135.785156 343.507812 137.207031 349.914062 141.550781 C 369.015625 155.804688 360.722656 186.554688 354.640625 205.429688 Z M 354.640625 205.429688 " fill-opacity="1" fill-rule="nonzero"/><path fill="#790000" d="M 108.015625 179.320312 C 100.007812 177.410156 91.882812 176.453125 83.648438 176.4375 C 77.4375 176.4375 67.128906 175.722656 61.886719 179.414062 C 57.59375 182.441406 59.074219 188.410156 62.070312 191.824219 C 66.589844 196.992188 73.707031 197.457031 80.054688 198.144531 C 89.117188 199.132812 98.214844 200.332031 106.949219 203.003906 C 110.625 204.214844 114.222656 205.628906 117.738281 207.25 C 120.863281 208.617188 123.773438 208.703125 126.980469 209.535156 C 131.992188 210.835938 140.4375 219.226562 145.773438 214.832031 C 150.132812 211.238281 148.050781 204.871094 145.054688 200.78125 C 137.132812 188.304688 121.824219 182.574219 108.015625 179.320312 Z M 142.394531 209.296875 C 141.375 210.710938 138.929688 208.929688 137.9375 208.453125 C 135.277344 207.160156 132.703125 205.421875 129.933594 204.371094 C 127.503906 203.460938 125 203.664062 122.539062 203 C 119.753906 202.242188 117.140625 200.609375 114.4375 199.554688 C 101.183594 194.335938 87.476562 194.289062 73.738281 191.5625 C 70.707031 190.964844 61.179688 186.839844 68.171875 183.433594 C 71.230469 181.945312 76.9375 182.375 80.246094 182.265625 C 87.222656 182.039062 94.144531 182.535156 101.015625 183.753906 C 113.675781 185.992188 129.734375 190.484375 138.199219 201.074219 C 138.277344 201.699219 138.546875 202.222656 139.007812 202.652344 C 140.09375 203.660156 143.625 207.582031 142.394531 209.277344 Z M 142.394531 209.296875 " fill-opacity="1" fill-rule="nonzero"/><path fill="#790000" d="M 123.222656 166.6875 C 133.59375 166.484375 144.484375 168.148438 154.636719 170.332031 C 163.488281 172.253906 171.613281 176.550781 179.042969 181.621094 C 183.175781 184.457031 186.988281 187.636719 190.945312 190.6875 C 193.269531 192.480469 195.785156 194.261719 198.867188 194.089844 C 205.976562 193.683594 206.765625 185.789062 205.421875 180.371094 C 201.714844 165.445312 189.078125 150.15625 173.347656 147.933594 C 164.066406 146.628906 154.003906 145.816406 144.714844 147.53125 C 134.945312 149.339844 129.523438 154.945312 122.15625 161.085938 C 121.914062 161.289062 121.710938 161.523438 121.542969 161.792969 C 119.972656 163.433594 120.402344 166.742188 123.222656 166.6875 Z M 170.214844 153.390625 C 178.796875 154.28125 184.445312 157.847656 190.113281 164.234375 C 192.671875 167.089844 194.851562 170.207031 196.652344 173.589844 C 198.011719 176.191406 200.9375 181.179688 200.296875 184.1875 C 199.421875 185.539062 198.546875 186.890625 197.667969 188.238281 C 196.617188 187.769531 195.648438 187.160156 194.769531 186.421875 C 193.550781 185.523438 192.40625 184.496094 191.21875 183.546875 C 188.289062 181.210938 185.300781 178.945312 182.210938 176.835938 C 176.90625 173.136719 171.261719 170.066406 165.277344 167.628906 C 159.222656 165.230469 153.054688 164.222656 146.640625 163.320312 C 141.25 162.5625 136.144531 161.660156 130.886719 161.210938 C 135.234375 157.519531 139.511719 154.371094 145.839844 153.21875 C 153.84375 151.746094 162.21875 152.558594 170.226562 153.390625 Z M 170.214844 153.390625 " fill-opacity="1" fill-rule="nonzero"/><path fill="#790000" d="M 179.316406 126.664062 C 179.453125 126.671875 179.585938 126.671875 179.722656 126.664062 C 197.671875 124.671875 216.375 124.765625 233.460938 131.328125 C 238.492188 133.28125 248.996094 140.917969 254.667969 137.6875 C 260.0625 134.605469 255.769531 125.972656 253.453125 122.449219 C 245.480469 110.296875 226.90625 105.234375 213.214844 104.4375 C 198.902344 103.597656 180.136719 107.246094 175.542969 123 C 174.8125 125.554688 177.402344 127.226562 179.316406 126.664062 Z M 217.511719 110.644531 C 224.179688 111.578125 230.550781 113.492188 236.632812 116.386719 C 239.828125 117.894531 243.191406 119.628906 245.773438 122.105469 C 246.425781 122.71875 252.824219 130.441406 251.359375 131.957031 C 249.597656 133.777344 235.921875 126.054688 233.503906 125.191406 C 228.128906 123.316406 222.621094 121.949219 216.992188 121.097656 C 205.722656 119.316406 194.285156 119.507812 182.960938 120.558594 C 189.480469 110 206.300781 109.125 217.507812 110.644531 Z M 217.511719 110.644531 " fill-opacity="1" fill-rule="nonzero"/><path fill="#790000" d="M 272.492188 55.609375 C 266.414062 52.367188 257.769531 50.75 250.945312 50.484375 C 237.753906 49.980469 223.121094 58.6875 221.496094 72.621094 C 221.449219 72.894531 221.449219 73.164062 221.492188 73.4375 C 221.539062 73.710938 221.625 73.96875 221.757812 74.210938 C 221.890625 74.457031 222.054688 74.671875 222.261719 74.859375 C 222.464844 75.042969 222.695312 75.191406 222.945312 75.300781 C 223.269531 75.621094 223.648438 75.839844 224.089844 75.953125 C 224.527344 76.066406 224.964844 76.0625 225.402344 75.941406 C 234.492188 73.867188 244.238281 71.527344 253.488281 74.035156 C 262.605469 76.503906 269.488281 81.203125 275.121094 88.617188 C 277.832031 92.179688 282.523438 94.796875 285.980469 90.332031 C 289.71875 85.503906 286.382812 76.964844 284.523438 72.066406 C 282.171875 65.832031 278.609375 58.855469 272.492188 55.609375 Z M 281.640625 83.8125 C 280.253906 87.460938 277.949219 82.683594 276.832031 81.308594 C 275.4375 79.539062 273.863281 77.945312 272.109375 76.535156 C 267.945312 73.269531 262.386719 70.902344 257.394531 69.207031 C 247.84375 65.964844 237.898438 67.332031 228.261719 69.394531 C 230.03125 65.273438 233.71875 61.585938 237.335938 59.320312 C 243.515625 55.460938 251.109375 55.8125 257.964844 57.242188 C 263.890625 58.457031 270.386719 59.671875 274.222656 64.726562 C 276.246094 67.382812 277.796875 70.609375 278.996094 73.710938 C 279.742188 75.605469 282.457031 81.6875 281.652344 83.8125 Z M 281.640625 83.8125 " fill-opacity="1" fill-rule="nonzero"/><path fill="#790000" d="M 169.796875 266.796875 C 169.484375 267.152344 169.265625 267.558594 169.140625 268.015625 C 168.382812 269.230469 168.402344 270.847656 169.972656 271.792969 C 185.539062 281.167969 198.957031 293.847656 208.796875 309.167969 C 211.15625 312.839844 213.160156 316.660156 215.210938 320.511719 C 216.585938 323.09375 218.046875 325.804688 221.027344 326.792969 C 227.949219 329.082031 229.535156 321.75 229.355469 316.695312 C 228.773438 300.726562 222.574219 282.171875 210.195312 271.5625 C 199.265625 262.1875 181.453125 253.472656 169.796875 266.796875 Z M 222.867188 309.988281 C 223.152344 311.644531 225.296875 321.894531 221.101562 319.367188 C 219.40625 318.351562 217.859375 313.105469 216.835938 311.328125 C 215.285156 308.636719 213.621094 306.019531 211.875 303.453125 C 208.765625 298.875 205.363281 294.527344 201.664062 290.414062 C 194.109375 282.054688 185.582031 274.855469 176.074219 268.8125 C 187.015625 260.394531 202.945312 271.144531 210.675781 280.066406 C 215.609375 285.738281 218.332031 292.941406 220.46875 300.066406 C 221.46875 303.324219 222.273438 306.632812 222.878906 309.988281 Z M 222.867188 309.988281 " fill-opacity="1" fill-rule="nonzero"/><path fill="#790000" d="M 225.90625 241.53125 C 223.761719 243.085938 225.117188 245.707031 227.152344 246.300781 C 234.761719 250.675781 241.332031 256.300781 247.433594 262.609375 C 253.257812 268.644531 259.992188 275.203125 263.777344 282.777344 C 265.566406 286.355469 266.382812 297.433594 271.980469 298.082031 C 277.902344 298.765625 278.554688 287.835938 278.785156 284.125 C 279.617188 270.640625 274.585938 252.371094 264.371094 243.007812 C 253.453125 232.972656 237.699219 232.976562 225.90625 241.53125 Z M 272.207031 288.972656 C 271.925781 287.84375 271.574219 286.738281 271.148438 285.65625 C 270.242188 282.878906 269.046875 280.230469 267.570312 277.710938 C 264.660156 272.894531 260.835938 268.695312 257.097656 264.539062 C 250.042969 256.683594 242.515625 249.25 233.679688 243.515625 C 234.351562 243.1875 235.039062 242.886719 235.742188 242.621094 C 236.441406 242.355469 237.15625 242.125 237.878906 241.925781 C 238.601562 241.726562 239.332031 241.558594 240.070312 241.429688 C 240.808594 241.296875 241.550781 241.203125 242.300781 241.140625 C 243.046875 241.078125 243.796875 241.054688 244.546875 241.0625 C 245.296875 241.070312 246.042969 241.113281 246.789062 241.191406 C 247.535156 241.269531 248.277344 241.382812 249.011719 241.53125 C 249.75 241.679688 250.476562 241.859375 251.195312 242.078125 C 251.914062 242.292969 252.617188 242.542969 253.3125 242.824219 C 254.007812 243.105469 254.691406 243.417969 255.355469 243.765625 C 256.023438 244.109375 256.667969 244.484375 257.300781 244.890625 C 257.929688 245.296875 258.542969 245.730469 259.132812 246.195312 C 259.722656 246.660156 260.289062 247.148438 260.832031 247.664062 C 261.378906 248.179688 261.898438 248.722656 262.390625 249.285156 C 262.882812 249.851562 263.351562 250.4375 263.789062 251.046875 C 264.226562 251.652344 264.636719 252.28125 265.019531 252.925781 C 271.421875 263.628906 274.242188 276.714844 272.207031 288.972656 Z M 272.207031 288.972656 " fill-opacity="1" fill-rule="nonzero"/><path fill="#790000" d="M 299.183594 212.476562 C 293.410156 209.945312 286.992188 207.09375 280.550781 207.398438 C 273.191406 207.75 267.113281 212.003906 262.136719 217.121094 C 261.816406 217.4375 261.585938 217.808594 261.441406 218.238281 C 261.300781 218.667969 261.261719 219.105469 261.328125 219.550781 C 261.050781 221.269531 262.367188 223.449219 264.6875 223.242188 C 282.363281 221.640625 296.285156 234.335938 305.429688 248.0625 C 307.644531 251.378906 310.410156 256.125 315.246094 254.492188 C 320.085938 252.859375 319.480469 245.984375 319.167969 242.042969 C 318.65625 235.539062 317.144531 228.332031 313.371094 222.882812 C 309.941406 217.878906 304.628906 214.859375 299.183594 212.476562 Z M 313.214844 240.332031 C 313.53125 242.699219 314.835938 249.320312 311.089844 246.222656 C 309.734375 245.09375 308.5625 242.433594 307.511719 240.988281 C 305.871094 238.71875 304.117188 236.542969 302.242188 234.460938 C 298.964844 230.804688 295.296875 227.59375 291.234375 224.835938 C 288.128906 222.730469 284.808594 221.054688 281.269531 219.816406 C 277.730469 218.578125 274.09375 217.8125 270.351562 217.523438 C 274.316406 214.511719 278.835938 212.613281 284.128906 213.414062 C 289.125 214.171875 294.355469 216.5 298.917969 218.679688 C 304.808594 221.492188 309.128906 225.390625 311.230469 231.644531 C 312.164062 234.476562 312.824219 237.375 313.214844 240.332031 Z M 313.214844 240.332031 " fill-opacity="1" fill-rule="nonzero"/><path fill="#790000" d="M 335.527344 178.363281 C 331.601562 173.828125 323.914062 170.996094 318.195312 169.855469 C 307.40625 167.714844 289.914062 172.476562 286.957031 184.730469 C 286.789062 185.382812 286.839844 186.015625 287.109375 186.628906 C 286.84375 188.402344 288.148438 190.488281 290.453125 190.066406 C 298.804688 188.535156 307.679688 187.316406 315.5 191.496094 C 323.070312 195.546875 328.101562 202.871094 332.636719 209.902344 C 340.269531 221.742188 344.566406 202.261719 342.742188 195.679688 C 341.210938 190.144531 339.335938 182.777344 335.527344 178.363281 Z M 337.632812 199.71875 C 337.765625 201.308594 337.632812 204.40625 336.824219 206.664062 C 335.929688 205.128906 334.992188 203.019531 334.421875 202.207031 C 332.828125 199.847656 331.097656 197.59375 329.230469 195.441406 C 326.015625 191.796875 322.261719 188.554688 317.929688 186.296875 C 310.265625 182.332031 301.941406 182.464844 293.695312 183.679688 C 296.410156 179.445312 302.230469 176.828125 306.726562 175.734375 C 312.804688 174.253906 318.730469 175.480469 324.339844 177.988281 C 327.683594 179.484375 330.882812 181.117188 332.648438 184.472656 C 333.863281 186.804688 334.582031 189.429688 335.429688 191.917969 C 336.300781 194.453125 337.417969 197.027344 337.632812 199.71875 Z M 337.632812 199.71875 " fill-opacity="1" fill-rule="nonzero"/><path fill="#790000" d="M 250.679688 46.753906 C 258.605469 45.484375 269.117188 47.34375 275.59375 52.296875 C 281.628906 56.902344 284.4375 64.042969 288.152344 70.414062 C 288.285156 70.597656 288.460938 70.71875 288.679688 70.777344 C 288.898438 70.832031 289.109375 70.808594 289.3125 70.707031 C 289.515625 70.605469 289.664062 70.449219 289.75 70.242188 C 289.835938 70.03125 289.84375 69.816406 289.773438 69.601562 C 286.9375 62.0625 282.339844 53.957031 275.339844 49.5625 C 268.339844 45.164062 258.476562 44.554688 250.566406 46.265625 C 250.449219 46.324219 250.402344 46.421875 250.433594 46.554688 C 250.464844 46.683594 250.546875 46.75 250.679688 46.753906 Z M 250.679688 46.753906 " fill-opacity="1" fill-rule="nonzero"/><path fill="#790000" d="M 295.515625 63.660156 C 295.6875 64.46875 297.0625 64.46875 297.03125 63.558594 C 296.394531 46.144531 288.695312 28.464844 273.707031 18.933594 C 273.554688 18.84375 273.394531 18.820312 273.222656 18.859375 C 273.050781 18.898438 272.914062 18.992188 272.816406 19.140625 C 272.71875 19.289062 272.683594 19.449219 272.714844 19.621094 C 272.746094 19.796875 272.832031 19.9375 272.972656 20.039062 C 288.082031 30.222656 291.957031 46.933594 295.515625 63.660156 Z M 295.515625 63.660156 " fill-opacity="1" fill-rule="nonzero"/><path fill="#790000" d="M 280.691406 39.167969 C 286.589844 46.054688 288.859375 53.398438 290.984375 62.019531 C 291.253906 63.109375 293.011719 63.105469 293.035156 61.886719 C 293.179688 52.886719 288.09375 44.246094 281.714844 38.25 C 281.585938 38.125 281.433594 38.058594 281.25 38.054688 C 281.070312 38.050781 280.910156 38.109375 280.777344 38.230469 C 280.640625 38.351562 280.566406 38.5 280.550781 38.679688 C 280.53125 38.863281 280.582031 39.023438 280.691406 39.167969 Z M 280.691406 39.167969 " fill-opacity="1" fill-rule="nonzero"/><path fill="#790000" d="M 281.601562 49.421875 C 284.074219 52.574219 285.289062 56.136719 287.316406 59.511719 C 287.429688 59.726562 287.601562 59.878906 287.832031 59.96875 C 288.058594 60.054688 288.289062 60.0625 288.519531 59.980469 C 288.75 59.902344 288.929688 59.753906 289.050781 59.542969 C 289.175781 59.332031 289.21875 59.109375 289.175781 58.867188 C 288.53125 54.851562 285.527344 51.199219 282.796875 48.359375 C 282.644531 48.230469 282.46875 48.171875 282.269531 48.175781 C 282.066406 48.179688 281.894531 48.246094 281.746094 48.378906 C 281.597656 48.511719 281.507812 48.675781 281.480469 48.875 C 281.453125 49.074219 281.496094 49.257812 281.601562 49.421875 Z M 281.601562 49.421875 " fill-opacity="1" fill-rule="nonzero"/><path fill="#790000" d="M 174.835938 107.617188 C 189.878906 97.085938 200.734375 80.476562 210.484375 65.234375 C 221.042969 48.695312 230.359375 28.359375 247.410156 17.5 C 248.128906 17.042969 247.578125 15.878906 246.796875 16.285156 C 230.359375 25.304688 221.253906 43.753906 211.617188 59.058594 C 200.589844 76.542969 188.761719 92.117188 173.675781 106.324219 C 172.835938 107.113281 173.941406 108.246094 174.835938 107.617188 Z M 174.835938 107.617188 " fill-opacity="1" fill-rule="nonzero"/><path fill="#790000" d="M 244.539062 107.734375 C 244.40625 107.699219 244.277344 107.714844 244.15625 107.78125 C 244.035156 107.847656 243.949219 107.945312 243.90625 108.078125 C 243.859375 108.207031 243.863281 108.335938 243.921875 108.464844 C 243.976562 108.589844 244.066406 108.679688 244.195312 108.734375 C 254.261719 113.183594 257.410156 122.34375 260.621094 132.066406 C 260.890625 132.875 262.347656 133.003906 262.296875 131.957031 C 262.015625 126.496094 259.863281 121.1875 256.847656 116.660156 C 253.503906 111.648438 250.132812 109.609375 244.539062 107.734375 Z M 244.539062 107.734375 " fill-opacity="1" fill-rule="nonzero"/><path fill="#790000" d="M 252.570312 106.253906 C 252.050781 105.917969 251.578125 106.65625 252.046875 107.0625 C 255.503906 109.804688 258.96875 112.890625 261.300781 116.679688 C 263.230469 119.828125 264.300781 123.394531 266.089844 126.617188 C 266.171875 126.761719 266.289062 126.867188 266.445312 126.925781 C 266.597656 126.984375 266.753906 126.988281 266.914062 126.933594 C 267.070312 126.878906 267.191406 126.78125 267.273438 126.636719 C 267.359375 126.492188 267.386719 126.339844 267.359375 126.175781 C 265.917969 116.671875 260.242188 111.207031 252.570312 106.253906 Z M 252.570312 106.253906 " fill-opacity="1" fill-rule="nonzero"/><path fill="#790000" d="M 258.972656 104.875 C 258.3125 104.617188 257.796875 105.636719 258.417969 105.996094 C 264.824219 109.695312 267.925781 114.878906 270.976562 121.335938 C 271.382812 122.226562 272.597656 121.675781 272.515625 120.800781 C 271.785156 113.546875 265.449219 107.425781 258.972656 104.875 Z M 258.972656 104.875 " fill-opacity="1" fill-rule="nonzero"/><path fill="#790000" d="M 265.960938 104.089844 C 264.878906 103.753906 264.386719 105.304688 265.398438 105.734375 C 267.578125 106.671875 269.453125 108.03125 271.019531 109.8125 C 272.476562 111.503906 273.253906 113.480469 274.332031 115.394531 C 274.449219 115.601562 274.617188 115.746094 274.835938 115.828125 C 275.058594 115.914062 275.28125 115.917969 275.503906 115.839844 C 275.726562 115.761719 275.898438 115.621094 276.019531 115.417969 C 276.140625 115.214844 276.183594 114.996094 276.148438 114.765625 C 275.671875 109.640625 270.554688 105.511719 265.960938 104.089844 Z M 265.960938 104.089844 " fill-opacity="1" fill-rule="nonzero"/><path fill="#790000" d="M 272.367188 102.035156 C 271.375 101.390625 270.421875 102.84375 271.359375 103.558594 C 273.789062 105.367188 275.546875 107.730469 277.8125 109.667969 C 278.4375 110.207031 279.160156 109.3125 278.90625 108.695312 C 277.722656 105.855469 274.871094 103.664062 272.367188 102.035156 Z M 272.367188 102.035156 " fill-opacity="1" fill-rule="nonzero"/><path fill="#790000" d="M 269.476562 88.34375 C 269.316406 88.253906 269.148438 88.230469 268.972656 88.273438 C 268.792969 88.316406 268.652344 88.414062 268.550781 88.570312 C 268.453125 88.722656 268.414062 88.890625 268.445312 89.070312 C 268.476562 89.25 268.5625 89.398438 268.707031 89.507812 C 271.582031 91.621094 274.253906 93.960938 276.726562 96.535156 C 278.96875 98.875 280.851562 101.578125 283.207031 103.824219 C 283.324219 103.945312 283.46875 104.015625 283.632812 104.03125 C 283.800781 104.046875 283.953125 104.007812 284.09375 103.914062 C 284.230469 103.816406 284.324219 103.691406 284.371094 103.527344 C 284.414062 103.367188 284.402344 103.210938 284.332031 103.054688 C 281.644531 96.746094 275.140625 91.832031 269.476562 88.34375 Z M 269.476562 88.34375 " fill-opacity="1" fill-rule="nonzero"/><path fill="#790000" d="M 193.285156 152.992188 C 197.898438 156.996094 202.425781 161.125 205.878906 166.210938 C 210.304688 172.726562 211.007812 178.878906 211.304688 186.53125 C 211.300781 186.691406 211.34375 186.832031 211.445312 186.957031 C 211.542969 187.085938 211.671875 187.164062 211.828125 187.195312 C 211.984375 187.226562 212.132812 187.203125 212.273438 187.128906 C 212.414062 187.050781 212.515625 186.9375 212.574219 186.789062 C 217.570312 173.015625 204.292969 159.050781 193.902344 152.277344 C 193.46875 151.996094 192.867188 152.625 193.285156 152.992188 Z M 193.285156 152.992188 " fill-opacity="1" fill-rule="nonzero"/><path fill="#790000" d="M 208.722656 163.664062 C 213.910156 168.4375 216.117188 173.988281 218.253906 180.542969 C 218.5 181.304688 219.796875 181.402344 219.792969 180.441406 C 219.746094 173.371094 215.46875 166.796875 210.339844 162.210938 C 209.316406 161.308594 207.675781 162.710938 208.722656 163.664062 Z M 208.722656 163.664062 " fill-opacity="1" fill-rule="nonzero"/><path fill="#790000" d="M 215.28125 159.695312 C 214.039062 158.960938 212.796875 160.8125 214.039062 161.574219 C 216.699219 163.195312 219.507812 164.882812 221.5 167.34375 C 223.789062 170.160156 223.421875 173.289062 224.59375 176.453125 C 224.855469 177.160156 226.027344 177.039062 226.210938 176.339844 C 228.289062 168.527344 221.09375 163.113281 215.28125 159.695312 Z M 215.28125 159.695312 " fill-opacity="1" fill-rule="nonzero"/><path fill="#790000" d="M 221.683594 157.050781 C 220.46875 156.472656 219.402344 158.585938 220.628906 159.199219 C 223.167969 160.429688 225.347656 162.121094 227.167969 164.273438 C 228.824219 166.257812 229.882812 168.621094 231.421875 170.691406 C 231.648438 170.929688 231.914062 171 232.226562 170.890625 C 232.539062 170.785156 232.710938 170.566406 232.738281 170.234375 C 232.542969 164.226562 226.714844 159.40625 221.683594 157.050781 Z M 221.683594 157.050781 " fill-opacity="1" fill-rule="nonzero"/><path fill="#790000" d="M 227.691406 153.042969 C 226.277344 152.59375 225.542969 154.742188 226.945312 155.222656 C 229.09375 155.933594 230.960938 157.089844 232.550781 158.699219 C 233.960938 160.144531 234.769531 162.027344 236.132812 163.484375 C 236.589844 163.964844 237.632812 163.742188 237.609375 162.976562 C 237.460938 158.144531 231.8125 154.347656 227.691406 153.042969 Z M 227.691406 153.042969 " fill-opacity="1" fill-rule="nonzero"/><path fill="#790000" d="M 232.6875 148.082031 C 231.601562 147.589844 230.660156 149.421875 231.757812 149.96875 C 233.945312 151.027344 235.996094 152.300781 237.917969 153.789062 C 239.910156 155.410156 240.953125 157.566406 242.6875 159.363281 C 243.136719 159.824219 244.078125 159.605469 244.085938 158.882812 C 244.132812 153.4375 236.84375 149.964844 232.6875 148.082031 Z M 232.6875 148.082031 " fill-opacity="1" fill-rule="nonzero"/><path fill="#790000" d="M 241.355469 144.71875 C 240.140625 143.871094 238.898438 145.769531 240.09375 146.613281 C 241.792969 147.808594 243.480469 149.296875 245.472656 149.964844 C 245.648438 150.027344 245.824219 150.027344 246 149.96875 C 246.175781 149.910156 246.316406 149.800781 246.417969 149.648438 C 246.519531 149.492188 246.566406 149.320312 246.550781 149.136719 C 246.535156 148.949219 246.464844 148.789062 246.339844 148.652344 C 245.042969 147.007812 243.050781 145.910156 241.355469 144.71875 Z M 241.355469 144.71875 " fill-opacity="1" fill-rule="nonzero"/><path fill="#790000" d="M 139.808594 188.019531 C 139.40625 187.8125 139 188.351562 139.40625 188.625 C 146.664062 193.667969 149.707031 201.066406 154.496094 208.117188 C 154.605469 208.328125 154.773438 208.472656 155 208.546875 C 155.226562 208.621094 155.445312 208.601562 155.65625 208.496094 C 155.871094 208.386719 156.015625 208.222656 156.089844 207.996094 C 156.164062 207.769531 156.148438 207.550781 156.042969 207.335938 C 152.914062 199.550781 147.378906 191.90625 139.808594 188.019531 Z M 139.808594 188.019531 " fill-opacity="1" fill-rule="nonzero"/><path fill="#790000" d="M 149 193.238281 C 153.074219 197.371094 155.574219 202.074219 158.382812 207.066406 C 158.863281 207.910156 160.289062 207.503906 160.054688 206.484375 C 158.710938 200.765625 154.9375 195.679688 150.882812 191.558594 C 149.742188 190.402344 147.851562 192.070312 149 193.238281 Z M 149 193.238281 " fill-opacity="1" fill-rule="nonzero"/><path fill="#790000" d="M 156.628906 194.710938 C 160.78125 198.945312 163.257812 203.886719 166.601562 208.667969 C 167.152344 209.453125 168.480469 208.71875 168.253906 207.839844 C 166.828125 202.28125 162.4375 197.054688 158.53125 193.027344 C 157.375 191.867188 155.480469 193.546875 156.628906 194.710938 Z M 156.628906 194.710938 " fill-opacity="1" fill-rule="nonzero"/><path fill="#790000" d="M 159.945312 189.542969 C 158.847656 189.238281 158.269531 190.871094 159.367188 191.230469 C 167.132812 193.734375 170.339844 200.460938 174.464844 206.832031 C 174.585938 207.042969 174.765625 207.183594 175 207.253906 C 175.234375 207.324219 175.460938 207.300781 175.679688 207.191406 C 175.898438 207.082031 176.050781 206.910156 176.132812 206.679688 C 176.21875 206.453125 176.210938 206.222656 176.117188 206 C 173.390625 198.589844 167.773438 191.6875 159.945312 189.542969 Z M 159.945312 189.542969 " fill-opacity="1" fill-rule="nonzero"/><path fill="#790000" d="M 168.683594 188.820312 C 167.507812 188.207031 166.332031 189.890625 167.523438 190.566406 C 174.660156 194.617188 178.339844 200.335938 182.957031 206.796875 C 183.4375 207.460938 184.539062 206.84375 184.359375 206.09375 C 182.535156 198.433594 175.386719 192.300781 168.683594 188.820312 Z M 168.683594 188.820312 " fill-opacity="1" fill-rule="nonzero"/><path fill="#790000" d="M 178.453125 189.007812 C 176.917969 188.3125 176.082031 190.800781 177.605469 191.484375 C 180.167969 192.621094 182.398438 194.222656 184.289062 196.292969 C 185.929688 198.105469 186.964844 200.292969 188.441406 202.214844 C 189.035156 202.992188 190.160156 202.257812 190.035156 201.40625 C 189.195312 195.753906 183.320312 191.210938 178.453125 189.007812 Z M 178.453125 189.007812 " fill-opacity="1" fill-rule="nonzero"/><path fill="#790000" d="M 187.59375 194.816406 L 185.011719 192.058594 C 184.988281 192.035156 184.945312 192.058594 184.96875 192.101562 L 187.546875 194.859375 C 187.574219 194.882812 187.617188 194.859375 187.59375 194.816406 Z M 187.59375 194.816406 " fill-opacity="1" fill-rule="nonzero"/><path fill="#790000" d="M 104.078125 242.878906 C 114.074219 239.847656 124.476562 237.378906 134.125 233.367188 C 135.070312 232.964844 134.511719 231.507812 133.546875 231.703125 C 115.078125 235.390625 97.226562 242.894531 79.070312 247.90625 C 69.753906 250.480469 60.03125 251.816406 50.386719 250.300781 C 39.71875 248.625 31.644531 242.585938 23.933594 235.421875 C 23.597656 235.109375 23.0625 235.566406 23.394531 235.902344 C 29.46875 242.011719 35.613281 248.425781 44.027344 251.175781 C 52.90625 254.082031 62.929688 253.796875 72.011719 252.070312 C 82.898438 249.980469 93.511719 246.089844 104.078125 242.878906 Z M 104.078125 242.878906 " fill-opacity="1" fill-rule="nonzero"/><path fill="#790000" d="M 49.996094 245.824219 C 58.300781 246.964844 68 246.0625 76.238281 244.820312 C 76.375 244.789062 76.480469 244.722656 76.5625 244.613281 C 76.644531 244.503906 76.679688 244.378906 76.671875 244.242188 C 76.660156 244.105469 76.609375 243.988281 76.515625 243.890625 C 76.417969 243.792969 76.304688 243.738281 76.167969 243.726562 C 68.824219 243.351562 61.457031 244.484375 54.113281 244.347656 C 46.03125 244.191406 40.308594 240.476562 34 235.925781 C 33.46875 235.542969 32.738281 236.328125 33.238281 236.804688 C 38.101562 241.269531 43.3125 244.910156 49.996094 245.824219 Z M 49.996094 245.824219 " fill-opacity="1" fill-rule="nonzero"/><path fill="#790000" d="M 79.703125 244.179688 C 96.097656 239.613281 112.855469 234.648438 128.441406 227.746094 C 128.898438 227.546875 128.632812 226.742188 128.148438 226.902344 C 111.910156 232.324219 95.953125 238.367188 79.535156 243.230469 C 78.921875 243.402344 79.101562 244.347656 79.703125 244.179688 Z M 79.703125 244.179688 " fill-opacity="1" fill-rule="nonzero"/><path fill="#790000" d="M 121.488281 211.679688 C 121.957031 211.859375 122.347656 211.109375 121.890625 210.867188 C 107.421875 203.738281 91.003906 202.800781 75.160156 201.867188 C 75.023438 201.871094 74.953125 201.941406 74.941406 202.078125 C 74.933594 202.210938 74.992188 202.292969 75.125 202.316406 C 91.003906 203.859375 106.53125 205.875 121.488281 211.679688 Z M 121.488281 211.679688 " fill-opacity="1" fill-rule="nonzero"/><path fill="#790000" d="M 91.949219 172.394531 C 99.648438 171.894531 106.535156 172.167969 113.828125 175.078125 C 114.664062 175.414062 115.210938 174.1875 114.507812 173.691406 C 108.941406 169.792969 101.949219 169.859375 95.429688 170.308594 C 85.496094 170.992188 75.527344 172.394531 65.917969 175.035156 C 65.785156 175.0625 65.730469 175.144531 65.757812 175.28125 C 65.785156 175.414062 65.863281 175.46875 66 175.441406 C 74.554688 173.585938 83.21875 172.984375 91.949219 172.394531 Z M 91.949219 172.394531 " fill-opacity="1" fill-rule="nonzero"/><path fill="#790000" d="M 110.238281 168.296875 C 114.25 169.652344 118.101562 171.367188 121.789062 173.445312 C 122.296875 173.722656 123.007812 173.0625 122.507812 172.632812 C 119.03125 169.558594 115.03125 167.921875 110.4375 167.324219 C 110.167969 167.332031 110.007812 167.46875 109.953125 167.730469 C 109.898438 167.992188 109.996094 168.183594 110.238281 168.296875 Z M 110.238281 168.296875 " fill-opacity="1" fill-rule="nonzero"/><path fill="#790000" d="M 125.84375 140.648438 C 137.734375 138.167969 149.339844 137.84375 161.421875 137.621094 C 161.625 137.605469 161.796875 137.527344 161.9375 137.382812 C 162.078125 137.242188 162.15625 137.070312 162.171875 136.867188 C 162.183594 136.667969 162.132812 136.484375 162.007812 136.324219 C 161.886719 136.164062 161.730469 136.0625 161.53125 136.019531 C 149.699219 134.261719 136.988281 136.25 125.664062 139.761719 C 125.113281 139.933594 125.253906 140.769531 125.84375 140.648438 Z M 125.84375 140.648438 " fill-opacity="1" fill-rule="nonzero"/><path fill="#790000" d="M 142.976562 131.8125 C 149.863281 131.109375 155.992188 132.390625 162.753906 133.113281 C 163.386719 133.179688 163.773438 132.203125 163.160156 131.894531 C 156.996094 128.730469 149.289062 129.125 142.757812 130.792969 C 142.621094 130.824219 142.511719 130.898438 142.433594 131.019531 C 142.355469 131.140625 142.332031 131.273438 142.363281 131.410156 C 142.390625 131.550781 142.46875 131.660156 142.585938 131.738281 C 142.707031 131.816406 142.839844 131.839844 142.976562 131.8125 Z M 142.976562 131.8125 " fill-opacity="1" fill-rule="nonzero"/><path fill="#790000" d="M 152.859375 126.234375 C 156.765625 127.632812 160.917969 129.257812 165.070312 129.679688 C 165.929688 129.769531 166.023438 128.621094 165.34375 128.300781 C 161.652344 126.539062 157.28125 125.769531 153.296875 124.953125 C 152.46875 124.773438 152.015625 125.929688 152.859375 126.234375 Z M 152.859375 126.234375 " fill-opacity="1" fill-rule="nonzero"/><path fill="#790000" d="M 18.082031 205.34375 C 19.703125 197.242188 22.363281 189.917969 28.460938 184.058594 C 35.308594 177.484375 44.664062 174.585938 53.472656 171.71875 C 69.820312 166.394531 84.859375 158.613281 99.992188 150.550781 C 100.132812 150.480469 100.226562 150.367188 100.273438 150.214844 C 100.324219 150.066406 100.3125 149.921875 100.238281 149.78125 C 100.167969 149.640625 100.054688 149.542969 99.90625 149.496094 C 99.757812 149.445312 99.609375 149.457031 99.46875 149.527344 C 90.328125 154.046875 81.160156 158.492188 71.75 162.445312 C 62.34375 166.398438 52.625 169.179688 43.128906 172.792969 C 29.242188 178.078125 15.988281 189.054688 15.898438 205.203125 C 15.878906 206.636719 17.792969 206.695312 18.082031 205.34375 Z M 18.082031 205.34375 " fill-opacity="1" fill-rule="nonzero"/><path fill="#790000" d="M 45.429688 180.796875 C 33.351562 185.410156 25.273438 195.992188 23.101562 208.648438 C 23.019531 209.113281 23.789062 209.269531 23.910156 208.816406 C 27.074219 197.027344 35.253906 187.582031 46.082031 182.078125 C 46.925781 181.65625 46.28125 180.472656 45.429688 180.796875 Z M 45.429688 180.796875 " fill-opacity="1" fill-rule="nonzero"/><path fill="#790000" d="M 51.152344 182.746094 C 43.675781 185.734375 36.765625 191.695312 32.417969 198.433594 C 32.355469 198.542969 32.335938 198.660156 32.367188 198.789062 C 32.394531 198.914062 32.464844 199.011719 32.570312 199.082031 C 32.679688 199.152344 32.796875 199.179688 32.921875 199.15625 C 33.050781 199.132812 33.152344 199.070312 33.230469 198.964844 C 37.984375 191.886719 45.460938 188.917969 51.820312 183.726562 C 52.378906 183.273438 51.75 182.507812 51.152344 182.746094 Z M 51.152344 182.746094 " fill-opacity="1" fill-rule="nonzero"/><path fill="#790000" d="M 54.96875 185.753906 C 50.984375 186.777344 47.675781 189.085938 44.722656 191.867188 C 44.582031 192 44.507812 192.164062 44.5 192.355469 C 44.492188 192.546875 44.550781 192.714844 44.679688 192.855469 C 44.808594 193 44.96875 193.078125 45.160156 193.09375 C 45.351562 193.105469 45.519531 193.050781 45.667969 192.925781 C 48.640625 190.496094 52.019531 188.78125 55.390625 186.980469 C 56.023438 186.644531 55.703125 185.566406 54.96875 185.753906 Z M 54.96875 185.753906 " fill-opacity="1" fill-rule="nonzero"/><path fill="#790000" d="M 128.160156 196.128906 C 112.4375 186.84375 91.871094 184.945312 74.085938 186.789062 C 73.125 186.886719 73.441406 188.320312 74.378906 188.246094 C 83.484375 187.515625 92.53125 187.957031 101.523438 189.566406 C 110.53125 191.1875 118.808594 194.6875 127.371094 197.753906 C 128.320312 198.097656 129.082031 196.664062 128.160156 196.128906 Z M 128.160156 196.128906 " fill-opacity="1" fill-rule="nonzero"/><path fill="#790000" d="M 104.476562 191.695312 C 103.902344 191.429688 103.46875 192.351562 103.992188 192.679688 C 107.796875 195.039062 111.6875 195.804688 116 196.839844 C 121 198.054688 125.320312 200.382812 129.738281 202.917969 C 130.203125 203.183594 130.855469 202.558594 130.398438 202.15625 C 123.367188 195.964844 112.761719 195.507812 104.476562 191.695312 Z M 104.476562 191.695312 " fill-opacity="1" fill-rule="nonzero"/><path fill="#790000" d="M 149.042969 157.707031 C 162.5625 158.921875 178.078125 158.109375 188.511719 168.007812 C 188.652344 168.144531 188.820312 168.210938 189.015625 168.214844 C 189.210938 168.21875 189.378906 168.15625 189.523438 168.027344 C 189.671875 167.898438 189.753906 167.734375 189.769531 167.542969 C 189.789062 167.347656 189.742188 167.175781 189.621094 167.019531 C 180.609375 154.675781 162.515625 157.558594 149.113281 156.78125 C 148.984375 156.773438 148.871094 156.808594 148.773438 156.894531 C 148.679688 156.976562 148.625 157.082031 148.617188 157.210938 C 148.605469 157.335938 148.644531 157.449219 148.726562 157.546875 C 148.808594 157.644531 148.914062 157.695312 149.042969 157.707031 Z M 149.042969 157.707031 " fill-opacity="1" fill-rule="nonzero"/><path fill="#790000" d="M 174.292969 162.777344 C 174.109375 162.722656 173.933594 162.738281 173.765625 162.828125 C 173.597656 162.914062 173.480469 163.046875 173.417969 163.226562 C 173.355469 163.410156 173.367188 163.585938 173.449219 163.757812 C 173.527344 163.929688 173.65625 164.050781 173.835938 164.117188 C 178.445312 165.738281 182.78125 167.90625 186.839844 170.625 C 190.601562 173.15625 193.636719 176.445312 197.199219 179.195312 C 197.46875 179.355469 197.71875 179.332031 197.957031 179.128906 C 198.191406 178.921875 198.25 178.675781 198.125 178.386719 C 193.246094 170.339844 183.015625 165.285156 174.292969 162.777344 Z M 174.292969 162.777344 " fill-opacity="1" fill-rule="nonzero"/><path fill="#790000" d="M 180.058594 169.121094 C 179.855469 169.003906 179.636719 168.96875 179.40625 169.023438 C 179.175781 169.074219 178.996094 169.199219 178.863281 169.398438 C 178.734375 169.59375 178.6875 169.808594 178.730469 170.042969 C 178.769531 170.277344 178.882812 170.464844 179.074219 170.605469 C 183.035156 173.441406 186.652344 176.785156 190.726562 179.410156 C 190.863281 179.5 191.011719 179.53125 191.171875 179.507812 C 191.332031 179.484375 191.464844 179.410156 191.570312 179.289062 C 191.679688 179.164062 191.730469 179.023438 191.734375 178.859375 C 191.734375 178.699219 191.679688 178.554688 191.574219 178.429688 C 188.632812 174.511719 184.242188 171.585938 180.058594 169.121094 Z M 180.058594 169.121094 " fill-opacity="1" fill-rule="nonzero"/><path fill="#790000" d="M 195.554688 115.253906 C 209.992188 111.132812 228.5 114.589844 241.132812 122.546875 C 241.296875 122.644531 241.472656 122.679688 241.660156 122.652344 C 241.847656 122.621094 242.007812 122.535156 242.132812 122.390625 C 242.257812 122.246094 242.320312 122.078125 242.320312 121.886719 C 242.324219 121.695312 242.261719 121.527344 242.140625 121.378906 C 237.238281 115.996094 228.085938 114.175781 221.285156 112.871094 C 216.976562 112.011719 212.625 111.699219 208.234375 111.933594 C 203.84375 112.167969 199.554688 112.945312 195.359375 114.261719 C 194.753906 114.472656 194.933594 115.433594 195.554688 115.253906 Z M 195.554688 115.253906 " fill-opacity="1" fill-rule="nonzero"/><path fill="#790000" d="M 212.234375 115.984375 C 212.105469 115.9375 211.972656 115.945312 211.847656 116.007812 C 211.722656 116.070312 211.636719 116.167969 211.59375 116.300781 C 211.546875 116.433594 211.554688 116.5625 211.617188 116.6875 C 211.679688 116.8125 211.777344 116.898438 211.90625 116.945312 C 217.058594 119.070312 222.417969 119.78125 227.816406 120.972656 C 233.339844 122.191406 237.859375 124.234375 242.75 127.050781 C 243.289062 127.363281 243.964844 126.6875 243.496094 126.1875 C 236.03125 118.339844 222.082031 118.191406 212.234375 115.984375 Z M 212.234375 115.984375 " fill-opacity="1" fill-rule="nonzero"/><path fill="#790000" d="M 275.914062 71.078125 C 276.0625 71.171875 276.222656 71.207031 276.394531 71.179688 C 276.566406 71.15625 276.710938 71.078125 276.824219 70.945312 C 276.9375 70.8125 276.996094 70.660156 276.996094 70.484375 C 276.992188 70.3125 276.9375 70.160156 276.824219 70.027344 C 272.914062 64.972656 266.09375 59.746094 259.707031 58.515625 C 252.617188 57.148438 244.816406 59.199219 238.363281 62.039062 C 237.597656 62.375 238.1875 63.464844 238.945312 63.183594 C 245.152344 60.871094 252.835938 58.851562 259.429688 60.476562 C 265.917969 62.066406 270.503906 67.53125 275.914062 71.078125 Z M 275.914062 71.078125 " fill-opacity="1" fill-rule="nonzero"/><path fill="#790000" d="M 270.957031 68.058594 C 267.796875 65.800781 264.402344 63.984375 260.773438 62.605469 C 260.316406 62.445312 259.9375 63.152344 260.367188 63.386719 C 263.550781 65.070312 266.417969 67.382812 269.320312 69.503906 C 272.292969 71.671875 274.625 74.367188 277.386719 76.714844 C 278.027344 77.261719 278.746094 76.355469 278.492188 75.730469 C 277.171875 72.4375 273.800781 70.019531 270.957031 68.058594 Z M 270.957031 68.058594 " fill-opacity="1" fill-rule="nonzero"/><path fill="#790000" d="M 263.273438 67.789062 C 263.097656 67.671875 262.90625 67.632812 262.699219 67.675781 C 262.492188 67.71875 262.328125 67.828125 262.210938 68.003906 C 262.09375 68.179688 262.058594 68.371094 262.097656 68.578125 C 262.140625 68.785156 262.25 68.945312 262.425781 69.0625 C 263.75 70.039062 265.0625 71.042969 266.339844 72.078125 C 267.53125 73.046875 268.671875 74.066406 270.066406 74.726562 C 270.371094 74.824219 270.625 74.75 270.835938 74.511719 C 271.046875 74.269531 271.082031 74.007812 270.945312 73.71875 C 269.25 71.0625 265.96875 69.273438 263.273438 67.789062 Z M 263.273438 67.789062 " fill-opacity="1" fill-rule="nonzero"/><path fill="#790000" d="M 237.816406 31.371094 C 243.699219 26.382812 250.019531 22.675781 257.636719 21.003906 C 257.738281 20.984375 257.816406 20.929688 257.875 20.84375 C 257.933594 20.761719 257.953125 20.667969 257.933594 20.566406 C 257.917969 20.464844 257.863281 20.382812 257.78125 20.324219 C 257.699219 20.261719 257.605469 20.242188 257.503906 20.253906 C 249.617188 21.09375 242.199219 24.242188 236.769531 30.175781 C 236.070312 30.921875 237.011719 32.050781 237.816406 31.371094 Z M 237.816406 31.371094 " fill-opacity="1" fill-rule="nonzero"/><path fill="#790000" d="M 238.464844 34.640625 C 243.578125 31.164062 248.1875 27.558594 254.132812 25.480469 C 254.582031 25.324219 254.316406 24.535156 253.851562 24.671875 C 248.0625 26.472656 241.90625 28.945312 237.648438 33.46875 C 237.152344 34.03125 237.730469 35.128906 238.464844 34.640625 Z M 238.464844 34.640625 " fill-opacity="1" fill-rule="nonzero"/><path fill="#790000" d="M 235.550781 41 C 238.003906 39.058594 240.25 36.871094 242.785156 35.019531 C 245.621094 32.953125 248.757812 31.492188 251.71875 29.640625 C 252.082031 29.414062 251.929688 28.769531 251.453125 28.878906 C 245.210938 30.335938 238.355469 34.996094 234.617188 40.195312 C 234.191406 40.789062 235.015625 41.421875 235.550781 41 Z M 235.550781 41 " fill-opacity="1" fill-rule="nonzero"/><path fill="#790000" d="M 233.484375 46.046875 C 233.394531 46.1875 233.359375 46.34375 233.386719 46.511719 C 233.410156 46.679688 233.488281 46.820312 233.617188 46.933594 C 233.746094 47.042969 233.894531 47.097656 234.0625 47.101562 C 234.234375 47.101562 234.382812 47.046875 234.511719 46.9375 C 236.476562 45.234375 238.097656 43.160156 240.074219 41.453125 C 242.265625 39.585938 244.628906 37.980469 247.171875 36.628906 C 248.027344 36.171875 247.363281 34.84375 246.492188 35.285156 C 241.726562 37.675781 236.109375 41.234375 233.484375 46.046875 Z M 233.484375 46.046875 " fill-opacity="1" fill-rule="nonzero"/><path fill="#790000" d="M 240.695312 43.695312 C 238.730469 45.113281 236.949219 46.734375 235.355469 48.558594 C 234.980469 48.960938 235.511719 49.625 235.957031 49.230469 C 237.757812 47.632812 239.667969 46.140625 241.570312 44.664062 C 242.242188 44.15625 241.371094 43.21875 240.695312 43.695312 Z M 240.695312 43.695312 " fill-opacity="1" fill-rule="nonzero"/><path fill="#790000" d="M 258.445312 76.566406 C 247.589844 71.101562 233.246094 75.910156 222.5 79.269531 C 221.914062 79.449219 222.097656 80.382812 222.691406 80.214844 C 228.257812 78.695312 233.847656 77.410156 239.597656 76.820312 C 246 76.160156 251.664062 77.226562 257.976562 77.949219 C 258.691406 78.011719 259.125 76.894531 258.445312 76.566406 Z M 258.445312 76.566406 " fill-opacity="1" fill-rule="nonzero"/><path fill="#790000" d="M 239.597656 80.476562 C 245.367188 79.464844 250.300781 80.628906 255.988281 81.070312 C 256.648438 81.125 257.058594 80.132812 256.425781 79.789062 C 251.339844 77.058594 244.707031 77.511719 239.21875 78.621094 C 238.027344 78.863281 238.398438 80.6875 239.597656 80.476562 Z M 239.597656 80.476562 " fill-opacity="1" fill-rule="nonzero"/><path fill="#790000" d="M 251.851562 64.507812 C 250.878906 64.328125 249.898438 64.257812 248.910156 64.296875 C 247.171875 64.386719 245.574219 65.210938 243.835938 65.148438 C 243.40625 65.148438 243.222656 65.808594 243.675781 65.914062 C 245.894531 66.425781 248.132812 65.914062 250.378906 66.207031 C 252.949219 66.53125 255.328125 67.578125 257.875 68.011719 C 258.546875 68.125 258.851562 67.101562 258.28125 66.769531 C 256.277344 65.617188 254.136719 64.863281 251.851562 64.507812 Z M 251.851562 64.507812 " fill-opacity="1" fill-rule="nonzero"/><path fill="#790000" d="M 255.796875 63.058594 C 256.140625 63.058594 256.378906 62.5625 256.027344 62.378906 C 254.203125 61.417969 251.902344 61.109375 249.863281 61.019531 C 249.703125 61.007812 249.566406 61.054688 249.445312 61.15625 C 249.324219 61.261719 249.257812 61.394531 249.246094 61.550781 C 249.238281 61.710938 249.285156 61.851562 249.386719 61.972656 C 249.492188 62.089844 249.625 62.15625 249.78125 62.167969 C 251.746094 62.472656 253.8125 62.988281 255.796875 63.058594 Z M 255.796875 63.058594 " fill-opacity="1" fill-rule="nonzero"/><path fill="#790000" d="M 185.242188 106.109375 C 184.753906 106.355469 185.128906 107.039062 185.625 106.851562 C 194.808594 103.386719 203.449219 100.59375 213.171875 99.375 C 213.867188 99.285156 213.761719 98.222656 213.09375 98.160156 C 203.398438 97.371094 193.726562 101.910156 185.242188 106.109375 Z M 185.242188 106.109375 " fill-opacity="1" fill-rule="nonzero"/><path fill="#790000" d="M 215.621094 93.910156 C 209.847656 92.460938 203.171875 94.53125 197.902344 96.886719 C 197.347656 97.136719 197.664062 98.101562 198.265625 97.921875 C 201.058594 97.027344 203.90625 96.367188 206.8125 95.945312 C 209.710938 95.542969 212.664062 95.6875 215.539062 95.191406 C 216.183594 95.082031 216.269531 94.070312 215.621094 93.910156 Z M 215.621094 93.910156 " fill-opacity="1" fill-rule="nonzero"/><path fill="#790000" d="M 217.859375 91.089844 C 213.519531 89.753906 208.3125 90.683594 204.085938 92.019531 C 203.960938 92.050781 203.867188 92.121094 203.800781 92.230469 C 203.730469 92.335938 203.710938 92.453125 203.738281 92.574219 C 203.761719 92.699219 203.828125 92.796875 203.929688 92.871094 C 204.035156 92.941406 204.152344 92.96875 204.277344 92.949219 C 208.816406 92.285156 213.265625 92.707031 217.789062 92.328125 C 218.429688 92.277344 218.433594 91.269531 217.859375 91.089844 Z M 217.859375 91.089844 " fill-opacity="1" fill-rule="nonzero"/><path fill="#790000" d="M 216.917969 89.972656 C 217.527344 89.886719 217.757812 88.914062 217.183594 88.617188 C 215.089844 87.539062 212.320312 87.570312 210.027344 87.402344 C 208.765625 87.308594 208.632812 89.25 209.894531 89.359375 C 212.152344 89.558594 214.671875 90.273438 216.917969 89.972656 Z M 216.917969 89.972656 " fill-opacity="1" fill-rule="nonzero"/><path fill="#790000" d="M 81.683594 230.835938 C 75.019531 229.402344 68.476562 228.644531 62.238281 225.703125 C 58.730469 224.046875 55.457031 222.011719 52.417969 219.601562 C 49.378906 217.1875 46.65625 214.464844 44.246094 211.421875 C 43.632812 210.65625 42.546875 211.660156 43.117188 212.433594 C 51.488281 223.6875 66.910156 234.078125 81.628906 232.050781 C 82.183594 231.972656 82.28125 230.964844 81.683594 230.835938 Z M 81.683594 230.835938 " fill-opacity="1" fill-rule="nonzero"/><path fill="#790000" d="M 61.894531 232.128906 C 62.738281 232.449219 63.378906 231.175781 62.597656 230.703125 C 56.863281 227.230469 50.621094 224.730469 45.820312 219.890625 C 45.734375 219.8125 45.632812 219.769531 45.515625 219.769531 C 45.398438 219.769531 45.296875 219.808594 45.207031 219.886719 C 45.121094 219.964844 45.070312 220.0625 45.058594 220.179688 C 45.046875 220.292969 45.078125 220.398438 45.148438 220.492188 C 49.414062 225.933594 55.472656 229.699219 61.894531 232.128906 Z M 61.894531 232.128906 " fill-opacity="1" fill-rule="nonzero"/><path fill="#790000" d="M 46.105469 226.367188 C 49.277344 229.070312 52.710938 231.40625 56.636719 232.851562 C 56.789062 232.898438 56.941406 232.886719 57.089844 232.824219 C 57.238281 232.761719 57.34375 232.65625 57.417969 232.511719 C 57.488281 232.367188 57.503906 232.21875 57.464844 232.0625 C 57.425781 231.90625 57.339844 231.78125 57.207031 231.6875 C 53.792969 229.472656 50.21875 227.523438 46.78125 225.34375 C 46.097656 224.921875 45.519531 225.875 46.105469 226.367188 Z M 46.105469 226.367188 " fill-opacity="1" fill-rule="nonzero"/><path fill="#790000" d="M 53.402344 217.660156 C 56.792969 220.898438 60.726562 223.671875 65.332031 224.78125 C 66.140625 224.976562 66.871094 223.839844 66.023438 223.375 C 62.054688 221.199219 57.957031 219.300781 54.199219 216.746094 C 53.640625 216.367188 52.894531 217.171875 53.402344 217.660156 Z M 53.402344 217.660156 " fill-opacity="1" fill-rule="nonzero"/><path fill="#790000" d="M 186.816406 348.027344 C 169.230469 354.023438 150.800781 357.308594 132.757812 350.988281 C 117.148438 345.519531 103.640625 333.164062 97.726562 317.597656 C 97.675781 317.457031 97.429688 317.542969 97.472656 317.6875 C 107.871094 355.769531 155.171875 365.414062 187.46875 349.90625 C 188.457031 349.433594 187.90625 347.65625 186.816406 348.027344 Z M 186.816406 348.027344 " fill-opacity="1" fill-rule="nonzero"/><path fill="#790000" d="M 175.957031 348.941406 C 177.171875 348.652344 177.171875 346.625 175.808594 346.648438 C 164.847656 346.816406 154.234375 348.71875 143.257812 346.933594 C 132.746094 345.222656 122.539062 341.019531 115.195312 333.125 C 115.097656 333.023438 114.980469 332.972656 114.84375 332.96875 C 114.703125 332.964844 114.585938 333.007812 114.480469 333.097656 C 114.378906 333.191406 114.320312 333.304688 114.308594 333.445312 C 114.296875 333.582031 114.335938 333.703125 114.421875 333.8125 C 129 351.066406 155.011719 354.023438 175.957031 348.941406 Z M 175.957031 348.941406 " fill-opacity="1" fill-rule="nonzero"/><path fill="#790000" d="M 136.636719 341.300781 C 142.230469 342.367188 147.519531 344.949219 153.1875 345.433594 C 158.988281 345.882812 164.730469 345.476562 170.414062 344.21875 C 171.335938 344.015625 171.015625 342.765625 170.132812 342.824219 C 164.054688 343.230469 157.621094 344.21875 151.554688 343.398438 C 146.542969 342.71875 141.800781 340.738281 136.722656 340.050781 C 135.917969 339.953125 135.871094 341.15625 136.636719 341.300781 Z M 136.636719 341.300781 " fill-opacity="1" fill-rule="nonzero"/><path fill="#790000" d="M 94.488281 295.8125 C 97.644531 281.570312 110.488281 275.671875 123.078125 271.214844 C 136.949219 266.304688 151.300781 262.488281 165.679688 259.402344 C 165.859375 259.363281 166 259.269531 166.101562 259.117188 C 166.203125 258.964844 166.234375 258.796875 166.199219 258.617188 C 166.164062 258.4375 166.070312 258.296875 165.917969 258.195312 C 165.761719 258.09375 165.597656 258.0625 165.417969 258.097656 C 148.59375 260.621094 132.214844 264.871094 116.28125 270.839844 C 105.34375 274.960938 93.097656 282.40625 92.320312 295.375 C 92.246094 296.589844 94.207031 297.085938 94.488281 295.8125 Z M 94.488281 295.8125 " fill-opacity="1" fill-rule="nonzero"/><path fill="#790000" d="M 132.40625 271.949219 C 121.125 275.875 96.003906 280.808594 97.863281 297.253906 C 97.996094 298.367188 99.566406 298.109375 99.714844 297.132812 C 102.035156 282.066406 121.324219 278.5625 133.28125 273.675781 C 134.453125 273.195312 133.539062 271.546875 132.40625 271.949219 Z M 132.40625 271.949219 " fill-opacity="1" fill-rule="nonzero"/><path fill="#790000" d="M 107.386719 296.511719 C 110.273438 289.667969 115.046875 284.796875 122.09375 282.335938 C 122.980469 282.027344 122.390625 280.796875 121.589844 280.878906 C 113.640625 281.726562 106.65625 288.207031 105.632812 296.160156 C 105.492188 297.226562 107.007812 297.410156 107.386719 296.511719 Z M 107.386719 296.511719 " fill-opacity="1" fill-rule="nonzero"/><path fill="#790000" d="M 169.300781 276.328125 C 168.683594 276.03125 168.164062 277.070312 168.769531 277.410156 C 188.789062 288.5625 203.203125 305.078125 214.039062 325.03125 C 214.558594 325.992188 215.90625 325.265625 215.527344 324.28125 C 207.339844 303.023438 189.605469 286.007812 169.300781 276.328125 Z M 169.300781 276.328125 " fill-opacity="1" fill-rule="nonzero"/><path fill="#790000" d="M 223.566406 281.792969 C 225.878906 288.167969 228.285156 294.40625 229.699219 301.0625 C 230.976562 307.070312 231.234375 313.140625 232.085938 319.199219 C 232.226562 320.214844 233.757812 320.058594 233.84375 319.082031 C 234.941406 306.628906 230.957031 291.976562 224.753906 281.191406 C 224.671875 281.027344 224.542969 280.917969 224.367188 280.863281 C 224.195312 280.804688 224.027344 280.820312 223.863281 280.902344 C 223.699219 280.984375 223.589844 281.113281 223.53125 281.285156 C 223.472656 281.460938 223.484375 281.628906 223.566406 281.792969 Z M 223.566406 281.792969 " fill-opacity="1" fill-rule="nonzero"/><path fill="#790000" d="M 231.738281 294.269531 C 235.382812 302.109375 235.894531 309.820312 237.90625 318.011719 C 238.152344 319.015625 239.449219 318.824219 239.625 317.898438 C 241.179688 309.675781 237.535156 300.410156 233.648438 293.300781 C 233.507812 293.054688 233.300781 292.894531 233.027344 292.8125 C 232.753906 292.730469 232.492188 292.757812 232.238281 292.882812 C 231.984375 293.011719 231.808594 293.210938 231.714844 293.476562 C 231.617188 293.746094 231.625 294.007812 231.738281 294.269531 Z M 231.738281 294.269531 " fill-opacity="1" fill-rule="nonzero"/><path fill="#790000" d="M 237.652344 296.4375 C 239.195312 299.476562 240.4375 302.628906 241.382812 305.902344 C 242.117188 308.535156 242.375 311.28125 243.292969 313.847656 C 243.664062 314.894531 245.246094 314.410156 245.316406 313.441406 C 245.75 307.433594 242.445312 300.558594 239.5 295.503906 C 238.820312 294.355469 237.03125 295.230469 237.652344 296.4375 Z M 237.652344 296.4375 " fill-opacity="1" fill-rule="nonzero"/><path fill="#790000" d="M 244.710938 299.238281 C 245.769531 302.480469 246.566406 306.035156 248.304688 309 C 248.417969 309.210938 248.589844 309.359375 248.8125 309.445312 C 249.035156 309.535156 249.261719 309.539062 249.492188 309.457031 C 249.71875 309.378906 249.894531 309.238281 250.015625 309.03125 C 250.136719 308.824219 250.179688 308.601562 250.136719 308.363281 C 249.832031 305.050781 248.476562 301.839844 247.472656 298.675781 C 246.929688 296.945312 244.132812 297.519531 244.710938 299.238281 Z M 244.710938 299.238281 " fill-opacity="1" fill-rule="nonzero"/><path fill="#790000" d="M 250.46875 301.78125 C 250.839844 302.699219 251.210938 303.613281 251.585938 304.535156 C 251.957031 305.453125 253.5625 304.941406 253.292969 303.9375 L 252.515625 301.066406 C 252.480469 300.914062 252.417969 300.777344 252.324219 300.65625 C 252.230469 300.53125 252.117188 300.433594 251.980469 300.355469 C 251.847656 300.28125 251.699219 300.238281 251.546875 300.226562 C 251.390625 300.210938 251.242188 300.230469 251.09375 300.28125 C 250.949219 300.332031 250.820312 300.410156 250.707031 300.519531 C 250.59375 300.625 250.507812 300.75 250.449219 300.890625 C 250.390625 301.035156 250.359375 301.183594 250.363281 301.335938 C 250.367188 301.492188 250.402344 301.640625 250.46875 301.78125 Z M 250.46875 301.78125 " fill-opacity="1" fill-rule="nonzero"/><path fill="#790000" d="M 188.433594 269.507812 C 187.6875 269.125 186.945312 270.171875 187.695312 270.617188 C 197.117188 276.195312 207.375 280.339844 213.351562 289.9375 C 213.710938 290.519531 214.789062 290.273438 214.566406 289.511719 C 211.671875 279.164062 196.945312 273.929688 188.433594 269.507812 Z M 188.433594 269.507812 " fill-opacity="1" fill-rule="nonzero"/><path fill="#790000" d="M 197.09375 279.273438 C 196.933594 279.175781 196.765625 279.148438 196.585938 279.1875 C 196.40625 279.226562 196.261719 279.324219 196.160156 279.476562 C 196.058594 279.632812 196.023438 279.800781 196.054688 279.984375 C 196.089844 280.164062 196.179688 280.308594 196.332031 280.417969 C 205.316406 286.820312 216.699219 297.585938 217.984375 309.179688 C 218.097656 310.234375 219.742188 310.078125 219.8125 309.058594 C 220.664062 296.773438 206.648438 284.820312 197.09375 279.273438 Z M 197.09375 279.273438 " fill-opacity="1" fill-rule="nonzero"/><path fill="#790000" d="M 243.808594 247.269531 C 253.25 254.679688 258.957031 263.808594 265.4375 273.683594 C 265.84375 274.277344 267.003906 274.050781 266.746094 273.226562 C 263.242188 261.960938 254.074219 252.648438 244.734375 245.878906 C 243.855469 245.238281 242.976562 246.613281 243.808594 247.269531 Z M 243.808594 247.269531 " fill-opacity="1" fill-rule="nonzero"/><path fill="#790000" d="M 253.484375 250.289062 C 258.347656 254.664062 261.949219 259.839844 265.578125 265.242188 C 265.699219 265.382812 265.851562 265.472656 266.03125 265.511719 C 266.214844 265.546875 266.390625 265.523438 266.554688 265.441406 C 266.722656 265.355469 266.84375 265.230469 266.925781 265.0625 C 267.003906 264.894531 267.023438 264.71875 266.984375 264.539062 C 264.636719 258.1875 259.917969 253.078125 254.59375 249.015625 C 253.832031 248.421875 252.753906 249.636719 253.484375 250.289062 Z M 253.484375 250.289062 " fill-opacity="1" fill-rule="nonzero"/><path fill="#790000" d="M 281.660156 218.0625 C 281.542969 218.0625 281.441406 218.101562 281.359375 218.183594 C 281.273438 218.261719 281.226562 218.359375 281.21875 218.472656 C 281.210938 218.589844 281.242188 218.695312 281.316406 218.785156 C 281.390625 218.875 281.484375 218.925781 281.597656 218.941406 C 294.738281 219.871094 301.53125 230.164062 310.828125 237.910156 C 311.535156 238.5 312.714844 237.46875 312.199219 236.695312 C 305.480469 226.609375 293.925781 218.382812 281.660156 218.0625 Z M 281.660156 218.0625 " fill-opacity="1" fill-rule="nonzero"/><path fill="#790000" d="M 280.628906 263.054688 C 283.191406 269.621094 284.023438 276.214844 285.660156 282.984375 C 285.929688 284.109375 287.660156 284.0625 287.734375 282.847656 C 288.136719 275.792969 285.402344 268.433594 282.277344 262.21875 C 281.734375 261.140625 280.191406 261.964844 280.628906 263.054688 Z M 280.628906 263.054688 " fill-opacity="1" fill-rule="nonzero"/><path fill="#790000" d="M 286.265625 263.867188 C 287.691406 266.488281 288.789062 269.242188 289.554688 272.125 C 290.242188 274.726562 290.28125 277.445312 290.980469 280.015625 C 291.039062 280.316406 291.191406 280.5625 291.433594 280.75 C 291.675781 280.9375 291.949219 281.019531 292.253906 281 C 292.558594 280.980469 292.820312 280.859375 293.035156 280.644531 C 293.253906 280.425781 293.371094 280.164062 293.386719 279.859375 C 294.308594 274.1875 291.320312 267.503906 288.476562 262.742188 C 287.65625 261.390625 285.488281 262.445312 286.265625 263.867188 Z M 286.265625 263.867188 " fill-opacity="1" fill-rule="nonzero"/><path fill="#790000" d="M 290.132812 258.492188 C 292.246094 261.332031 293.867188 264.425781 294.992188 267.78125 C 295.800781 270.253906 296.121094 272.832031 297.019531 275.269531 C 297.386719 276.277344 298.800781 275.765625 298.914062 274.863281 C 299.722656 268.542969 295.765625 261.582031 292.097656 256.730469 C 291.0625 255.402344 289.152344 257.148438 290.132812 258.492188 Z M 290.132812 258.492188 " fill-opacity="1" fill-rule="nonzero"/><path fill="#790000" d="M 295.082031 255.867188 C 297.042969 258.640625 298.519531 261.648438 299.511719 264.898438 C 300.234375 267.285156 300.253906 269.839844 301.214844 272.125 C 301.535156 272.886719 302.835938 272.8125 303.042969 272 C 304.511719 266.132812 300.234375 258.808594 296.746094 254.382812 C 295.839844 253.234375 294.269531 254.722656 295.082031 255.867188 Z M 295.082031 255.867188 " fill-opacity="1" fill-rule="nonzero"/><path fill="#790000" d="M 299.953125 252.453125 C 303.320312 257.113281 304.410156 261.992188 306.265625 267.273438 C 306.527344 267.996094 307.707031 267.703125 307.71875 266.980469 C 307.792969 261.390625 304.476562 255.671875 301.1875 251.355469 C 300.539062 250.507812 299.34375 251.605469 299.953125 252.453125 Z M 299.953125 252.453125 " fill-opacity="1" fill-rule="nonzero"/><path fill="#790000" d="M 266.449219 209.40625 C 270.566406 208.191406 274.550781 206.410156 278.707031 205.355469 C 284.003906 203.980469 287.492188 205.535156 292.316406 207.265625 C 292.527344 207.335938 292.734375 207.328125 292.9375 207.242188 C 293.140625 207.15625 293.292969 207.011719 293.390625 206.8125 C 293.488281 206.613281 293.507812 206.40625 293.453125 206.191406 C 293.394531 205.976562 293.277344 205.808594 293.09375 205.683594 C 284.042969 199.8125 274.917969 204.175781 266.082031 208.375 C 265.519531 208.632812 265.828125 209.59375 266.449219 209.40625 Z M 266.449219 209.40625 " fill-opacity="1" fill-rule="nonzero"/><path fill="#790000" d="M 276.699219 202.351562 C 282.164062 201.101562 287.671875 201.03125 293.0625 202.601562 C 293.226562 202.65625 293.390625 202.660156 293.554688 202.605469 C 293.714844 202.550781 293.847656 202.453125 293.941406 202.308594 C 294.039062 202.164062 294.078125 202.007812 294.066406 201.835938 C 294.054688 201.664062 293.988281 201.511719 293.875 201.386719 C 292.085938 199.210938 288.496094 199.261719 285.878906 199.308594 C 282.578125 199.390625 279.398438 200.042969 276.332031 201.265625 C 275.734375 201.511719 276.074219 202.5 276.699219 202.351562 Z M 276.699219 202.351562 " fill-opacity="1" fill-rule="nonzero"/><path fill="#790000" d="M 283.597656 197.472656 C 286.203125 197.71875 288.65625 198.480469 291.214844 198.945312 C 291.832031 199.058594 292.175781 198.054688 291.621094 197.765625 C 289.191406 196.550781 286.398438 196.234375 283.699219 196.148438 C 283.515625 196.136719 283.359375 196.191406 283.222656 196.308594 C 283.085938 196.429688 283.011719 196.578125 282.996094 196.757812 C 282.984375 196.941406 283.035156 197.101562 283.152344 197.238281 C 283.269531 197.375 283.417969 197.453125 283.597656 197.472656 Z M 283.597656 197.472656 " fill-opacity="1" fill-rule="nonzero"/><path fill="#790000" d="M 197.613281 249.679688 C 214.5625 244.160156 232.171875 235.582031 244.539062 222.484375 C 245.257812 221.71875 244.171875 220.480469 243.441406 221.269531 C 230.476562 234.96875 213.722656 240.492188 197.136719 248.277344 C 196.367188 248.617188 196.785156 249.953125 197.613281 249.679688 Z M 197.613281 249.679688 " fill-opacity="1" fill-rule="nonzero"/><path fill="#790000" d="M 197.511719 255.085938 C 203.777344 257.0625 209.882812 259.453125 215.5625 262.804688 C 215.691406 262.882812 215.832031 262.910156 215.980469 262.875 C 216.128906 262.84375 216.246094 262.761719 216.328125 262.636719 C 216.414062 262.507812 216.441406 262.371094 216.414062 262.21875 C 216.382812 262.070312 216.308594 261.953125 216.183594 261.863281 C 210.699219 257.726562 204.585938 254.886719 197.746094 253.925781 C 197.070312 253.832031 196.871094 254.882812 197.511719 255.085938 Z M 197.511719 255.085938 " fill-opacity="1" fill-rule="nonzero"/><path fill="#790000" d="M 205.984375 251.25 C 205.109375 250.933594 204.699219 252.230469 205.523438 252.59375 C 209.957031 254.5625 213.855469 257.304688 218.082031 259.625 C 218.738281 259.980469 219.625 259.15625 219.003906 258.558594 C 215.40625 255.078125 210.644531 252.953125 205.984375 251.25 Z M 205.984375 251.25 " fill-opacity="1" fill-rule="nonzero"/><path fill="#790000" d="M 220.304688 257.597656 C 221.117188 257.976562 221.585938 256.863281 221.171875 256.285156 C 219.988281 254.640625 218.089844 253.449219 216.425781 252.328125 C 214.714844 251.191406 212.941406 250.167969 211.101562 249.261719 C 210.367188 248.902344 209.910156 250.042969 210.503906 250.476562 C 212.171875 251.730469 213.867188 252.960938 215.527344 254.238281 C 217.054688 255.425781 218.542969 256.789062 220.304688 257.597656 Z M 220.304688 257.597656 " fill-opacity="1" fill-rule="nonzero"/><path fill="#790000" d="M 221.515625 252.636719 C 219.683594 250.777344 217.566406 249.34375 215.160156 248.332031 C 213.8125 247.726562 213.136719 249.867188 214.421875 250.492188 C 216.476562 251.53125 218.464844 252.683594 220.386719 253.953125 C 221.203125 254.449219 222.214844 253.367188 221.515625 252.636719 Z M 221.515625 252.636719 " fill-opacity="1" fill-rule="nonzero"/><path fill="#790000" d="M 347.28125 146.046875 C 346.632812 145.546875 345.714844 146.582031 346.332031 147.148438 C 355.625 155.714844 355.621094 168.300781 354.050781 179.960938 C 352.59375 190.753906 350.195312 201.28125 346.183594 211.414062 C 345.90625 212.109375 346.992188 212.660156 347.363281 211.996094 C 353.515625 200.933594 355.871094 188.375 356.832031 175.855469 C 357.679688 164.878906 356.628906 153.21875 347.28125 146.046875 Z M 347.28125 146.046875 " fill-opacity="1" fill-rule="nonzero"/><path fill="#790000" d="M 347.4375 198.953125 C 350.871094 189.351562 350.742188 178.359375 348.847656 168.445312 C 348.671875 167.542969 347.109375 167.585938 347.175781 168.558594 C 347.847656 178.835938 346.703125 188.410156 345.644531 198.589844 C 345.519531 199.652344 347.078125 199.925781 347.4375 198.953125 Z M 347.4375 198.953125 " fill-opacity="1" fill-rule="nonzero"/><path fill="#790000" d="M 344.574219 186.148438 C 345.507812 182.628906 344.496094 178.710938 343.3125 175.367188 C 342.980469 174.425781 341.402344 174.984375 341.648438 175.949219 C 342.503906 179.304688 342.371094 182.660156 342.902344 186.042969 C 343.035156 186.875 344.355469 186.984375 344.574219 186.148438 Z M 344.574219 186.148438 " fill-opacity="1" fill-rule="nonzero"/><path fill="#790000" d="M 282.585938 178.691406 C 288.363281 170.628906 290.996094 160.828125 298.171875 153.679688 C 305.589844 146.285156 314.894531 143.683594 325.011719 142.535156 C 325.796875 142.445312 325.675781 141.230469 324.921875 141.171875 C 302.152344 139.425781 288.867188 159.714844 281.058594 177.941406 C 280.664062 178.863281 282.039062 179.464844 282.585938 178.691406 Z M 282.585938 178.691406 " fill-opacity="1" fill-rule="nonzero"/><path fill="#790000" d="M 294.535156 170.183594 C 293.96875 170.519531 294.40625 171.398438 295.003906 171.105469 C 302.140625 167.429688 313.433594 164.066406 320.367188 169.167969 C 321.289062 169.84375 322.207031 168.558594 321.582031 167.746094 C 315.613281 159.695312 301.140625 166.273438 294.535156 170.183594 Z M 294.535156 170.183594 " fill-opacity="1" fill-rule="nonzero"/><path fill="#790000" d="M 322.601562 162.449219 C 317.335938 158.507812 309.347656 160.476562 303.53125 161.789062 C 303.359375 161.824219 303.226562 161.914062 303.128906 162.058594 C 303.035156 162.207031 303.003906 162.363281 303.039062 162.535156 C 303.074219 162.707031 303.164062 162.839844 303.308594 162.9375 C 303.453125 163.03125 303.613281 163.0625 303.785156 163.027344 C 306.84375 162.625 309.917969 162.429688 313.003906 162.449219 C 316.082031 162.523438 318.8125 163.398438 321.765625 164.109375 C 321.988281 164.183594 322.203125 164.175781 322.417969 164.085938 C 322.632812 163.996094 322.792969 163.847656 322.898438 163.640625 C 323.003906 163.429688 323.027344 163.214844 322.96875 162.988281 C 322.914062 162.765625 322.789062 162.582031 322.601562 162.449219 Z M 322.601562 162.449219 " fill-opacity="1" fill-rule="nonzero"/><path fill="#790000" d="M 322.820312 159.230469 C 320.679688 157.984375 318.476562 156.878906 316.199219 155.910156 C 314.542969 155.234375 313.65625 157.863281 315.304688 158.535156 C 317.519531 159.402344 319.78125 160.128906 322.089844 160.710938 C 322.949219 160.945312 323.695312 159.71875 322.820312 159.230469 Z M 322.820312 159.230469 " fill-opacity="1" fill-rule="nonzero"/><path fill="#790000" d="M 326.300781 207.875 C 331.363281 214.355469 333.960938 221.730469 338.179688 228.640625 C 338.269531 228.824219 338.410156 228.957031 338.601562 229.035156 C 338.789062 229.113281 338.984375 229.117188 339.175781 229.050781 C 339.371094 228.984375 339.515625 228.859375 339.617188 228.679688 C 339.71875 228.5 339.746094 228.3125 339.699219 228.109375 C 338.425781 220.089844 332.570312 212.867188 327.222656 207.042969 C 327.109375 206.917969 326.964844 206.847656 326.792969 206.839844 C 326.621094 206.832031 326.472656 206.882812 326.347656 206.996094 C 326.21875 207.113281 326.148438 207.253906 326.140625 207.425781 C 326.132812 207.597656 326.183594 207.746094 326.300781 207.875 Z M 326.300781 207.875 " fill-opacity="1" fill-rule="nonzero"/><path fill="#790000" d="M 325.828125 215.375 C 329.910156 220.191406 331.03125 225.976562 334.175781 231.238281 C 334.28125 231.433594 334.4375 231.570312 334.644531 231.652344 C 334.851562 231.734375 335.058594 231.738281 335.269531 231.664062 C 335.476562 231.589844 335.640625 231.457031 335.75 231.265625 C 335.863281 231.074219 335.898438 230.867188 335.859375 230.648438 C 335.109375 224.574219 331.707031 218.238281 327.242188 214.113281 C 326.371094 213.300781 325.027344 214.425781 325.828125 215.375 Z M 325.828125 215.375 " fill-opacity="1" fill-rule="nonzero"/><path fill="#790000" d="M 323.050781 220.378906 C 326.136719 225.648438 327.59375 231.339844 330.058594 236.84375 C 330.398438 237.601562 331.757812 237.382812 331.71875 236.507812 C 331.480469 230.253906 328.074219 224.355469 324.566406 219.347656 C 323.964844 218.503906 322.519531 219.492188 323.050781 220.378906 Z M 323.050781 220.378906 " fill-opacity="1" fill-rule="nonzero"/><path fill="#790000" d="M 321.953125 228.953125 C 323.617188 232.925781 325.03125 237.222656 327.28125 240.902344 C 327.714844 241.609375 328.964844 241.308594 328.738281 240.398438 C 327.660156 236.132812 325.550781 232.035156 323.84375 227.996094 C 323.3125 226.738281 321.429688 227.699219 321.953125 228.953125 Z M 321.953125 228.953125 " fill-opacity="1" fill-rule="nonzero"/><path fill="#790000" d="M 319.96875 234.34375 C 321.515625 238.53125 322.367188 243 323.09375 247.390625 C 323.132812 247.5625 323.222656 247.699219 323.363281 247.804688 C 323.503906 247.910156 323.664062 247.957031 323.835938 247.945312 C 324.011719 247.933594 324.164062 247.867188 324.289062 247.742188 C 324.414062 247.621094 324.484375 247.472656 324.5 247.296875 C 324.664062 242.410156 323.4375 238.039062 321.375 233.632812 C 320.929688 232.691406 319.625 233.417969 319.96875 234.34375 Z M 319.96875 234.34375 " fill-opacity="1" fill-rule="nonzero"/><path fill="#790000" d="M 186.230469 294.921875 C 195.480469 304.996094 203.246094 315.117188 208.917969 327.605469 C 209.347656 328.546875 210.84375 328.011719 210.628906 327.011719 C 207.726562 313.523438 196.566406 303.351562 187.027344 294.195312 C 186.542969 293.707031 185.753906 294.386719 186.230469 294.921875 Z M 186.230469 294.921875 " fill-opacity="1" fill-rule="nonzero"/><path fill="#790000" d="M 189.960938 307.886719 C 193.027344 311.261719 195.613281 314.976562 197.722656 319.019531 C 199.613281 322.640625 200.710938 326.574219 202.546875 330.191406 C 203.035156 331.15625 204.359375 330.59375 204.253906 329.59375 C 203.335938 321.023438 196.679688 312.960938 190.648438 307.269531 C 190.222656 306.878906 189.550781 307.453125 189.960938 307.886719 Z M 189.960938 307.886719 " fill-opacity="1" fill-rule="nonzero"/><path fill="#790000" d="M 188.941406 317.898438 C 191.050781 320.234375 192.707031 322.855469 193.902344 325.765625 C 195.011719 328.402344 195.570312 331.234375 196.882812 333.785156 C 197.234375 334.476562 198.472656 334.324219 198.457031 333.46875 C 198.355469 327.332031 194.761719 320.757812 190.660156 316.390625 C 189.640625 315.316406 187.953125 316.796875 188.941406 317.898438 Z M 188.941406 317.898438 " fill-opacity="1" fill-rule="nonzero"/><path fill="#790000" d="M 187.753906 324.0625 C 188.96875 327.261719 189.78125 331.027344 191.679688 333.90625 C 192.085938 334.53125 193.378906 334.542969 193.339844 333.570312 C 193.195312 329.785156 190.945312 326.332031 188.863281 323.304688 C 188.398438 322.625 187.503906 323.40625 187.753906 324.0625 Z M 187.753906 324.0625 " fill-opacity="1" fill-rule="nonzero"/><path fill="#790000" d="M 184.734375 329.210938 C 185.390625 331.34375 186.128906 333.960938 187.707031 335.609375 C 188.171875 336.097656 189.234375 335.714844 188.992188 334.964844 C 188.296875 332.808594 186.964844 330.859375 186.1875 328.703125 C 185.894531 327.886719 184.472656 328.371094 184.734375 329.210938 Z M 184.734375 329.210938 " fill-opacity="1" fill-rule="nonzero"/><path fill="#790000" d="M 147.921875 323.640625 C 139.886719 314.367188 135.300781 303.101562 135.710938 290.738281 C 135.71875 290.609375 135.660156 290.542969 135.535156 290.53125 C 135.40625 290.523438 135.339844 290.582031 135.328125 290.707031 C 133.488281 303.265625 137.28125 315.976562 146.640625 324.78125 C 147.433594 325.527344 148.652344 324.496094 147.921875 323.640625 Z M 147.921875 323.640625 " fill-opacity="1" fill-rule="nonzero"/><path fill="#790000" d="M 132.066406 299.113281 C 131.253906 307.367188 133.742188 318.128906 140.773438 323.3125 C 140.933594 323.410156 141.109375 323.449219 141.296875 323.433594 C 141.480469 323.417969 141.644531 323.347656 141.785156 323.21875 C 141.925781 323.09375 142.015625 322.941406 142.050781 322.757812 C 142.089844 322.574219 142.070312 322.394531 141.988281 322.226562 C 140.050781 318.714844 137.488281 315.691406 135.914062 311.945312 C 134.234375 307.808594 133.234375 303.511719 132.917969 299.058594 C 132.894531 298.566406 132.113281 298.640625 132.066406 299.113281 Z M 132.066406 299.113281 " fill-opacity="1" fill-rule="nonzero"/><path fill="#790000" d="M 137.417969 301.148438 C 139.035156 306.4375 141.601562 312.234375 145.96875 315.832031 C 146.578125 316.335938 147.488281 315.476562 147.105469 314.816406 C 144.328125 310 141.070312 305.832031 138.914062 300.636719 C 138.574219 299.804688 137.148438 300.28125 137.417969 301.148438 Z M 137.417969 301.148438 " fill-opacity="1" fill-rule="nonzero"/><path fill="#790000" d="M 142.644531 302.023438 C 141.835938 301.058594 140.417969 302.347656 141.199219 303.316406 C 142.960938 305.507812 144.648438 307.707031 146.703125 309.628906 C 147.234375 310.128906 148.292969 309.574219 147.847656 308.847656 C 146.339844 306.390625 144.476562 304.238281 142.644531 302.023438 Z M 142.644531 302.023438 " fill-opacity="1" fill-rule="nonzero"/></svg>