<svg xmlns="http://www.w3.org/2000/svg" xmlns:xlink="http://www.w3.org/1999/xlink" width="500" zoomAndPan="magnify" viewBox="0 0 375 374.999991" height="500" preserveAspectRatio="xMidYMid meet" version="1.0"><path fill="#fdbce4" d="M 340.492188 23.90625 C 348.5 34.898438 351.960938 47.089844 352.222656 60.253906 C 352.714844 84.765625 346.820312 108.179688 338.183594 130.746094 C 317.808594 183.976562 288.898438 232.046875 249.71875 273.785156 C 225.152344 299.960938 199.136719 324.394531 168.867188 343.894531 C 149.292969 356.507812 128.707031 367.039062 105.582031 371.675781 C 88.925781 375.015625 72.925781 373.21875 57.652344 365.664062 C 31.21875 352.578125 22.261719 319.566406 38.375 294.789062 C 47.625 280.570312 60.753906 270.929688 75.597656 263.375 C 91.988281 255.03125 108.832031 247.539062 124.160156 237.191406 C 136.074219 229.152344 147.136719 220.21875 156.601562 209.300781 C 164.738281 199.914062 171.808594 189.773438 178.988281 179.683594 C 200.671875 149.1875 215.074219 114.726562 232.730469 82.039062 C 243.054688 62.925781 252.890625 43.519531 265.632812 25.847656 C 272.304688 16.597656 280.179688 8.421875 291.53125 5.082031 C 308.78125 0 323.320312 5.144531 335.503906 17.863281 C 337.238281 19.675781 338.726562 21.730469 340.492188 23.90625 Z M 342.136719 83.160156 C 342.636719 78.023438 343.328125 72.890625 343.609375 67.746094 C 344.664062 48.546875 339.3125 31.8125 323.996094 19.292969 C 316.574219 13.234375 307.945312 10.886719 298.34375 12.351562 C 288.816406 13.808594 282.027344 19.542969 276.019531 26.46875 C 267.988281 35.734375 262.0625 46.441406 255.953125 56.960938 C 253.203125 61.710938 249.210938 66.363281 250.507812 72.675781 C 250.847656 74.355469 251.0625 76.074219 251.207031 77.785156 C 252.574219 94.304688 256.351562 110.136719 264.527344 124.722656 C 264.972656 125.519531 265.402344 126.378906 265.601562 127.261719 C 266.246094 130.09375 264.863281 131.238281 262.15625 131.054688 C 260.640625 130.953125 259.4375 130.019531 258.261719 129.195312 C 248.511719 122.332031 241.011719 113.605469 236.367188 102.542969 C 235.769531 101.117188 235.140625 99.703125 234.511719 98.238281 C 233.03125 98.890625 232.800781 100.15625 232.277344 101.160156 C 228.714844 107.964844 225.308594 114.855469 221.628906 121.597656 C 219.910156 124.75 219.097656 127.921875 219.367188 131.476562 C 220.695312 148.933594 225.085938 165.605469 232.054688 181.636719 C 233.058594 183.953125 234.359375 186.617188 231.878906 188.558594 C 229.597656 190.339844 227.082031 189.089844 224.863281 187.730469 C 224.300781 187.378906 223.726562 187.046875 223.1875 186.671875 C 213.09375 179.808594 206.285156 170.503906 202.5 158.484375 C 201.925781 159.265625 201.515625 159.726562 201.210938 160.25 C 193.65625 173.34375 185.582031 186.101562 176.414062 198.132812 C 175.324219 199.558594 175.269531 200.925781 175.648438 202.585938 C 177.066406 208.792969 179.015625 214.828125 181.175781 220.800781 C 184.160156 229.03125 187.867188 236.9375 191.570312 244.859375 C 193.425781 248.820312 191.875 251.851562 188.320312 251.828125 C 186.695312 251.820312 185.234375 251.109375 183.847656 250.316406 C 172.753906 243.921875 164.664062 235.027344 160.824219 222.597656 C 160.53125 221.644531 160.5 220.484375 159.210938 219.871094 C 158.335938 220.601562 157.363281 221.277344 156.539062 222.113281 C 147.421875 231.265625 137.15625 238.949219 126.425781 246.070312 C 120.835938 249.773438 120.738281 250.195312 122.050781 256.71875 C 123.96875 266.253906 127.078125 275.34375 131.675781 283.933594 C 132.867188 286.167969 134.085938 288.792969 131.867188 290.910156 C 129.632812 293.046875 127.15625 291.433594 124.882812 290.367188 C 124.40625 290.144531 123.960938 289.84375 123.515625 289.566406 C 112.484375 282.628906 104.738281 273.429688 103.234375 259.8125 C 102.535156 259.972656 101.992188 259.996094 101.546875 260.210938 C 91.957031 265.019531 82.222656 269.578125 72.835938 274.757812 C 62.296875 280.578125 53.199219 288.214844 46.265625 298.242188 C 33.371094 316.886719 37.164062 342.042969 55.277344 354.832031 C 67.324219 363.332031 81.070312 366.234375 95.679688 364.859375 C 111.210938 363.402344 125.535156 357.925781 139.375 351.070312 C 163.535156 339.097656 185.027344 323.28125 205.101562 305.390625 C 245.589844 269.316406 280.308594 228.667969 305.902344 180.507812 C 322.191406 149.824219 336.402344 118.472656 342.136719 83.160156 Z M 243.214844 104.03125 C 246.179688 109.875 250.148438 114.910156 255.851562 119.800781 C 252.273438 112.484375 250.09375 105.691406 248.582031 98.726562 C 247.085938 91.851562 246.050781 84.886719 244.765625 77.703125 C 237.007812 90.867188 236.984375 91.3125 243.214844 104.03125 Z M 207.566406 149.714844 C 209.003906 160.179688 213.808594 168.847656 221.675781 175.921875 C 217.667969 163.964844 214.859375 151.757812 213.1875 138.484375 C 210.683594 142.40625 208.886719 145.609375 207.566406 149.714844 Z M 167.242188 220.585938 C 170.320312 228.96875 176.277344 236.945312 181.3125 239.292969 C 176.523438 229.015625 172.992188 218.40625 170.167969 207.542969 C 164.992188 210.828125 164.960938 215.167969 167.242188 220.585938 Z M 116.214844 258.832031 C 115.863281 257.074219 115.523438 255.308594 115.171875 253.519531 C 109.253906 255.613281 108.332031 257.066406 110.019531 262.746094 C 112.054688 269.617188 115.871094 275.375 122.179688 280.164062 C 119.664062 273 117.238281 266.445312 116.214844 258.832031 Z M 116.214844 258.832031 " fill-opacity="1" fill-rule="nonzero"/><path fill="#fdbce4" d="M 333.109375 84.6875 C 330.078125 86.039062 330.167969 83.765625 329.929688 82.207031 C 329.394531 78.644531 330.023438 75.078125 330.269531 71.523438 C 330.804688 63.738281 331.34375 55.960938 331.089844 48.140625 C 331.042969 46.710938 330.890625 44.960938 332.808594 44.609375 C 334.921875 44.230469 335.390625 45.996094 335.855469 47.527344 C 336.894531 51.035156 336.425781 54.640625 336.332031 58.179688 C 336.09375 67.015625 335.828125 75.867188 333.109375 84.6875 Z M 333.109375 84.6875 " fill-opacity="1" fill-rule="nonzero"/><path fill="#fdbce4" d="M 68.382812 345.335938 C 69.6875 347.957031 71 350.265625 71.984375 352.707031 C 72.503906 353.980469 72.925781 355.746094 71.269531 356.570312 C 69.757812 357.328125 68.75 355.96875 68.113281 354.878906 C 65.996094 351.234375 63.984375 347.519531 62.042969 343.78125 C 61.375 342.496094 60.828125 340.808594 62.417969 339.894531 C 64.207031 338.867188 65.34375 340.292969 66.242188 341.667969 C 66.976562 342.765625 67.59375 343.933594 68.382812 345.335938 Z M 68.382812 345.335938 " fill-opacity="1" fill-rule="nonzero"/><path fill="#fdbce4" d="M 77.140625 348.085938 C 77.101562 344.609375 78.363281 343.585938 80.472656 345.285156 C 83.445312 347.6875 85.839844 350.703125 87.757812 354.042969 C 88.386719 355.140625 88.457031 356.390625 87.320312 357.25 C 86.261719 358.042969 85.277344 357.359375 84.464844 356.691406 C 81.617188 354.3125 79.105469 351.632812 77.140625 348.085938 Z M 77.140625 348.085938 " fill-opacity="1" fill-rule="nonzero"/><path fill="#fdbce4" d="M 95.558594 349.246094 C 97.054688 349.558594 98.007812 350.273438 98.789062 351.164062 C 99.917969 352.445312 101.507812 354.257812 99.742188 355.53125 C 97.324219 357.273438 95.65625 354.839844 94.3125 353.175781 C 93.140625 351.71875 92.117188 349.835938 95.558594 349.246094 Z M 95.558594 349.246094 " fill-opacity="1" fill-rule="nonzero"/><path fill="#fdbce4" d="M 329.355469 95.136719 C 331.957031 94.707031 333.171875 95.789062 332.925781 98.074219 C 332.785156 99.425781 331.597656 100.109375 330.316406 99.589844 C 328.242188 98.742188 327.660156 97.246094 329.355469 95.136719 Z M 329.355469 95.136719 " fill-opacity="1" fill-rule="nonzero"/></svg>