<svg xmlns="http://www.w3.org/2000/svg" xmlns:xlink="http://www.w3.org/1999/xlink" width="500" zoomAndPan="magnify" viewBox="0 0 375 374.999991" height="500" preserveAspectRatio="xMidYMid meet" version="1.0"><defs><clipPath id="1b032bed18"><path d="M 19 67.265625 L 356 67.265625 L 356 209 L 19 209 Z M 19 67.265625 " clip-rule="nonzero"/></clipPath></defs><path fill="#ffffff" d="M 354.304688 303.640625 L 236.617188 205.808594 C 233.175781 202.949219 228.191406 202.949219 224.75 205.808594 L 193.042969 232.164062 C 189.851562 234.816406 185.226562 234.816406 182.039062 232.164062 L 150.332031 205.808594 C 146.890625 202.949219 141.90625 202.949219 138.460938 205.808594 L 20.773438 303.640625 C 19.15625 304.988281 20.105469 307.621094 22.214844 307.621094 L 352.867188 307.621094 C 354.972656 307.621094 355.921875 304.988281 354.304688 303.640625 " fill-opacity="1" fill-rule="nonzero"/><path fill="#ffffff" d="M 123.761719 183.722656 L 3.734375 83.945312 C 2.273438 82.726562 0.0507812 83.769531 0.0507812 85.675781 L 0.0507812 289.582031 C 0.0507812 291.488281 2.273438 292.53125 3.734375 291.316406 L 123.761719 191.539062 C 126.207031 189.507812 126.207031 185.753906 123.761719 183.722656 " fill-opacity="1" fill-rule="nonzero"/><g clip-path="url(#1b032bed18)"><path fill="#ffffff" d="M 20.777344 71.621094 L 183.035156 206.503906 C 185.648438 208.675781 189.433594 208.675781 192.042969 206.503906 L 354.304688 71.621094 C 355.921875 70.273438 354.972656 67.636719 352.867188 67.636719 L 22.214844 67.636719 C 20.105469 67.636719 19.15625 70.273438 20.777344 71.621094 " fill-opacity="1" fill-rule="nonzero"/></g><path fill="#ffffff" d="M 371.347656 83.945312 L 251.320312 183.722656 C 248.875 185.753906 248.875 189.507812 251.320312 191.539062 L 371.347656 291.316406 C 372.808594 292.53125 375.027344 291.492188 375.027344 289.585938 L 375.027344 85.675781 C 375.027344 83.769531 372.808594 82.726562 371.347656 83.945312 " fill-opacity="1" fill-rule="nonzero"/></svg>