<svg xmlns="http://www.w3.org/2000/svg" xmlns:xlink="http://www.w3.org/1999/xlink" width="500" zoomAndPan="magnify" viewBox="0 0 375 374.999991" height="500" preserveAspectRatio="xMidYMid meet" version="1.0"><defs><clipPath id="c6659086d2"><path d="M 98.90625 0 L 275.90625 0 L 275.90625 375 L 98.90625 375 Z M 98.90625 0 " clip-rule="nonzero"/></clipPath></defs><g clip-path="url(#c6659086d2)"><path fill="#ffffff" d="M 235.070312 62.195312 L 275.90625 62.195312 L 275.90625 0.566406 L 223.765625 0.566406 L 223.765625 0.800781 C 155.210938 3.316406 141.074219 41.757812 139.898438 82.398438 L 139.742188 82.398438 L 139.742188 125.160156 L 98.90625 125.160156 L 98.90625 186.871094 L 139.742188 186.871094 L 139.742188 374.433594 L 213.007812 374.433594 L 213.007812 186.871094 L 265.539062 186.871094 L 275.90625 125.160156 L 213.007812 125.160156 L 213.007812 86.878906 C 213.007812 73.28125 222.113281 62.195312 235.070312 62.195312 Z M 235.070312 62.195312 " fill-opacity="1" fill-rule="nonzero"/></g></svg>