<svg xmlns="http://www.w3.org/2000/svg" xmlns:xlink="http://www.w3.org/1999/xlink" width="500" zoomAndPan="magnify" viewBox="0 0 375 374.999991" height="500" preserveAspectRatio="xMidYMid meet" version="1.0"><defs><clipPath id="858234ddaa"><path d="M 59 6 L 316 6 L 316 371.546875 L 59 371.546875 Z M 59 6 " clip-rule="nonzero"/></clipPath></defs><g clip-path="url(#858234ddaa)"><path fill="#ffffff" d="M 253.699219 32.480469 C 251.089844 30.070312 248.363281 27.808594 245.511719 25.695312 C 242.660156 23.582031 239.707031 21.625 236.644531 19.832031 C 233.582031 18.035156 230.433594 16.410156 227.199219 14.957031 C 223.960938 13.5 220.65625 12.222656 217.28125 11.125 C 213.90625 10.027344 210.484375 9.113281 207.011719 8.382812 C 203.539062 7.65625 200.035156 7.113281 196.503906 6.761719 C 192.972656 6.410156 189.433594 6.25 185.886719 6.28125 C 182.335938 6.3125 178.800781 6.535156 175.273438 6.945312 C 172.390625 7.390625 169.527344 7.953125 166.6875 8.632812 C 163.847656 9.3125 161.042969 10.105469 158.265625 11.015625 C 155.492188 11.921875 152.761719 12.945312 150.070312 14.078125 C 147.378906 15.207031 144.738281 16.449219 142.148438 17.796875 C 139.558594 19.144531 137.03125 20.597656 134.558594 22.152344 C 132.089844 23.710938 129.683594 25.363281 127.351562 27.113281 C 125.015625 28.867188 122.753906 30.710938 120.570312 32.648438 C 118.386719 34.585938 116.285156 36.609375 114.265625 38.71875 C 112.246094 40.824219 110.316406 43.011719 108.476562 45.28125 C 106.636719 47.546875 104.890625 49.886719 103.242188 52.292969 C 101.59375 54.703125 100.046875 57.175781 98.601562 59.710938 C 97.15625 62.25 95.8125 64.839844 94.578125 67.484375 C 93.34375 70.132812 92.222656 72.824219 91.207031 75.558594 C 90.191406 78.296875 89.292969 81.074219 88.503906 83.882812 C 87.71875 86.695312 87.046875 89.535156 86.492188 92.398438 C 85.9375 95.265625 85.5 98.152344 85.179688 101.050781 C 84.308594 107.320312 83.960938 113.617188 84.140625 119.941406 C 84.320312 126.265625 85.023438 132.53125 86.246094 138.738281 C 87.472656 144.949219 89.207031 151.011719 91.445312 156.929688 C 93.683594 162.847656 96.398438 168.539062 99.589844 174.003906 C 125.304688 218.320312 148.464844 258.445312 168.164062 301.667969 L 170.898438 307.6875 C 171.257812 308.476562 171.675781 309.242188 172.144531 309.972656 C 172.613281 310.707031 173.132812 311.402344 173.703125 312.058594 C 174.273438 312.714844 174.886719 313.332031 175.542969 313.902344 C 176.199219 314.472656 176.894531 314.992188 177.628906 315.464844 C 178.359375 315.933594 179.121094 316.351562 179.914062 316.710938 C 180.703125 317.074219 181.515625 317.378906 182.351562 317.621094 C 183.1875 317.867188 184.035156 318.050781 184.898438 318.175781 C 185.757812 318.300781 186.625 318.363281 187.496094 318.363281 C 188.363281 318.363281 189.230469 318.300781 190.09375 318.175781 C 190.953125 318.050781 191.800781 317.867188 192.636719 317.621094 C 193.472656 317.378906 194.285156 317.074219 195.074219 316.710938 C 195.867188 316.351562 196.628906 315.933594 197.359375 315.460938 C 198.09375 314.992188 198.789062 314.472656 199.445312 313.902344 C 200.101562 313.332031 200.714844 312.714844 201.285156 312.058594 C 201.855469 311.402344 202.375 310.707031 202.84375 309.972656 C 203.316406 309.242188 203.730469 308.476562 204.089844 307.6875 L 216.308594 280.511719 C 231.617188 248.78125 248.578125 217.957031 267.191406 188.046875 L 275.21875 174.367188 C 277.785156 169.992188 280.050781 165.464844 282.011719 160.785156 C 283.976562 156.105469 285.617188 151.320312 286.945312 146.421875 C 288.269531 141.523438 289.261719 136.558594 289.925781 131.527344 C 290.585938 126.5 290.914062 121.445312 290.902344 116.371094 C 290.933594 112.425781 290.753906 108.492188 290.367188 104.566406 C 289.976562 100.640625 289.382812 96.746094 288.578125 92.882812 C 287.777344 89.019531 286.773438 85.210938 285.566406 81.453125 C 284.355469 77.699219 282.953125 74.015625 281.355469 70.410156 C 279.753906 66.804688 277.96875 63.292969 275.996094 59.875 C 274.023438 56.460938 271.875 53.15625 269.550781 49.96875 C 267.226562 46.78125 264.738281 43.726562 262.089844 40.800781 C 259.4375 37.878906 256.640625 35.105469 253.699219 32.480469 Z M 187.496094 152.847656 C 186.300781 152.847656 185.109375 152.789062 183.917969 152.671875 C 182.730469 152.554688 181.550781 152.378906 180.378906 152.148438 C 179.207031 151.914062 178.050781 151.625 176.90625 151.277344 C 175.761719 150.929688 174.640625 150.527344 173.535156 150.070312 C 172.433594 149.613281 171.351562 149.105469 170.300781 148.539062 C 169.246094 147.976562 168.222656 147.363281 167.230469 146.699219 C 166.238281 146.035156 165.277344 145.324219 164.355469 144.566406 C 163.429688 143.808594 162.546875 143.007812 161.703125 142.164062 C 160.859375 141.320312 160.054688 140.4375 159.296875 139.511719 C 158.539062 138.589844 157.828125 137.628906 157.167969 136.636719 C 156.503906 135.644531 155.890625 134.621094 155.324219 133.566406 C 154.761719 132.511719 154.253906 131.433594 153.796875 130.332031 C 153.339844 129.226562 152.9375 128.105469 152.589844 126.960938 C 152.242188 125.816406 151.953125 124.660156 151.71875 123.488281 C 151.488281 122.316406 151.3125 121.136719 151.195312 119.949219 C 151.078125 118.757812 151.019531 117.566406 151.019531 116.371094 C 151.019531 115.175781 151.078125 113.984375 151.195312 112.796875 C 151.3125 111.609375 151.488281 110.429688 151.71875 109.257812 C 151.953125 108.085938 152.242188 106.925781 152.589844 105.785156 C 152.9375 104.640625 153.339844 103.515625 153.796875 102.414062 C 154.253906 101.308594 154.761719 100.230469 155.324219 99.179688 C 155.890625 98.125 156.503906 97.101562 157.167969 96.109375 C 157.828125 95.113281 158.539062 94.15625 159.296875 93.234375 C 160.054688 92.308594 160.859375 91.425781 161.703125 90.582031 C 162.546875 89.734375 163.429688 88.933594 164.355469 88.175781 C 165.277344 87.417969 166.238281 86.707031 167.230469 86.042969 C 168.222656 85.378906 169.246094 84.765625 170.300781 84.203125 C 171.355469 83.640625 172.433594 83.128906 173.535156 82.671875 C 174.640625 82.214844 175.761719 81.8125 176.90625 81.46875 C 178.050781 81.121094 179.207031 80.832031 180.378906 80.597656 C 181.550781 80.363281 182.730469 80.191406 183.917969 80.074219 C 185.109375 79.957031 186.300781 79.898438 187.496094 79.898438 C 188.6875 79.898438 189.878906 79.957031 191.070312 80.074219 C 192.257812 80.191406 193.4375 80.363281 194.609375 80.597656 C 195.78125 80.832031 196.941406 81.121094 198.082031 81.46875 C 199.226562 81.8125 200.347656 82.214844 201.453125 82.671875 C 202.554688 83.128906 203.636719 83.640625 204.6875 84.203125 C 205.742188 84.765625 206.765625 85.378906 207.757812 86.042969 C 208.753906 86.707031 209.710938 87.417969 210.632812 88.175781 C 211.558594 88.933594 212.441406 89.734375 213.285156 90.582031 C 214.132812 91.425781 214.933594 92.308594 215.691406 93.234375 C 216.449219 94.15625 217.160156 95.113281 217.824219 96.109375 C 218.484375 97.101562 219.101562 98.125 219.664062 99.179688 C 220.226562 100.230469 220.734375 101.308594 221.191406 102.414062 C 221.652344 103.515625 222.050781 104.640625 222.398438 105.785156 C 222.746094 106.925781 223.035156 108.085938 223.269531 109.257812 C 223.503906 110.429688 223.675781 111.609375 223.792969 112.796875 C 223.910156 113.984375 223.96875 115.175781 223.96875 116.371094 C 223.96875 117.566406 223.910156 118.757812 223.792969 119.949219 C 223.675781 121.136719 223.503906 122.316406 223.269531 123.488281 C 223.035156 124.660156 222.746094 125.816406 222.398438 126.960938 C 222.050781 128.105469 221.652344 129.226562 221.191406 130.332031 C 220.734375 131.433594 220.226562 132.511719 219.664062 133.566406 C 219.101562 134.621094 218.484375 135.644531 217.824219 136.636719 C 217.160156 137.628906 216.449219 138.589844 215.691406 139.511719 C 214.933594 140.4375 214.132812 141.320312 213.285156 142.164062 C 212.441406 143.007812 211.558594 143.808594 210.632812 144.566406 C 209.710938 145.324219 208.753906 146.035156 207.757812 146.699219 C 206.765625 147.363281 205.742188 147.976562 204.6875 148.539062 C 203.636719 149.105469 202.554688 149.613281 201.453125 150.070312 C 200.347656 150.527344 199.226562 150.929688 198.082031 151.277344 C 196.941406 151.625 195.78125 151.914062 194.609375 152.148438 C 193.4375 152.378906 192.257812 152.554688 191.070312 152.671875 C 189.878906 152.789062 188.6875 152.847656 187.496094 152.847656 Z M 315.160156 298.75 C 315.160156 340.332031 260.445312 371.699219 187.496094 371.699219 C 114.542969 371.699219 59.832031 340.332031 59.832031 298.75 C 59.832031 272.667969 81.351562 250.785156 114.542969 237.835938 C 120.5625 248.777344 126.398438 259.539062 132.78125 270.480469 C 109.800781 278.140625 96.304688 289.628906 96.304688 298.75 C 96.304688 313.703125 131.871094 335.226562 187.496094 335.226562 C 243.121094 335.226562 278.683594 313.703125 278.683594 298.75 C 278.683594 289.628906 265.003906 277.777344 242.207031 270.117188 C 247.679688 259.171875 253.515625 248.414062 260.445312 237.652344 C 293.457031 250.417969 315.160156 272.488281 315.160156 298.75 Z M 315.160156 298.75 " fill-opacity="1" fill-rule="nonzero"/></g></svg>