<svg xmlns="http://www.w3.org/2000/svg" xmlns:xlink="http://www.w3.org/1999/xlink" width="500" zoomAndPan="magnify" viewBox="0 0 375 374.999991" height="500" preserveAspectRatio="xMidYMid meet" version="1.0"><path fill="#ffffff" d="M 187.5 0 C 184.429688 0 181.363281 0.0742188 178.300781 0.226562 C 175.234375 0.375 172.175781 0.601562 169.121094 0.902344 C 166.066406 1.203125 163.023438 1.578125 159.988281 2.03125 C 156.953125 2.480469 153.929688 3.003906 150.921875 3.601562 C 147.910156 4.203125 144.917969 4.875 141.941406 5.617188 C 138.964844 6.363281 136.007812 7.183594 133.070312 8.074219 C 130.136719 8.964844 127.222656 9.925781 124.332031 10.960938 C 121.445312 11.996094 118.582031 13.097656 115.746094 14.273438 C 112.910156 15.445312 110.105469 16.691406 107.332031 18.003906 C 104.558594 19.3125 101.820312 20.691406 99.113281 22.140625 C 96.40625 23.585938 93.738281 25.097656 91.105469 26.675781 C 88.472656 28.253906 85.882812 29.894531 83.332031 31.597656 C 80.777344 33.304688 78.269531 35.070312 75.804688 36.898438 C 73.339844 38.726562 70.921875 40.613281 68.550781 42.558594 C 66.179688 44.507812 63.855469 46.511719 61.582031 48.570312 C 59.308594 50.632812 57.085938 52.746094 54.917969 54.917969 C 52.746094 57.085938 50.632812 59.308594 48.570312 61.582031 C 46.511719 63.855469 44.507812 66.179688 42.558594 68.550781 C 40.613281 70.921875 38.726562 73.339844 36.898438 75.804688 C 35.070312 78.269531 33.304688 80.777344 31.597656 83.332031 C 29.894531 85.882812 28.253906 88.472656 26.675781 91.105469 C 25.097656 93.738281 23.585938 96.40625 22.140625 99.113281 C 20.691406 101.820312 19.3125 104.558594 18.003906 107.332031 C 16.691406 110.105469 15.445312 112.910156 14.273438 115.746094 C 13.097656 118.582031 11.996094 121.445312 10.960938 124.332031 C 9.925781 127.222656 8.964844 130.136719 8.074219 133.070312 C 7.183594 136.007812 6.363281 138.964844 5.621094 141.941406 C 4.875 144.917969 4.203125 147.910156 3.601562 150.921875 C 3.003906 153.929688 2.480469 156.953125 2.03125 159.988281 C 1.578125 163.023438 1.203125 166.066406 0.902344 169.121094 C 0.601562 172.175781 0.375 175.234375 0.226562 178.300781 C 0.0742188 181.363281 0 184.429688 0 187.5 C 0 190.570312 0.0742188 193.636719 0.226562 196.699219 C 0.375 199.765625 0.601562 202.824219 0.902344 205.878906 C 1.203125 208.933594 1.578125 211.976562 2.03125 215.011719 C 2.480469 218.046875 3.003906 221.070312 3.601562 224.078125 C 4.203125 227.089844 4.875 230.082031 5.621094 233.058594 C 6.363281 236.035156 7.183594 238.992188 8.074219 241.929688 C 8.964844 244.863281 9.925781 247.777344 10.960938 250.667969 C 11.996094 253.554688 13.097656 256.417969 14.273438 259.253906 C 15.445312 262.089844 16.691406 264.894531 18.003906 267.667969 C 19.3125 270.441406 20.691406 273.179688 22.140625 275.886719 C 23.585938 278.59375 25.097656 281.261719 26.675781 283.894531 C 28.253906 286.527344 29.894531 289.117188 31.597656 291.667969 C 33.304688 294.222656 35.070312 296.730469 36.898438 299.195312 C 38.726562 301.660156 40.613281 304.078125 42.558594 306.449219 C 44.507812 308.820312 46.511719 311.144531 48.570312 313.417969 C 50.632812 315.691406 52.746094 317.914062 54.917969 320.082031 C 57.085938 322.253906 59.308594 324.367188 61.582031 326.429688 C 63.855469 328.488281 66.179688 330.492188 68.550781 332.441406 C 70.921875 334.386719 73.339844 336.273438 75.804688 338.101562 C 78.269531 339.929688 80.777344 341.695312 83.332031 343.402344 C 85.882812 345.105469 88.472656 346.746094 91.105469 348.324219 C 93.738281 349.902344 96.40625 351.414062 99.113281 352.859375 C 101.820312 354.308594 104.558594 355.6875 107.332031 356.996094 C 110.105469 358.308594 112.910156 359.554688 115.746094 360.726562 C 118.582031 361.902344 121.445312 363.003906 124.332031 364.039062 C 127.222656 365.074219 130.136719 366.035156 133.070312 366.925781 C 136.007812 367.816406 138.964844 368.636719 141.941406 369.378906 C 144.917969 370.125 147.910156 370.796875 150.921875 371.398438 C 153.929688 371.996094 156.953125 372.519531 159.988281 372.96875 C 163.023438 373.421875 166.066406 373.796875 169.121094 374.097656 C 172.175781 374.398438 175.234375 374.625 178.300781 374.773438 C 181.363281 374.925781 184.429688 375 187.5 375 C 190.570312 375 193.636719 374.925781 196.699219 374.773438 C 199.765625 374.625 202.824219 374.398438 205.878906 374.097656 C 208.933594 373.796875 211.976562 373.421875 215.011719 372.96875 C 218.046875 372.519531 221.070312 371.996094 224.078125 371.398438 C 227.089844 370.796875 230.082031 370.125 233.058594 369.378906 C 236.035156 368.636719 238.992188 367.816406 241.929688 366.925781 C 244.863281 366.035156 247.777344 365.074219 250.667969 364.039062 C 253.554688 363.003906 256.417969 361.902344 259.253906 360.726562 C 262.089844 359.554688 264.894531 358.308594 267.667969 356.996094 C 270.441406 355.6875 273.179688 354.308594 275.886719 352.859375 C 278.59375 351.414062 281.261719 349.902344 283.894531 348.324219 C 286.527344 346.746094 289.117188 345.105469 291.667969 343.402344 C 294.222656 341.695312 296.730469 339.929688 299.195312 338.101562 C 301.660156 336.273438 304.078125 334.386719 306.449219 332.4375 C 308.820312 330.492188 311.144531 328.488281 313.417969 326.429688 C 315.691406 324.367188 317.914062 322.253906 320.082031 320.082031 C 322.253906 317.914062 324.367188 315.691406 326.429688 313.417969 C 328.488281 311.144531 330.492188 308.820312 332.441406 306.449219 C 334.386719 304.078125 336.273438 301.660156 338.101562 299.195312 C 339.929688 296.730469 341.695312 294.222656 343.402344 291.667969 C 345.105469 289.117188 346.746094 286.527344 348.324219 283.894531 C 349.902344 281.261719 351.414062 278.59375 352.859375 275.886719 C 354.308594 273.179688 355.6875 270.441406 356.996094 267.667969 C 358.308594 264.894531 359.554688 262.089844 360.726562 259.253906 C 361.902344 256.417969 363.003906 253.554688 364.039062 250.667969 C 365.074219 247.777344 366.035156 244.863281 366.925781 241.929688 C 367.816406 238.992188 368.636719 236.035156 369.378906 233.058594 C 370.125 230.082031 370.796875 227.089844 371.398438 224.078125 C 371.996094 221.070312 372.519531 218.046875 372.96875 215.011719 C 373.421875 211.976562 373.796875 208.933594 374.097656 205.878906 C 374.398438 202.824219 374.625 199.765625 374.773438 196.699219 C 374.925781 193.636719 375 190.570312 375 187.5 C 375 184.429688 374.925781 181.363281 374.773438 178.300781 C 374.621094 175.234375 374.394531 172.175781 374.09375 169.121094 C 373.792969 166.070312 373.417969 163.023438 372.96875 159.988281 C 372.515625 156.953125 371.992188 153.933594 371.394531 150.921875 C 370.792969 147.914062 370.121094 144.917969 369.375 141.941406 C 368.628906 138.96875 367.8125 136.011719 366.921875 133.074219 C 366.03125 130.136719 365.066406 127.226562 364.035156 124.335938 C 363 121.445312 361.894531 118.585938 360.722656 115.75 C 359.546875 112.914062 358.304688 110.113281 356.992188 107.335938 C 355.679688 104.5625 354.300781 101.824219 352.851562 99.117188 C 351.40625 96.410156 349.894531 93.742188 348.316406 91.109375 C 346.738281 88.480469 345.097656 85.886719 343.394531 83.335938 C 341.6875 80.785156 339.921875 78.277344 338.09375 75.8125 C 336.265625 73.347656 334.378906 70.929688 332.433594 68.558594 C 330.484375 66.1875 328.480469 63.863281 326.421875 61.589844 C 324.359375 59.316406 322.246094 57.09375 320.074219 54.925781 C 317.90625 52.753906 315.683594 50.640625 313.410156 48.578125 C 311.136719 46.519531 308.8125 44.515625 306.441406 42.566406 C 304.070312 40.621094 301.652344 38.734375 299.1875 36.90625 C 296.722656 35.078125 294.214844 33.3125 291.664062 31.605469 C 289.113281 29.902344 286.519531 28.261719 283.890625 26.683594 C 281.257812 25.105469 278.589844 23.59375 275.882812 22.148438 C 273.175781 20.699219 270.4375 19.320312 267.664062 18.007812 C 264.886719 16.695312 262.085938 15.453125 259.25 14.277344 C 256.414062 13.105469 253.550781 12 250.664062 10.964844 C 247.773438 9.933594 244.863281 8.96875 241.925781 8.078125 C 238.988281 7.1875 236.03125 6.371094 233.058594 5.625 C 230.082031 4.878906 227.085938 4.207031 224.078125 3.605469 C 221.066406 3.007812 218.046875 2.484375 215.011719 2.03125 C 211.976562 1.582031 208.929688 1.207031 205.878906 0.90625 C 202.824219 0.605469 199.765625 0.378906 196.699219 0.226562 C 193.636719 0.0742188 190.570312 0 187.5 0 Z M 301.289062 268.652344 C 300.082031 270.660156 298.785156 272.605469 297.394531 274.492188 C 296.003906 276.375 294.527344 278.191406 292.964844 279.933594 C 291.402344 281.679688 289.761719 283.347656 288.042969 284.9375 C 286.320312 286.527344 284.53125 288.03125 282.667969 289.453125 C 280.808594 290.875 278.882812 292.203125 276.894531 293.441406 C 274.90625 294.679688 272.863281 295.820312 270.769531 296.867188 C 268.671875 297.914062 266.53125 298.855469 264.347656 299.699219 C 262.160156 300.542969 259.941406 301.28125 257.6875 301.914062 C 255.429688 302.542969 253.152344 303.070312 250.847656 303.488281 C 248.542969 303.902344 246.222656 304.210938 243.886719 304.410156 C 241.554688 304.605469 239.21875 304.695312 236.875 304.671875 C 234.53125 304.648438 232.195312 304.511719 229.867188 304.269531 C 227.539062 304.023438 225.226562 303.671875 222.929688 303.207031 C 220.632812 302.746094 218.367188 302.175781 216.125 301.496094 C 213.882812 300.820312 211.675781 300.039062 209.507812 299.152344 C 207.339844 298.265625 205.21875 297.277344 203.144531 296.191406 C 189.929688 289.285156 177.3125 281.421875 165.289062 272.601562 C 153.269531 263.78125 141.980469 254.105469 131.425781 243.574219 C 120.867188 232.992188 111.175781 221.667969 102.34375 209.605469 C 93.511719 197.542969 85.648438 184.882812 78.75 171.621094 C 77.667969 169.546875 76.6875 167.429688 75.808594 165.265625 C 74.929688 163.097656 74.152344 160.894531 73.480469 158.65625 C 72.808594 156.417969 72.246094 154.152344 71.785156 151.859375 C 71.328125 149.570312 70.980469 147.261719 70.742188 144.933594 C 70.5 142.609375 70.371094 140.277344 70.351562 137.941406 C 70.335938 135.605469 70.425781 133.269531 70.628906 130.941406 C 70.828125 128.613281 71.140625 126.300781 71.558594 124 C 71.980469 121.699219 72.507812 119.425781 73.144531 117.175781 C 73.777344 114.925781 74.519531 112.710938 75.363281 110.53125 C 76.207031 108.355469 77.15625 106.21875 78.199219 104.128906 C 79.246094 102.039062 80.390625 100.003906 81.628906 98.019531 C 82.867188 96.039062 84.199219 94.121094 85.617188 92.261719 C 87.039062 90.40625 88.542969 88.621094 90.132812 86.90625 C 91.722656 85.195312 93.390625 83.558594 95.132812 82.003906 C 96.878906 80.445312 98.691406 78.976562 100.574219 77.589844 C 102.457031 76.207031 104.402344 74.910156 106.40625 73.710938 C 107.070312 73.3125 107.753906 72.945312 108.457031 72.613281 C 109.15625 72.28125 109.871094 71.984375 110.601562 71.722656 C 111.332031 71.460938 112.074219 71.234375 112.828125 71.046875 C 113.578125 70.855469 114.339844 70.703125 115.105469 70.589844 C 115.875 70.476562 116.644531 70.398438 117.417969 70.359375 C 118.195312 70.320312 118.96875 70.320312 119.742188 70.355469 C 120.519531 70.394531 121.289062 70.46875 122.058594 70.582031 C 122.824219 70.695312 123.585938 70.84375 124.335938 71.03125 C 125.089844 71.21875 125.832031 71.441406 126.5625 71.703125 C 127.292969 71.960938 128.011719 72.257812 128.710938 72.585938 C 129.414062 72.917969 130.097656 73.28125 130.765625 73.679688 C 131.429688 74.074219 132.078125 74.503906 132.699219 74.964844 C 133.324219 75.425781 133.925781 75.917969 134.5 76.4375 C 135.078125 76.957031 135.625 77.5 136.148438 78.074219 C 136.671875 78.648438 137.164062 79.246094 137.628906 79.867188 C 138.09375 80.488281 138.523438 81.132812 138.925781 81.796875 L 154.160156 107.285156 C 154.613281 108.058594 155.023438 108.851562 155.390625 109.671875 C 155.753906 110.488281 156.074219 111.324219 156.34375 112.179688 C 156.613281 113.03125 156.835938 113.898438 157.011719 114.777344 C 157.183594 115.65625 157.304688 116.542969 157.378906 117.4375 C 157.453125 118.328125 157.476562 119.222656 157.449219 120.121094 C 157.421875 121.015625 157.34375 121.90625 157.214844 122.792969 C 157.085938 123.679688 156.90625 124.554688 156.679688 125.421875 C 156.453125 126.289062 156.179688 127.140625 155.855469 127.976562 C 155.53125 128.8125 155.164062 129.628906 154.75 130.421875 C 154.335938 131.214844 153.875 131.984375 153.375 132.726562 C 152.871094 133.46875 152.332031 134.179688 151.75 134.863281 C 151.167969 135.542969 150.546875 136.191406 149.894531 136.800781 C 149.238281 137.414062 148.550781 137.984375 147.832031 138.519531 C 147.113281 139.054688 146.367188 139.546875 145.589844 139.996094 C 144.816406 140.445312 144.019531 140.851562 143.199219 141.210938 C 142.378906 141.570312 141.539062 141.882812 140.683594 142.148438 C 140.097656 142.320312 139.523438 142.523438 138.960938 142.757812 C 138.398438 142.996094 137.847656 143.261719 137.316406 143.5625 C 136.785156 143.859375 136.269531 144.1875 135.777344 144.546875 C 135.28125 144.902344 134.808594 145.285156 134.355469 145.699219 C 133.902344 146.109375 133.476562 146.542969 133.074219 147.003906 C 132.671875 147.464844 132.296875 147.945312 131.953125 148.445312 C 131.605469 148.949219 131.285156 149.46875 130.996094 150.007812 C 130.710938 150.542969 130.453125 151.097656 130.226562 151.664062 C 130.003906 152.230469 129.808594 152.8125 129.652344 153.398438 C 129.492188 153.988281 129.367188 154.585938 129.273438 155.191406 C 129.183594 155.792969 129.125 156.398438 129.101562 157.011719 C 129.078125 157.621094 129.09375 158.230469 129.136719 158.839844 C 129.183594 159.445312 129.265625 160.050781 129.382812 160.652344 C 129.496094 161.25 129.644531 161.839844 129.828125 162.425781 C 130.011719 163.007812 130.226562 163.578125 130.472656 164.136719 C 130.722656 164.691406 131 165.234375 131.308594 165.761719 C 140.910156 181.746094 152.296875 196.335938 165.46875 209.53125 C 178.679688 222.757812 193.308594 234.164062 209.355469 243.75 C 210.375 244.371094 211.449219 244.871094 212.582031 245.246094 C 213.714844 245.621094 214.875 245.867188 216.0625 245.976562 C 217.25 246.089844 218.433594 246.066406 219.617188 245.90625 C 220.800781 245.75 221.949219 245.460938 223.066406 245.039062 C 224.304688 244.578125 225.46875 243.96875 226.554688 243.222656 C 227.644531 242.472656 228.625 241.601562 229.5 240.609375 C 230.375 239.617188 231.113281 238.535156 231.71875 237.363281 C 232.328125 236.1875 232.78125 234.957031 233.085938 233.671875 C 233.371094 232.835938 233.699219 232.019531 234.074219 231.222656 C 234.449219 230.425781 234.863281 229.648438 235.324219 228.898438 C 235.785156 228.144531 236.285156 227.421875 236.828125 226.726562 C 237.367188 226.03125 237.945312 225.367188 238.5625 224.734375 C 239.175781 224.101562 239.824219 223.503906 240.503906 222.945312 C 241.1875 222.386719 241.894531 221.867188 242.636719 221.386719 C 243.375 220.902344 244.136719 220.464844 244.925781 220.070312 C 245.714844 219.671875 246.519531 219.320312 247.347656 219.015625 C 248.171875 218.710938 249.015625 218.449219 249.871094 218.238281 C 250.726562 218.023438 251.589844 217.859375 252.464844 217.742188 C 253.339844 217.625 254.214844 217.558594 255.097656 217.539062 C 255.980469 217.519531 256.859375 217.550781 257.738281 217.628906 C 258.613281 217.707031 259.484375 217.832031 260.351562 218.007812 C 261.214844 218.183594 262.066406 218.40625 262.90625 218.675781 C 263.742188 218.949219 264.566406 219.261719 265.371094 219.625 C 266.175781 219.988281 266.957031 220.390625 267.714844 220.839844 L 293.203125 236.074219 C 293.867188 236.476562 294.507812 236.914062 295.128906 237.378906 C 295.75 237.84375 296.347656 238.339844 296.921875 238.863281 C 297.492188 239.386719 298.039062 239.941406 298.558594 240.515625 C 299.078125 241.09375 299.566406 241.695312 300.027344 242.324219 C 300.484375 242.949219 300.914062 243.59375 301.3125 244.261719 C 301.707031 244.929688 302.070312 245.613281 302.398438 246.316406 C 302.730469 247.019531 303.023438 247.738281 303.285156 248.46875 C 303.542969 249.203125 303.765625 249.945312 303.953125 250.699219 C 304.140625 251.453125 304.292969 252.210938 304.402344 252.980469 C 304.515625 253.75 304.589844 254.519531 304.628906 255.296875 C 304.667969 256.074219 304.664062 256.847656 304.625 257.625 C 304.589844 258.398438 304.511719 259.171875 304.398438 259.9375 C 304.285156 260.707031 304.132812 261.46875 303.945312 262.222656 C 303.757812 262.972656 303.53125 263.714844 303.269531 264.449219 C 303.007812 265.179688 302.714844 265.894531 302.382812 266.597656 C 302.050781 267.300781 301.6875 267.984375 301.289062 268.652344 Z M 301.289062 268.652344 " fill-opacity="1" fill-rule="nonzero"/></svg>