<svg xmlns="http://www.w3.org/2000/svg" xmlns:xlink="http://www.w3.org/1999/xlink" width="500" zoomAndPan="magnify" viewBox="0 0 375 374.999991" height="500" preserveAspectRatio="xMidYMid meet" version="1.0"><defs><clipPath id="b6e5fc0aaf"><path d="M 0 273 L 375 273 L 375 320.109375 L 0 320.109375 Z M 0 273 " clip-rule="nonzero"/></clipPath><clipPath id="5f1c5bb536"><path d="M 0 54.609375 L 375 54.609375 L 375 102 L 0 102 Z M 0 54.609375 " clip-rule="nonzero"/></clipPath></defs><path fill="#000000" d="M 351.5625 163.945312 L 23.4375 163.945312 C 10.492188 163.945312 0 174.429688 0 187.359375 C 0 200.289062 10.492188 210.773438 23.4375 210.773438 L 351.5625 210.773438 C 364.507812 210.773438 375 200.289062 375 187.359375 C 375 174.429688 364.507812 163.945312 351.5625 163.945312 Z M 351.5625 163.945312 " fill-opacity="1" fill-rule="nonzero"/><g clip-path="url(#b6e5fc0aaf)"><path fill="#000000" d="M 351.5625 273.207031 L 23.4375 273.207031 C 10.492188 273.207031 0 283.6875 0 296.617188 C 0 309.550781 10.492188 320.03125 23.4375 320.03125 L 351.5625 320.03125 C 364.507812 320.03125 375 309.550781 375 296.617188 C 375 283.6875 364.507812 273.207031 351.5625 273.207031 Z M 351.5625 273.207031 " fill-opacity="1" fill-rule="nonzero"/></g><g clip-path="url(#5f1c5bb536)"><path fill="#000000" d="M 23.4375 101.511719 L 351.5625 101.511719 C 364.507812 101.511719 375 91.03125 375 78.101562 C 375 65.167969 364.507812 54.6875 351.5625 54.6875 L 23.4375 54.6875 C 10.492188 54.6875 0 65.167969 0 78.101562 C 0 91.03125 10.492188 101.511719 23.4375 101.511719 Z M 23.4375 101.511719 " fill-opacity="1" fill-rule="nonzero"/></g></svg>